<svg xmlns="http://www.w3.org/2000/svg" xmlns:xlink="http://www.w3.org/1999/xlink" viewBox="0 0 62.78 51.89"><defs><style>.cls-1{fill:#d52d27;}.cls-2{fill:url(#linear-gradient);}.cls-3{fill:url(#linear-gradient-2);}</style><linearGradient id="linear-gradient" x1="15.4" y1="34.2" x2="15.4" y2="18.61" gradientUnits="userSpaceOnUse"><stop offset="0" stop-color="#fff"/><stop offset="1" stop-color="#fff" stop-opacity="0"/></linearGradient><linearGradient id="linear-gradient-2" x1="47.38" y1="58.46" x2="47.38" y2="42.88" xlink:href="#linear-gradient"/></defs><title>b2b</title><g id="Layer_2" data-name="Layer 2"><g id="Layer_1-2" data-name="Layer 1"><path class="cls-1" d="M26.4,15.52h-22A5.69,5.69,0,0,1,0,13.44V26.08a1.55,1.55,0,0,0,1.54,1.54H29.25a1.55,1.55,0,0,0,1.54-1.54V13.44A5.69,5.69,0,0,1,26.4,15.52Z"/><path class="cls-2" d="M25.35,16.51H5.44a5.43,5.43,0,0,1-4-1.66V25a1.33,1.33,0,0,0,1.4,1.24H27.93A1.33,1.33,0,0,0,29.33,25V14.84A5.43,5.43,0,0,1,25.35,16.51Z"/><path class="cls-1" d="M21.49,4.75V3.8A3.8,3.8,0,0,0,17.69,0H13.1A3.8,3.8,0,0,0,9.3,3.8v.95H0V9.82a4.41,4.41,0,0,0,4.39,4.39h22a4.41,4.41,0,0,0,4.39-4.39V4.75ZM11.2,3.8a1.9,1.9,0,0,1,1.9-1.9h4.59a1.9,1.9,0,0,1,1.9,1.9v.95H11.2Zm4.2,8.75a1.15,1.15,0,1,1,1.15-1.15A1.15,1.15,0,0,1,15.4,12.55Z"/><path class="cls-1" d="M58.38,39.78h-22A5.69,5.69,0,0,1,32,37.71V50.35a1.55,1.55,0,0,0,1.54,1.54H61.23a1.55,1.55,0,0,0,1.54-1.54V37.71A5.69,5.69,0,0,1,58.38,39.78Z"/><path class="cls-3" d="M57.34,40.77H37.42a5.43,5.43,0,0,1-4-1.66V49.25a1.33,1.33,0,0,0,1.4,1.24H59.92a1.33,1.33,0,0,0,1.4-1.24V39.11A5.43,5.43,0,0,1,57.34,40.77Z"/><path class="cls-1" d="M53.48,29v-.95a3.8,3.8,0,0,0-3.8-3.8H45.08a3.8,3.8,0,0,0-3.8,3.8V29H32v5.07a4.41,4.41,0,0,0,4.39,4.39h22a4.41,4.41,0,0,0,4.39-4.39V29Zm-10.29-.95a1.9,1.9,0,0,1,1.9-1.9h4.59a1.9,1.9,0,0,1,1.9,1.9V29H43.18Zm4.2,8.75a1.15,1.15,0,1,1,1.15-1.15A1.15,1.15,0,0,1,47.38,36.81Z"/><path class="cls-1" d="M51.39,14.72a1.09,1.09,0,0,0-1.54,0L48.58,16V14a6.43,6.43,0,0,0-6.42-6.42H37.59a1.09,1.09,0,1,0,0,2.18h4.58A4.25,4.25,0,0,1,46.4,14v2l-1.27-1.27a1.09,1.09,0,1,0-1.54,1.54l3.13,3.13.17.14.07,0,0,0,.09,0,.09,0h0l.08,0,.21,0,.21,0,.08,0h0l.09,0,.09,0,0,0,.07,0,.17-.14,3.13-3.13a1.09,1.09,0,0,0,0-1.54Z"/><path class="cls-1" d="M25.44,42.18H20.87a4.25,4.25,0,0,1-4.24-4.24v-2l1.27,1.27a1.09,1.09,0,1,0,1.54-1.54l-3.13-3.13-.16-.13-.07,0,0,0-.09,0-.09,0h0l-.08,0a1.08,1.08,0,0,0-.43,0l-.08,0h0l-.09,0-.09,0,0,0-.07,0-.17.14-3.13,3.13a1.09,1.09,0,0,0,0,1.54h0a1.09,1.09,0,0,0,1.54,0l1.27-1.27v2a6.43,6.43,0,0,0,6.42,6.42h4.58a1.09,1.09,0,0,0,0-2.18Z"/></g></g></svg>