<svg xmlns="http://www.w3.org/2000/svg" xmlns:xlink="http://www.w3.org/1999/xlink" viewBox="0 0 40.63 34.75"><defs><style>.cls-1{fill:#d52d27;}.cls-2{fill:url(#linear-gradient);}.cls-3{font-size:31.97px;fill:#fff;font-family:MyriadPro-Regular, Myriad Pro;}</style><linearGradient id="linear-gradient" x1="12.19" y1="-26.67" x2="20.18" y2="15.72" gradientUnits="userSpaceOnUse"><stop offset="0" stop-color="#fff"/><stop offset="1" stop-color="#fff" stop-opacity="0"/></linearGradient></defs><title>tips</title><g id="Layer_2" data-name="Layer 2"><g id="Layer_1-2" data-name="Layer 1"><path class="cls-1" d="M18.66.85C-3.93,2-7.38,27.56,15.89,31c-.12.84-.21,1.64-.26,2.31A.86.86,0,0,0,17,34l3.63-2.94c9-.66,20.61-6.87,19.95-16S29.41.3,18.66.85Z"/><path class="cls-2" d="M18.92,3.39C-.24,4.38-3.16,26,16.57,28.94c-.1.71-.17,1.39-.22,2a.73.73,0,0,0,1.19.63L20.61,29c7.61-.56,17.47-5.82,16.91-13.53S28,2.92,18.92,3.39Z"/><text class="cls-3" transform="translate(16.01 26.76)">!</text></g></g></svg>