<?xml version="1.0" standalone="no"?>
<!DOCTYPE svg PUBLIC "-//W3C//DTD SVG 20010904//EN"
 "http://www.w3.org/TR/2001/REC-SVG-20010904/DTD/svg10.dtd">
<svg version="1.0" xmlns="http://www.w3.org/2000/svg"
 width="840.000000pt" height="859.000000pt" viewBox="0 0 840.000000 859.000000"
 preserveAspectRatio="xMidYMid meet">

<g transform="translate(0.000000,859.000000) scale(0.100000,-0.100000)"
fill="#8c8c8c" stroke="none">
<path d="M4019 6559 c-255 -7 -394 -22 -664 -70 -27 -5 -74 -12 -103 -15 -29
-4 -55 -11 -58 -15 -3 -5 -23 -9 -45 -9 -21 0 -39 -4 -39 -10 0 -5 -18 -10
-40 -10 -22 0 -40 -4 -40 -10 0 -5 -18 -10 -40 -10 -22 0 -40 -4 -40 -10 0 -5
-18 -10 -40 -10 -22 0 -40 -4 -40 -10 0 -5 -16 -10 -35 -10 -19 0 -35 -4 -35
-10 0 -5 -11 -10 -24 -10 -14 0 -28 -4 -31 -10 -3 -5 -19 -10 -34 -10 -15 0
-31 -3 -34 -7 -6 -6 -93 -38 -168 -62 -29 -10 -93 -37 -121 -52 -10 -5 -25 -9
-33 -9 -8 0 -15 -4 -15 -10 0 -5 -11 -10 -24 -10 -14 0 -28 -4 -31 -10 -3 -5
-15 -10 -26 -10 -10 0 -19 -4 -19 -10 0 -5 -9 -10 -20 -10 -11 0 -20 -4 -20
-10 0 -5 -9 -10 -19 -10 -11 0 -23 -4 -26 -10 -3 -5 -15 -10 -26 -10 -10 0
-19 -4 -19 -10 0 -5 -9 -10 -20 -10 -11 0 -20 -4 -20 -10 0 -5 -9 -10 -19 -10
-11 0 -21 -3 -23 -7 -1 -5 -31 -21 -65 -38 -35 -16 -63 -33 -63 -37 0 -5 -9
-8 -20 -8 -11 0 -20 -4 -20 -10 0 -5 -8 -10 -18 -10 -10 0 -24 -9 -32 -20 -8
-11 -22 -20 -32 -20 -10 0 -18 -4 -18 -10 0 -5 -9 -10 -20 -10 -11 0 -20 -4
-20 -10 0 -5 -5 -10 -11 -10 -6 0 -30 -13 -54 -30 -24 -16 -48 -30 -54 -30 -6
0 -11 -4 -11 -9 0 -5 -8 -12 -19 -16 -10 -3 -29 -14 -42 -25 -38 -31 -42 -34
-72 -49 -15 -8 -27 -18 -27 -23 0 -4 -6 -8 -13 -8 -7 0 -19 -9 -27 -20 -8 -11
-20 -20 -28 -20 -7 0 -24 -11 -38 -25 -14 -14 -29 -25 -33 -25 -5 0 -22 -12
-39 -27 -16 -16 -42 -37 -57 -48 -16 -11 -44 -35 -63 -52 -20 -18 -40 -33 -45
-33 -4 0 -29 -21 -55 -47 -26 -27 -79 -75 -117 -108 -77 -66 -171 -159 -253
-251 -174 -193 -220 -246 -257 -298 -11 -15 -35 -44 -53 -64 -17 -20 -32 -41
-32 -47 0 -6 -9 -17 -20 -25 -11 -8 -20 -20 -20 -27 0 -7 -4 -13 -10 -13 -5 0
-10 -7 -10 -15 0 -8 -4 -15 -10 -15 -5 0 -10 -6 -10 -13 0 -7 -9 -19 -20 -27
-11 -8 -20 -20 -20 -28 0 -7 -6 -19 -12 -26 -7 -8 -20 -24 -28 -36 -8 -12 -23
-33 -32 -45 -10 -13 -18 -28 -18 -34 0 -6 -4 -11 -10 -11 -5 0 -10 -7 -10 -15
0 -8 5 -15 10 -15 6 0 10 -7 10 -15 0 -8 4 -15 9 -15 5 0 12 -8 16 -19 3 -10
14 -29 25 -42 31 -38 34 -42 49 -71 8 -16 18 -28 23 -28 4 0 8 -7 8 -15 0 -8
5 -15 10 -15 6 0 10 -7 10 -15 0 -8 5 -15 10 -15 6 0 10 -5 10 -10 0 -6 11
-22 25 -36 14 -14 25 -29 25 -34 0 -5 10 -19 22 -32 13 -13 41 -46 63 -73 21
-28 47 -57 57 -66 10 -9 18 -21 18 -27 0 -6 26 -37 58 -69 31 -32 79 -85 106
-117 61 -72 184 -195 261 -261 32 -27 82 -74 112 -102 29 -29 56 -53 61 -53 4
0 17 -8 28 -18 10 -9 42 -35 69 -57 28 -22 57 -48 66 -57 9 -10 22 -18 29 -18
6 0 24 -12 38 -28 15 -15 39 -33 55 -41 15 -8 27 -18 27 -23 0 -4 7 -8 15 -8
8 0 15 -4 15 -8 0 -4 22 -21 50 -37 27 -17 50 -33 50 -36 0 -4 14 -12 30 -19
17 -7 30 -16 30 -21 0 -5 6 -9 13 -9 7 0 23 -9 35 -20 12 -11 28 -20 37 -20 8
0 15 -4 15 -10 0 -5 7 -10 15 -10 8 0 15 -4 15 -10 0 -5 9 -10 19 -10 11 0 21
-4 23 -9 2 -5 10 -11 18 -13 8 -2 22 -11 31 -20 9 -10 21 -18 26 -18 14 0 63
-24 63 -31 0 -3 20 -14 45 -25 25 -10 45 -22 45 -26 0 -4 9 -8 20 -8 11 0 20
-4 20 -10 0 -5 9 -10 20 -10 11 0 20 -4 20 -10 0 -5 9 -10 20 -10 11 0 20 -4
20 -10 0 -5 9 -10 20 -10 11 0 20 -4 20 -10 0 -5 11 -10 25 -10 14 0 25 -4 25
-10 0 -5 9 -10 20 -10 11 0 20 -4 20 -8 0 -5 23 -15 50 -22 28 -7 50 -17 50
-22 0 -4 6 -8 14 -8 7 0 42 -13 77 -29 35 -15 100 -40 144 -55 44 -15 88 -31
97 -36 10 -6 29 -10 43 -10 14 0 25 -4 25 -10 0 -5 16 -10 35 -10 19 0 35 -4
35 -10 0 -5 16 -10 35 -10 19 0 35 -4 35 -10 0 -5 16 -10 35 -10 19 0 35 -4
35 -10 0 -5 18 -10 39 -10 22 0 43 -4 46 -10 3 -5 19 -10 36 -10 16 0 37 -4
47 -9 36 -20 395 -83 587 -103 147 -16 885 -16 1015 0 218 26 434 63 550 92
25 6 62 14 83 17 20 3 40 9 43 14 3 5 23 9 44 9 21 0 42 5 45 10 3 6 19 10 36
10 16 0 29 5 29 10 0 6 14 10 30 10 17 0 30 5 30 13 0 8 4 7 10 -3 6 -10 10
-11 10 -2 0 7 13 12 30 12 17 0 30 5 30 10 0 6 13 10 29 10 17 0 33 5 36 10 3
6 17 10 30 10 13 0 27 5 30 10 3 5 15 10 25 10 10 0 20 3 22 8 2 4 30 16 63
26 33 10 78 27 99 37 22 11 46 19 53 19 7 0 13 5 13 10 0 6 9 10 20 10 11 0
20 5 20 10 0 6 14 10 30 10 17 0 30 5 30 10 0 6 9 10 20 10 11 0 20 5 20 10 0
6 11 10 25 10 14 0 25 5 25 10 0 6 9 10 20 10 11 0 20 5 20 10 0 6 9 10 20 10
11 0 20 5 20 10 0 6 9 10 20 10 11 0 20 5 20 10 0 6 9 10 20 10 11 0 20 3 20
8 0 4 20 16 45 27 25 11 45 23 45 28 0 4 9 7 20 7 11 0 20 5 20 10 0 6 7 10
15 10 9 0 25 9 37 20 12 11 28 20 35 20 7 0 13 5 13 10 0 6 9 10 20 10 11 0
20 5 20 10 0 6 7 10 15 10 8 0 15 5 15 10 0 6 8 10 18 10 10 0 24 9 32 20 8
11 22 20 32 20 10 0 18 4 18 9 0 5 8 12 19 16 10 3 29 14 42 25 38 31 42 34
72 49 15 8 27 18 27 23 0 4 6 8 13 8 7 0 19 9 27 20 8 11 20 20 28 20 7 0 24
11 38 25 14 14 29 25 34 25 5 0 19 10 32 23 13 12 41 35 63 51 22 17 47 37 55
46 8 9 31 27 50 40 19 14 53 43 76 65 23 22 61 56 84 75 56 45 265 255 299
300 14 19 49 58 76 86 28 28 77 87 110 129 33 43 75 93 93 111 17 18 32 39 32
45 0 6 8 19 18 28 9 9 23 28 31 44 8 15 18 27 23 27 4 0 8 7 8 15 0 8 4 15 8
15 5 0 14 11 20 25 7 14 17 31 22 38 39 46 50 62 55 78 4 11 11 19 16 19 5 0
9 7 9 15 0 8 5 15 10 15 6 0 10 7 10 15 0 8 -4 15 -10 15 -5 0 -10 7 -10 15 0
8 -4 15 -9 15 -5 0 -13 9 -16 20 -3 11 -12 26 -18 32 -7 7 -25 33 -42 58 -16
25 -32 47 -35 50 -3 3 -11 17 -19 33 -8 15 -18 27 -23 27 -4 0 -8 6 -8 13 0 7
-9 19 -20 27 -11 8 -20 20 -20 28 0 7 -15 28 -32 47 -18 19 -38 40 -43 47 -87
113 -127 160 -165 198 -25 25 -57 62 -72 82 -35 47 -268 279 -316 316 -20 15
-63 53 -95 85 -32 31 -63 57 -69 57 -6 0 -18 8 -27 18 -9 10 -34 31 -56 48
-22 16 -50 39 -63 52 -13 12 -27 22 -32 22 -5 0 -20 11 -34 25 -14 14 -30 25
-36 25 -5 0 -10 5 -10 10 0 6 -7 10 -15 10 -8 0 -15 5 -15 10 0 6 -7 10 -15
10 -8 0 -15 5 -15 10 0 6 -7 10 -15 10 -8 0 -15 5 -15 10 0 6 -6 10 -14 10 -8
0 -16 3 -18 8 -1 4 -23 20 -48 37 -25 16 -47 32 -50 35 -10 10 -65 41 -82 47
-10 3 -18 9 -18 14 0 5 -7 9 -15 9 -8 0 -15 5 -15 10 0 6 -9 10 -20 10 -11 0
-20 5 -20 10 0 6 -8 10 -18 10 -10 0 -24 9 -32 20 -8 11 -22 20 -31 20 -10 0
-19 3 -21 8 -1 4 -39 25 -83 47 -44 22 -81 43 -83 48 -2 4 -12 7 -23 7 -10 0
-19 5 -19 10 0 6 -9 10 -20 10 -11 0 -20 5 -20 10 0 6 -9 10 -20 10 -11 0 -20
5 -20 10 0 6 -11 10 -25 10 -14 0 -25 5 -25 10 0 6 -9 10 -20 10 -11 0 -20 5
-20 10 0 6 -9 10 -19 10 -11 0 -23 5 -26 10 -3 6 -17 10 -31 10 -13 0 -24 5
-24 10 0 6 -9 10 -20 10 -11 0 -20 5 -20 10 0 6 -9 10 -20 10 -11 0 -28 4 -38
9 -18 10 -125 51 -182 71 -19 7 -44 15 -55 20 -45 17 -92 30 -108 30 -9 0 -17
5 -17 10 0 6 -18 10 -40 10 -22 0 -40 5 -40 10 0 6 -13 10 -30 10 -16 0 -30 5
-30 10 0 6 -20 10 -45 10 -25 0 -45 5 -45 10 0 6 -18 10 -40 10 -22 0 -40 5
-40 10 0 6 -16 10 -35 10 -19 0 -44 4 -57 9 -37 15 -282 56 -493 82 -121 16
-486 25 -716 18z m596 -588 c55 -5 135 -13 178 -16 42 -4 80 -12 83 -16 3 -5
29 -9 59 -9 30 0 57 -4 60 -10 3 -5 31 -10 61 -10 30 0 54 -4 54 -10 0 -5 18
-10 39 -10 22 0 43 -4 46 -10 3 -5 24 -10 46 -10 21 0 39 -4 39 -10 0 -5 11
-10 25 -10 13 0 34 -4 47 -9 13 -5 43 -14 68 -21 106 -29 277 -88 322 -111 10
-5 27 -9 38 -9 11 0 20 -4 20 -10 0 -5 9 -10 20 -10 11 0 20 -4 20 -10 0 -5
14 -10 30 -10 17 0 30 -4 30 -10 0 -5 9 -10 20 -10 11 0 20 -4 20 -10 0 -5 9
-10 19 -10 11 0 23 -4 26 -10 3 -5 15 -10 26 -10 10 0 19 -4 19 -10 0 -5 9
-10 20 -10 11 0 20 -4 20 -10 0 -5 7 -10 15 -10 9 0 32 -10 53 -23 20 -12 60
-34 87 -47 28 -14 52 -28 53 -32 2 -5 12 -8 23 -8 10 0 19 -4 19 -10 0 -5 8
-10 18 -10 10 0 24 -9 32 -20 8 -11 22 -20 32 -20 10 0 18 -4 18 -10 0 -5 9
-10 20 -10 11 0 20 -4 20 -10 0 -5 7 -10 15 -10 8 0 15 -4 15 -9 0 -5 14 -14
30 -21 17 -7 30 -16 30 -21 0 -4 8 -10 19 -14 10 -3 29 -14 42 -25 38 -31 42
-34 72 -49 15 -8 27 -18 27 -23 0 -4 7 -8 15 -8 8 0 15 -4 15 -10 0 -5 7 -10
15 -10 8 0 15 -4 15 -10 0 -5 5 -10 10 -10 6 0 26 -15 44 -32 18 -18 43 -40
55 -48 13 -8 33 -23 44 -33 12 -10 37 -31 56 -45 19 -15 64 -56 102 -92 37
-36 104 -100 149 -142 45 -43 79 -78 76 -78 -3 0 26 -33 66 -73 40 -41 87 -91
103 -112 17 -22 45 -54 63 -72 17 -18 32 -37 32 -43 0 -5 5 -10 10 -10 6 0 10
-6 10 -13 0 -7 9 -19 20 -27 21 -15 28 -50 10 -50 -5 0 -10 -6 -10 -13 0 -7
-9 -19 -20 -27 -11 -8 -20 -19 -20 -24 0 -5 -7 -16 -15 -25 -30 -31 -87 -97
-118 -135 -34 -42 -370 -380 -403 -406 -21 -16 -70 -55 -122 -98 -18 -15 -49
-42 -69 -60 -20 -17 -42 -32 -48 -32 -6 0 -17 -9 -25 -20 -8 -11 -20 -20 -27
-20 -7 0 -13 -4 -13 -10 0 -5 -7 -10 -15 -10 -8 0 -15 -4 -15 -10 0 -5 -5 -10
-10 -10 -6 0 -18 -6 -26 -12 -8 -7 -20 -18 -27 -23 -7 -6 -34 -25 -62 -42 -27
-18 -55 -37 -62 -43 -7 -5 -17 -10 -23 -10 -5 0 -10 -4 -10 -10 0 -5 -9 -10
-20 -10 -11 0 -20 -4 -20 -10 0 -5 -9 -10 -21 -10 -11 0 -17 -4 -14 -10 3 -5
-1 -10 -9 -10 -9 0 -16 -4 -16 -10 0 -5 -9 -10 -20 -10 -11 0 -20 -3 -20 -7 0
-5 -10 -13 -23 -19 -12 -7 -79 -41 -150 -78 -70 -36 -134 -66 -142 -66 -8 0
-15 -4 -15 -10 0 -5 -9 -10 -20 -10 -11 0 -20 -4 -20 -10 0 -5 -11 -10 -25
-10 -14 0 -25 -4 -25 -10 0 -5 -9 -10 -20 -10 -11 0 -20 -4 -20 -10 0 -5 -13
-10 -30 -10 -16 0 -30 -4 -30 -10 0 -5 -9 -10 -20 -10 -11 0 -20 -4 -20 -10 0
-5 -8 -10 -18 -10 -10 0 -36 -9 -58 -19 -22 -11 -56 -22 -77 -26 -20 -4 -37
-11 -37 -16 0 -5 -3 -8 -7 -7 -5 1 -38 -8 -75 -20 -37 -12 -76 -22 -87 -22
-11 0 -23 -4 -26 -10 -3 -6 -22 -10 -41 -10 -19 0 -34 -4 -34 -10 0 -5 -16
-10 -35 -10 -19 0 -35 -4 -35 -10 0 -5 -18 -10 -40 -10 -22 0 -40 -4 -40 -10
0 -5 -22 -10 -50 -10 -27 0 -50 -4 -50 -10 0 -5 -24 -10 -53 -10 -29 0 -57 -4
-63 -9 -5 -5 -34 -11 -64 -14 -30 -3 -66 -7 -80 -10 -60 -13 -241 -28 -440
-37 -170 -7 -258 -6 -420 7 -113 8 -240 18 -282 20 -43 2 -78 8 -78 12 0 4
-26 9 -57 10 -32 1 -62 6 -67 12 -6 5 -29 9 -53 9 -24 0 -43 5 -43 10 0 6 -22
10 -50 10 -27 0 -50 5 -50 10 0 6 -20 10 -44 10 -25 0 -48 5 -51 10 -3 6 -16
10 -27 10 -23 0 -81 17 -110 31 -10 5 -26 9 -35 9 -31 1 -280 88 -345 121 -10
5 -25 9 -33 9 -8 0 -15 5 -15 10 0 6 -13 10 -30 10 -16 0 -30 5 -30 10 0 6 -9
10 -20 10 -11 0 -20 5 -20 10 0 6 -11 10 -25 10 -14 0 -25 5 -25 10 0 6 -6 10
-13 10 -23 0 -348 167 -355 183 -2 4 -12 7 -23 7 -10 0 -19 5 -19 10 0 6 -6
10 -13 10 -7 0 -23 9 -35 20 -12 11 -28 20 -37 20 -8 0 -15 5 -15 10 0 6 -7
10 -15 10 -8 0 -15 4 -15 8 0 5 -12 15 -27 23 -29 14 -43 24 -68 47 -8 7 -15
11 -15 7 0 -5 -12 3 -45 33 -7 6 -18 12 -24 12 -6 0 -11 5 -11 10 0 6 -6 10
-13 10 -7 0 -19 9 -27 20 -8 11 -20 20 -27 20 -7 0 -13 5 -13 10 0 6 -7 10
-15 10 -8 0 -15 5 -15 10 0 6 -5 10 -10 10 -6 0 -22 10 -35 23 -13 12 -40 36
-61 52 -66 54 -119 100 -122 108 -2 4 -8 7 -13 7 -11 0 -349 335 -349 345 0 3
-15 21 -32 39 -44 44 -99 109 -118 137 -8 12 -25 32 -37 45 -13 13 -23 28 -23
34 0 5 -4 10 -10 10 -16 0 -12 24 8 46 10 10 29 35 42 54 26 37 43 57 97 115
18 19 33 37 33 40 0 14 391 405 405 405 3 0 20 15 39 33 35 35 81 73 117 97
12 8 32 25 45 38 13 12 28 22 34 22 5 0 10 5 10 10 0 6 7 10 15 10 8 0 15 5
15 10 0 6 5 10 10 10 6 0 24 14 42 30 17 17 37 30 44 30 7 0 14 3 16 8 4 11
206 142 218 142 6 0 10 5 10 10 0 6 8 10 18 10 10 0 24 9 32 20 8 11 22 20 32
20 10 0 18 5 18 10 0 6 9 10 19 10 11 0 21 3 23 8 6 13 214 122 234 122 8 0
14 5 14 10 0 6 9 10 19 10 11 0 23 5 26 10 3 6 15 10 26 10 10 0 19 5 19 10 0
6 9 10 20 10 11 0 20 5 20 10 0 6 14 10 30 10 17 0 30 5 30 10 0 6 7 10 15 10
8 0 24 5 35 10 11 6 29 15 40 20 11 6 29 10 39 10 11 0 23 5 26 10 3 6 14 10
24 10 9 0 35 9 57 19 21 10 68 26 104 36 36 9 74 20 85 25 47 18 93 30 113 30
12 0 22 5 22 10 0 6 20 10 45 10 25 0 45 5 45 10 0 6 23 10 50 10 28 0 50 5
50 10 0 6 20 10 45 10 25 0 45 4 45 9 0 5 26 12 58 15 31 4 93 10 137 15 44 6
133 14 199 20 65 6 121 13 125 16 8 9 543 -3 666 -14z"/>
<path d="M4030 5420 c0 -5 -20 -10 -45 -10 -25 0 -45 -4 -45 -10 0 -5 -13 -10
-29 -10 -17 0 -33 -4 -36 -10 -3 -5 -19 -10 -35 -10 -16 0 -32 -4 -35 -10 -3
-5 -15 -10 -26 -10 -10 0 -19 -4 -19 -10 0 -5 -6 -10 -14 -10 -17 0 -140 -68
-166 -92 -10 -10 -23 -18 -28 -18 -5 0 -23 -13 -40 -30 -18 -16 -34 -30 -37
-30 -7 0 -155 -148 -155 -155 0 -3 -9 -15 -20 -27 -11 -12 -20 -28 -20 -35 0
-7 -4 -13 -9 -13 -5 0 -14 -13 -21 -30 -7 -16 -16 -30 -20 -30 -10 0 -100
-196 -100 -219 0 -11 -4 -23 -10 -26 -5 -3 -10 -19 -10 -35 0 -16 -4 -32 -10
-35 -5 -3 -10 -24 -10 -46 0 -21 -4 -39 -10 -39 -6 0 -10 -68 -10 -185 0 -117
4 -185 10 -185 6 0 10 -20 10 -45 0 -25 5 -45 10 -45 6 0 10 -13 10 -30 0 -16
5 -30 10 -30 6 0 10 -11 10 -25 0 -27 88 -225 100 -225 4 0 13 -13 20 -30 7
-16 16 -30 21 -30 5 0 9 -6 9 -13 0 -7 9 -23 20 -35 11 -12 20 -24 20 -27 0
-7 148 -155 156 -155 3 0 18 -13 34 -30 15 -16 33 -30 41 -32 7 -2 22 -11 34
-21 27 -25 104 -67 121 -67 8 0 14 -4 14 -10 0 -5 9 -10 20 -10 11 0 20 -4 20
-10 0 -5 9 -10 20 -10 11 0 20 -4 20 -10 0 -5 15 -10 34 -10 19 0 38 -4 41
-10 3 -5 19 -10 36 -10 16 0 29 -4 29 -10 0 -5 19 -10 43 -10 24 0 48 -5 53
-10 7 -7 69 -9 180 -6 188 5 274 13 274 27 0 5 16 9 36 9 21 0 33 4 29 10 -4
6 7 10 24 10 17 0 31 4 31 8 0 4 12 9 28 10 15 1 29 7 30 12 2 6 10 10 17 10
13 0 125 57 135 69 3 4 24 19 48 34 23 15 52 35 63 45 38 31 159 151 159 158
0 3 14 19 30 34 17 15 30 32 30 37 0 5 8 18 18 29 22 24 92 154 92 171 0 7 4
13 8 13 4 0 13 21 20 48 8 26 18 55 23 64 5 10 9 29 9 43 0 14 5 25 10 25 6 0
10 25 10 55 0 30 5 55 10 55 6 0 10 62 10 165 0 103 -4 165 -10 165 -5 0 -10
25 -10 55 0 30 -4 55 -10 55 -5 0 -10 11 -10 25 0 14 -4 33 -9 43 -5 9 -15 38
-23 65 -7 26 -16 47 -20 47 -4 0 -8 6 -8 13 0 18 -65 138 -89 164 -12 12 -21
27 -21 34 0 6 -13 24 -30 39 -16 15 -30 31 -30 34 0 8 -127 136 -135 136 -3 0
-19 14 -37 30 -17 17 -35 30 -40 30 -5 0 -16 6 -23 13 -31 27 -42 34 -98 65
-32 18 -65 32 -73 32 -8 0 -14 5 -14 10 0 6 -9 10 -20 10 -11 0 -20 4 -20 8 0
4 -17 9 -37 10 -21 2 -39 7 -41 12 -2 6 -17 10 -33 10 -16 0 -29 5 -29 10 0 6
-25 10 -55 10 -30 0 -55 5 -55 10 0 6 -65 10 -175 10 -110 0 -175 -4 -175 -10z"/>
</g>
</svg>
