<svg xmlns="http://www.w3.org/2000/svg" height="35px" width="35px" viewBox="0 0 513.64 513.64"  fill="#d62b1f" xmlns:v="https://vecta.io/nano"><path d="M200.236 93.3a163.013 163.013 0 0 1 183.4 20.359h-19.484a24 24 0 0 0 0 48h73.4a24 24 0 0 0 24-24v-73.4a24 24 0 0 0-48 0v11.82a211.072 211.072 0 0 0-236.026-25.061 24 24 0 1 0 22.7 42.293zM198.9 379.83a163.01 163.01 0 0 1-84.04-157.115 165.511 165.511 0 0 1 2.388-17.027l10.252 17.748a24 24 0 1 0 41.568-24L132.36 135.86a24 24 0 0 0-32.784-8.785L36 163.78a24 24 0 0 0 24 41.569l9.522-5.5q-1.635 9.235-2.477 18.68a211.021 211.021 0 0 0 108.791 203.394A24 24 0 1 0 198.9 379.83zM464 211.806h-.116A24 24 0 0 0 440 235.92a165.59 165.59 0 0 1-.63 15.186 162.927 162.927 0 0 1-108.2 139.468l9.75-16.887a24 24 0 0 0-41.569-24l-36.717 63.592a24 24 0 0 0 8.794 32.769l63.576 36.7a24 24 0 0 0 24-41.569l-10.264-5.926a210.9 210.9 0 0 0 138.447-179.96 213.73 213.73 0 0 0 .813-19.6 24 24 0 0 0-24-23.887z"/></svg>