<svg xmlns="http://www.w3.org/2000/svg"   viewBox="0 0 248.89 109.31"><defs><style>.cls-1{fill:#d62b1f}.cls-2{fill:#d62b1f}</style></defs><g id="Layer_2" data-name="Layer 2"><g id="Layer_1-2" data-name="Layer 1"><path class="cls-1" d="M212 31.19a3.68 3.68 0 011.38 0c-.14.6-.68.57-.35 1.33a5.08 5.08 0 01-.63-.25c-.14-.33.31-.26.24-.54-.29-.47-1.1-.57-1.64-.86-.18.05-.4.16-.63.23v5.49h.89c.16-.46.86-.43 1.33-.14v.14h3v4a2.54 2.54 0 01.34-.08.48.48 0 01-.34.37v3.67l.07-.07c.48 0 .13.52.12.66.31.31.62-.09.9.07.09.28-.05.39-.44.33-.51.75 0 1.34 0 2a5.06 5.06 0 012.13-.53c0 .27-.18.35-.1.66-.52-.21-.72.1-.67.5a2.25 2.25 0 00-1.11.27 7.26 7.26 0 00-.31 1.9.75.75 0 01-.61-.52v15.36c.19 0 .42 0 .44-.09.36.09.4.8-.25.71.08.31.46.39.4.8a1.34 1.34 0 01-.59.21v1.5h.05c.06.17.27.22.25.44a.72.72 0 00-.31 0v.53a.28.28 0 00.19-.3c.33.07.46.55.14.89a1.1 1.1 0 01-.33 0v5.35h.19c0 .16-.15.18-.12.36h-.07v3.13h4.28a.16.16 0 01.15 0h2.53v-42h5.2v-5.95h-2.65a.94.94 0 01-1 0h-12.28c.12.11.13.32.21.43zm5 21.45a4.65 4.65 0 01-1.08.13c-.14-.54.67-1 1.68-.77a.45.45 0 01-.18.43c.21.14-.12.4-.36.21zm-1.22-1.85c.34.25.88.34.92.81-.15-.09-.23-.07-.23.09a4.15 4.15 0 01-.68-.16c.21-.34-.23-.53.05-.75zm.27 9.42c0-.08-.14-.06-.23-.07-.11-.38.37-.34.67-.42.11.28-.03.46-.39.48zm.32 10.79c-.19-.08-.25-.26-.22-.5h.33a.28.28 0 01-.11.5zm1.43-17.65c-.1.32-.85.08-.88-.17.46-.09.48.16.88.15zm0 18.39c-.51 0-.9-.11-.88-.52.63-.08 1.08.28.92.5zm-.44-14.51c-.25-.12 0-.55.09-.74.48 0 .46.27.58.49-.13.09-.47.09-.62.22zm.14-5.46a.25.25 0 00-.23-.24c.51-.16.41-.59.9-.6 0-.26-.42-.23-.46-.49.52 0 .71.2 1.14.24v.83c-.61-.08-.79.2-1.31.24zm2.31-3.34c-.49 0-.75-.21-.8-.56.47.02 1.09.24.84.53zm.27 2.47c0-.27-.17-.71.32-.66.01.25.21.69-.28.64zm1.7-12.72c-.12.33-.41.53-.49.89a1.16 1.16 0 01-.63-.07c.14-.49.65-.67 1.16-.84zm-1-6.3c0 .33-.45.27-.75.37-.24-.38.34-.57.81-.4zm-1.36 9.27c.18.21.44.14.75.07-.82.35-1 1.14-1.22 1.89a1.12 1.12 0 01-.63-.08c-.14-.33.3-.25.24-.53a11.9 11.9 0 01-1.26-.61c.32-.42.13-.53-.14-.89.56-.21.55-.5.36-1a1.38 1.38 0 011.96 1.13zm-1.64-8.33c-.61.15-.6-.43-.38-.62.6-.09.42.3.44.59zm-1.15-1.23c.54-.06.88 0 .77.44-.57.02-.96-.14-.71-.47zm-.11 8.36a3.48 3.48 0 00.63.26c-.15.19-.76.04-.57-.29zm-.1 1.93c.18 0 .19.07.34.07.07.52-.33.7-.78.84-.26-.45.48-.53.5-.94zm-4-7.55c-.14-.28 0-.2 0-.54.37 0 .82-.05 1 .08.04.34-.34.45-.95.42z"/><path class="cls-1" d="M216.24 48.38a1 1 0 00-.58-.12v.6a1.54 1.54 0 00.58-.48zM202.16 48.76a.18.18 0 000-.05 4.47 4.47 0 00-.42.55c-.5 0-.43-.39-.47-.71V51h3.85a.53.53 0 01.26-.1.87.87 0 01.55-.07.38.38 0 010 .17h.59c0-.14.14-.19.24-.27s.15.18.24.27h1v-3.42l-.76-.14a.67.67 0 01.15-.82 2.72 2.72 0 01-1-.1.61.61 0 00-.18.26h-.29a.61.61 0 010 .77 1.76 1.76 0 01-1.35-.76 4.63 4.63 0 00-.49 0 2.38 2.38 0 00.91.56c-.1.66-.65.68-.75 1.39h.2l-.21.09c0 .16.4 0 .57.06 0 .26.23.35 0 .59-.47-.18-.6-.61-1.37-.56a.87.87 0 010-.13 2 2 0 00-1.27-.03zm4.29 1.45c-.1.19-.3.31-.75.28-.02-.3.51-.49.75-.28z"/><path class="cls-1" d="M203.14 78.83a5.52 5.52 0 003-1.39 5.66 5.66 0 001.48-3.06c.1-.49.17-1.06.23-1.67-.36-.11-.46-.84-.09-1l.16.06c.05-.82.09-1.73.09-2.74v-.87a.5.5 0 01-.48.14c-.12-.4.28-.46.36-.72a.34.34 0 01.12 0v-3.2a1 1 0 01-.55-.12c0-.22 0-.43.12-.53s.26.07.43.08V58h-.43a1.16 1.16 0 01-1.61.23.52.52 0 010-.23h-.87a.64.64 0 01-.58.32 1.61 1.61 0 01-1.35.44 1 1 0 01.31-.44.92.92 0 00-.12-.32h-2v11.06a17.81 17.81 0 01-.09 2 2.34 2.34 0 01-.42 1.18 1.65 1.65 0 01-.91.58 6 6 0 01-1.48.15 6.31 6.31 0 01-1.54-.15 1.64 1.64 0 01-.91-.58 2.32 2.32 0 01-.42-1.18 17.81 17.81 0 01-.09-2v-6.22c-.17 0-.32 0-.29-.19a.52.52 0 01.29-.05V53a1.88 1.88 0 00-.19.37c.12.29.2.63-.24.61a.42.42 0 000-.14 1.11 1.11 0 01-.71.37.57.57 0 00.46.57c-1.34.53-1.12-1.44-.25-1.73.09-.26-.37-.11-.46-.24a1.73 1.73 0 01.55-.74c.29.25.36.65.82.77v-3.63h-.14a.41.41 0 01.14-.43V47a1.62 1.62 0 01-.57-.24c0-.28.28-.3.57-.34V45.1a.84.84 0 01-.5-.78.92.92 0 01.5-.09v-3.42h-.1a.88.88 0 01.1-.14v-.47-1h-.07a.15.15 0 01.08-.12c0-.28 0-.54.06-.76a2.33 2.33 0 01.42-1.18 1.65 1.65 0 01.91-.58 6.36 6.36 0 011.54-.15 6 6 0 011.48.15 2 2 0 01.3.13 8.64 8.64 0 01.93-.15c-.14.14-.36.28-.5.42a1.57 1.57 0 01.18.15 2.16 2.16 0 01.42 1.15 17.15 17.15 0 01.09 2v3.08c.56.09 1 .28 1 .85-.22.11-.46-.05-.79.09a1.17 1.17 0 00-.16-.35v.86a1.33 1.33 0 01.58.21c.17.39-.59.38-.25.63 0 .1.22.09.38.09l.24-.11c0-.1-.24-.25-.11-.42a1.06 1.06 0 011-.08l.17-.1a3.29 3.29 0 00.9.22c.48 0 .39-.37.67-.49 0-.22-.44-.11-.46-.33s.5-.56.89-.34c-.53.59-.19 1.09.47 1.4-.14.29-.46.44-.53.77l.32.25a1.13 1.13 0 00.29 0h-.06c.25-.21.21-.62.5-.81h.06a1.16 1.16 0 00-.25-.8c.05-.19.56 0 .79-.09a1.55 1.55 0 01.32-1c.63.09.4.57.13.83a.79.79 0 00.69.09v-3.2a1.58 1.58 0 00-.3-.11c0-.06.14-.1.3-.1v-1.1-.11c-.23 0-.52 0-.43-.18a.43.43 0 01.42 0c0-1.19-.06-2.24-.14-3.16a1.69 1.69 0 00.05 1.12c-.67 0-1.1-.47-.89-.79a1.75 1.75 0 01-1.66-1.48c.61.06.56-.32 1.13-.28-.23.25-.2.28-.12.62s.61.15.89.25c.31-.17-.44-.33-.39-.61.27-.11.51-.25.8-.35v-.28a8.13 8.13 0 00-.24-.94v.22c-.51-.06-.42.3-1 .2a1.18 1.18 0 01-.14-.72c.4.1.29 0 .75 0 0-.23-.49-.12-.51-.35s.26-.34.24-.63h.08a4.4 4.4 0 00-.64-.83 5.19 5.19 0 00-2.33-1.24 6.44 6.44 0 00-1.17.06c.08-.18 0-.22-.11-.31-.73-.1-1.55-.17-2.47-.21-.14.17-.5.17-.81.21v-.23h-.86a29.89 29.89 0 00-4.9.33 5.75 5.75 0 00-3.05 1.39 5.55 5.55 0 00-1.47 2.8 1.59 1.59 0 00.45.14 2.07 2.07 0 01-.5 0v.07a26.24 26.24 0 00-.42 5.26v7.66a.4.4 0 00.22 0 .53.53 0 00-.22.19v1.14c-.08.42.42.41.46.74-.17-.06-.32-.13-.47-.2V57.19c.24.17.65.22.81.46-.44.36-.63.76-.11 1.16l-.7-.33V64a1.64 1.64 0 01.66 0 6.57 6.57 0 01-.66.22V69a28.65 28.65 0 00.39 5.32 5.66 5.66 0 001.48 3.06 5.57 5.57 0 003 1.39 30.83 30.83 0 005 .33 28.3 28.3 0 004.61-.27zm4-15.92h-1c0-.47-.77-.33-.77-.78.63-.13 1.21.56 1.79.77zm-3.42-2c.42 0 .15.48-.25.45-.3-.21.1-.36.27-.45zm-1.09 2.86c-.62 0-.55-.56-1-.7.37-.18 1.53.24 1.02.7zm-.93-3.28c.5.12.63.5.65 1a3.26 3.26 0 01-.89-.08c.54-.41.16-.51.26-.92zm.93-17.86c-.46-.08-.12-.5-.14-.74.18 0 .2.07.34.08-.08.19-.04.5-.18.67zm.32 2.11v-.44c.55 0 .82.18.89.52-.3.18-.47-.09-.84-.07zm-.26-8.26c-.14-.2.3-.59-.51-.35.08-.84 1.69-.32 2.26 0-.27.3-1.5-.02-1.73.36zm4 3.76h.31c.43.56-.22.89-.74 1.08-.26-.39.2-.75.41-1.07zm-.88-.34a.49.49 0 01.38.44 1.22 1.22 0 01-.63-.08c-.12-.26.23-.18.22-.36zm-.24.78c.53.07.59.51.57 1h.1a1.09 1.09 0 01.61.14.6.6 0 01-.18.2c.28.4.3 1 .74 1.26-.56-.06-.9-.13-.78.42-.19 0-.29-.13-.34 0a2 2 0 00.09-.6.79.79 0 00-.26.31c-.38 0-.48-.18-.76-.25a.12.12 0 010-.12.36.36 0 00-.22.09c-.2.18-.12.57-.54.58-.19-.37.09-.27.11-.66a.68.68 0 00.43.08.39.39 0 00-.21-.17.78.78 0 01-.22 0v-.08a.14.14 0 00-.16.07c-.16-.12.23-.4.47-.55a.48.48 0 000-.34c.58-.12.56.19.76.34.38-.17-.21-.38-.14-.62a1.14 1.14 0 01.21-.1 2 2 0 00-.57-.49 2.71 2.71 0 00.26-.5zm-.43 1.41c-.41.07-.43-.16-.79-.15 0-.22.28-.29.56-.34.09.18.25.23.2.5zm-1.6-10.61c.38-.11-.19-.33.12-.45.74-.09.84.28 1.13.52 0 .22-.46.22-.62.1.08.8-1 .75-1.36 1.26-.37 0-.58-.18-.64-.43.12 0 .09-.12.12-.19.55 0 .91-.07 1-.36-.08-.08-.36-.13-.13-.18-.1-.2-.48.13-.5.28-.19-.37-1.07-.23-1-.78a2.26 2.26 0 011.86.24zm-1.66 6.43c.46 0 .58.45.39.62-.38.07-.25-.24-.63-.17-.04-.22.17-.27.22-.44zm-.61-6.75c-.42 0-.89 0-.88.28-.11 0-.23-.08-.26-.18v-.16c.44.13 1.03-.36 1.12.07zm-.34 2.31c.07.46-1.11.23-1-.16.37.11.51.38.97.18zm-2.85 2.09a1 1 0 011-.37c-.01.36-.59.63-1.02.39zm-1-1.94c.77 0 1 .37 1.39.6-.06.49-.83.48-.74 1.07-.37 0-.46-.2-.63-.34 0-.32.65-.2.49-.63 0-.12-.32-.07-.5-.08.04-.3-.3-.45-.09-.6zM194 48.39c-.23 0 0-.37-.34-.33 0-.13.33-.08.22-.31a.54.54 0 01-.1.16c-.3 0-.6-.05-.51-.35a1.07 1.07 0 01.63-.1.56.56 0 010 .27c.36 0 .32.31.33.58-.18-.02-.23.01-.23.08zm-1-1.15a.6.6 0 00-.34-.08 1.86 1.86 0 011.89-1.35c-.08.43-1.61.57-1.55 1.43zm-1.1-11.57c.27.07.49.36.26.53a.89.89 0 01-.63-.43c.18 0 .35.01.37-.1zm-3.32 4.22c.35-.87 1.72-1 2.11-1.9 1 .24.44 1.41 2 1.4-.22.66 1.09.76.92 1.67-.7-.46-1.41.36-2.14-.06-.62.9.74 1.14 1.52 1.31a1.59 1.59 0 011.77-.11c0 .24-.59.22-.76.1.13.26.13.27 0 .54-1-.06-1.5 0-2.63 0-.19.13-.2.39-.24.62-.65.09-.56-.37-.89-.52.1-.22.13-.5.37-.63-.73-.12-.41-1.15-1.28-1.4 0-.23.24-.31.37-.44-.55-.04-.48-.81-1.12-.58zm4.68 1.8a.39.39 0 01-.63-.25c.31 0 .64.01.63.25zM191 46.8c-.48 0-.56-.26-.38-.54.21.1.68.27.38.54zm-1.52-1.14c0-.25.53-.16.87-.19.08.36-.72.32-.92.19zm-1 3.22c.32-.21 1-.1.76.35-.47.03-.74-.07-.77-.36zm.24 6.84c-.23-.57.89-.54 1.12-.29-.27.27-.14.32-.11.71-.28-.19-.34-.53-1.02-.42zm1.08-7.43c.08-.07.62-.2.68 0s-.85.26-.69-.01zm.59 9.9c-.64-.07-1.06-.58-.77-1.06a1.06 1.06 0 01.63.08c-.39.47.29.72.13.97zm.33-8.26c.09-.19.63 0 .9-.09a.61.61 0 01-.55.58c-.32-.11-.24-.42-.36-.5zm.28 13.93c.06-.25.6-.18.87-.28a.64.64 0 01-.87.28zm.63-14.28c-.24-.18-.29-.51-.46-.74-.3 0-.66 0-.67.17-.55-.32.9-.72 1-.34.24-.33-.16-.45-.47-.63-.09 0-.15 0-.16.1-.17 0-.11-.22-.13-.34a3.05 3.05 0 01-1 .1.61.61 0 000-.1c-.3-.08-.66-.13-.62-.47a1.15 1.15 0 00.6 0 .89.89 0 00-.51-.69c.17-.25.56.06.75.08a.64.64 0 000 .5 1.44 1.44 0 01.68-.19c.22.48.55.59 1.25.81a2.71 2.71 0 00.35 1.08h.22a.34.34 0 010 .54.57.57 0 00-.18.22 1.28 1.28 0 00-.67-.1zm.62 6.45c-.09-.28-.09-.18 0-.45.39 0 .45.16.88.08 0 .24.22.44.51.7-.41.18-.64-.54-1.41-.36zm1.39-7.13c-.2 0-.23.11-.44.08-.18-.23-.35-.55 0-.74.21.14.51.24.42.65zm.12 14.75a.46.46 0 010-.54h.38c-.26.11.25.55-.4.53zM177.49 41.29a5 5 0 01-.68.39 2.43 2.43 0 001.29.25v-3.19a2.34 2.34 0 01-1 .18c-.28-.18.1-.29-.14-.44a1.5 1.5 0 01-.75-.08 3.46 3.46 0 001.3 2.6.51.51 0 01.24 0c0 .07 0 .14-.06.19a.44.44 0 01-.2.1z"/><path class="cls-1" d="M171.14 46.93a1.81 1.81 0 00.34-.91c.23-.05.53-.05.63-.19.36.44-.11 1.19-.35 1.69a1.75 1.75 0 01-.62-.12V59a.2.2 0 01.05.17h-.05v1.27c.32-.34 1.07.08.73.49-.46 0-.53-.2-.73-.35v.64a.89.89 0 01.28.13c-.09.2-.33.3-.21.66h-.07v16.54h13.67v-6h-6.71v-10c-.58-.18-1.17-.35-1.71-.55.53-.22 1 .18 1.71.18v-12a2.7 2.7 0 01-.52 0c-.07-.31-.63-.26-.76-.52.11-.22.71.08 1.29.09v-.34c-.23-.07-.54-.21-.54-.39a.37.37 0 01.54.08V49h2.33a1.69 1.69 0 00.39-.25 7.11 7.11 0 001.08.25h2.68v-5.5h-4.71l-.12.12c-.2 0-.3 0-.35-.12h-1.31v-1.09c-1 .09-1.83.71-2.66.27 0-.22.19-.34.12-.63s-.55 0-.63-.17c.16-.48-.35-.46-.4-.79.47-.21.39.17 1 .07a.6.6 0 00.37-.27c-.4-.6-.56-1.39-1.28-1.75 0-.23.17-.35.49-.37.05-.28-.32-.25-.5-.35.17-.42.81 0 1-.37-.19-.23-1.06-.06-.51-.53-.66-.13-.38.38-1 .28.1-.31-.19-.34-.13-.62a4.27 4.27 0 012.5 0c.1.83 1.22.9 1.61 1.51v-2.18h6.65v-3.19c-.26-.08-.43-.3 0-.48v-2.1h-13.59zm10.39-.53c-.08.27-.49.31-1 .28-.13-.57.74-.68 1-.28zm-1.22 2.15c-.37 0-.71 0-.64-.34.33.05.65.06.64.34zm-2.83-4.31c-.36.46-.95-.18-1.14-.42.55.01.76.27 1.14.41zm-1.14 7.05c.6-.11.45.33.76.43-.22.27-.39 0-.88.1-.1-.28.21-.27.12-.54zm-.25 7.82c0 .23-.47.23-.63.1.01-.21.47-.21.63-.11zm5.75-24.17a1.39 1.39 0 011.38.07 3.17 3.17 0 01-1.37.64c.06-.41-.17-.45 0-.72zm-3.77-.83c.26 0 .33.06.5.08-.07.18-.2.34-.62.28a.4.4 0 00.12-.37zm-6.7 24.46c.17-.13.64-.13.57.16-.21-.04-.67.11-.56-.17zm1.06 2.88c-.32 0-.61 0-.56-.24.22-.21.69-.11.57.23zm-.36-2.45c.45-.06.39.26.38.52-.13-.19-.65-.33-.38-.52zm-.31 3a1.73 1.73 0 01.79-.1c.05.1-.77.4-.78.04zm.78 3.61c-.39 0-.34-.23-.63-.26.14-.25.8-.09.64.21zm1.11-16.82c.31 0 .39.14.63.17-.08.28-.67.04-.62-.22zm-.15-1.95c.1-.29.09-.64.74-.55.09.36-.24.47-.74.5zm1 17.67c.18 0 .32.12.51.17 0 .45-.25.77-1 .73.16-.41.5-.56.53-.94zm-.61-29.95c.14 0 .22 0 .25-.09.47.06.09.43 0 .62-.27-.09-.2-.33-.2-.57zm-1.08 3.39c.2 0 .48 0 .5-.1a6.49 6.49 0 011.2 1.15 2.42 2.42 0 00-.36.72h-.75c-.09-.36-.46-.51-.76-.7.22-.43.36-.61.22-1.11zm.52 9.06c-.3-.12-1-.26-.63-.61.25.18.46.2.68.6zm-1 .81c.49-.06.52.22.88.25.19.87-1.08.79-1.5.39.19-.32.81-.23.68-.68zM151.2 77.71a6.7 6.7 0 00-3.51-1.49 4.59 4.59 0 00.83 1.21 4.34 4.34 0 001.19.86 1.8 1.8 0 00.38-.16c-.09-.46-.58-.6-1-.71-.25 0-.52 0-.56-.31A1 1 0 01149 77a2.6 2.6 0 01.35-.11l.12.11h.14a.21.21 0 010 .1 1.66 1.66 0 001.59.61zM161.09 77.91c-.18.12-.44.17-.56.33.31.28.87-.24.56-.33zM151.44 78.45a2.69 2.69 0 00-.51.27l.43.11h.29a.39.39 0 01-.21-.38z"/><path class="cls-1" d="M165.76 32.78v-2h-7v.52c.19 0 .43 0 .46.08s-.28.25-.46.15v12.25a.37.37 0 01.4 0c.07.22-.18.29-.4.26v18.21a.3.3 0 01.09-.14c1.38-.12.86.48 1.14.87a3.82 3.82 0 01-1.13-.07 1.65 1.65 0 01-.1-.28v6.15a.83.83 0 01.3 0 .45.45 0 01.13.41.9.9 0 01-.43 0 6.27 6.27 0 01-.51 3.09q-.51.76-2.33.76a2.78 2.78 0 01-2.3-.73 6.08 6.08 0 01-.54-3.21V58h-6.38v11.06a28.56 28.56 0 00.39 5.32 7.77 7.77 0 00.51 1.66.42.42 0 01.3.14c.33 0 .14-.39.33-.5s.35.12.57.16a2.32 2.32 0 00.65-1.34c0-.2-.42-.12-.57-.23 0-.47-.34-.63-.35-1.07a1.37 1.37 0 00.68.07c.18.29-.26.68.46.65.23-.09.24-.32.21-.58s-.37-.25-.68-.16c.23-.19-.2-.34-.35-.49.19-.07 1.06-.09 1.68-.27-.41.49.42 1.36-.31 1.58a3.54 3.54 0 001.48.8c.11.27-.37.13-.45.26.1.2.42.24.57.4-.51.5.16 1 .7 1.23.41 0 .28-.34.78-.26-.29.59.12.76.58 1a.38.38 0 00-.1.33c-.32 0-.78-.06-.79.18a4.83 4.83 0 01.63 1.16c.72 0 1.51.07 2.38.07 1 0 2 0 2.82-.09a2.56 2.56 0 01-1.46-.62c.25-.08 1 0 1.13-.34-.48-.34.05-.71.55-.85v.34c.71.07.53-.49 1.34-.35-.13.13-.36.33-.1.5.28 0 .34-.13.56-.17 0-.15-.13-.17-.11-.33.59.18.62-.17.88-.42.27 0 .26.15.56.08.28.19-.27.22-.1.58a5.46 5.46 0 011.8-.19v-.41c-.58.14-.76-.12-1.47 0 .37-.78 1.18-.26 2 0a6.53 6.53 0 001-2.47 28.73 28.73 0 00.39-5.32zM158.87 35v-.35c.41-.06.64 0 .76.17s-.42.18-.76.18zm-11.1 40.11c0-.24.19-.36.56-.35a.34.34 0 01-.55.36zm1.65-2.76c-.33-.16 0-.55.44-.42-.07.21-.37.24-.44.43zm2.39-8.54c-.3.06-.58.14-.63-.16.18-.13.71-.13.63.17zm-.5 8.58a.58.58 0 00-.19.1c.13-.38-.53-.58-.25-1h.33c.2.19.09.6.69.49a.64.64 0 01-.23.22l.4.14c.01.25-.65.28-.75.07zm1.54 3.13a.34.34 0 00-.24-.17c0-.16.31-.11.23-.33.33 0 .38.15.56.23-.07.19-.29.25-.54.29zm.41-1.91a.59.59 0 000-.91c.51.12.85-.26 1 .31-.36.19-.26.69-.99.62zm.62 3.38c-.08-.38.51-.29.67-.5-.06-.13-.36-.07-.24-.33.57.27.24.4.35.82-.25.02-.56.19-.77.02zm.7 1.23a.59.59 0 01.89-.52c-.11.3-.47.46-.88.54zm.53-1.42c.36-.08.36.12.58.15-.08.21-.69.05-.57-.13zm1.26-2.4c.26-.2.56 0 .76.08-.03.31-.81.24-.75-.05zm1.57 3.35c-.4-.05 0-.4-.11-.74h.55c-.1.29-.05.67-.43.76zm4.53-7.45a.91.91 0 01-1 .28c.06-.25.69-.43 1.01-.25zm-1.58-27.5c.35 0 .68 0 .63.26-.24.18-.77.1-.63-.26zm.44 21.76c.54.17-.09.64-.5.37.11-.16.46-.16.49-.37zm-2.16 3.23a1.19 1.19 0 01.37-.63c.24.17.31 0 .63 0a.13.13 0 00.13.18c-.3.19-.49.48-1.13.45zm1.23 7.28a1.11 1.11 0 01.6-.07v.35c-.32 0-.65 0-.6-.28zm.68-5.09a3.15 3.15 0 00-1.51-.33c0-.22.2-.27.25-.45.53.21 1 0 1-.36.45 0 .6-.15 1 0 .07.12-.14.46.13.43a.91.91 0 00-.86.73zm.15 1.78c0-.4.65-.32.75-.63.14.13.52.1.51.35-.68-.1-.65.62-1.25.29zm2.28-37c-.4.08-.39-.13-.63-.17 0-.44.77-.45.75 0-.11 0-.09.11-.11.18zm.58 5.06a6.66 6.66 0 011.13-.29c.24.36-.14.7-.49.9.92.42-.12 1.29-1 1 .32-.72-.21-1.27.37-1.61zm0 29.33c.2 0 .48-.05.5.07.12.32-.78.26-.52-.06zm.7-1.49c.3 0 .65 0 .8.07-.1.35-.85.33-.82-.06zM132.32 31a.88.88 0 01-.69-.2h-.9v4.42a.58.58 0 01.16.25h-.16v.83c.45.44 1.1.86.45 1.26 0-.19-.21-.36-.45-.52v2h.25c.09.21.18.42.68.32.06.26-.06.38-.11.58-.5-.21-.77.11-.66.59a.85.85 0 00-.17.05V42a.61.61 0 01.89.31 3.32 3.32 0 01-.89.36v4.76c.1-.2.14-.44.6-.4a3.69 3.69 0 002.77 0c-.08-.25-.5-.24-.76-.35 0-.17.26-.22.24-.46a4.66 4.66 0 00-1.52-.86 1.21 1.21 0 011-.54c.1.88 1.35.93 2 1.38 0 .35-.51.3-.74.46-.14.47.27.53-.24.89-.44.08-.54-.09-.76-.17-.57.26-1.85 1.22-.48 1.52-.38.2-.48 0-1 0s-.5.48-.62.81a.72.72 0 01-.52-.11v2.19a2 2 0 01.55-.13c-.11.14-.1.35-.5.29-.09.3.46.14.51.34s-.21.42-.56.45v1.6a1.4 1.4 0 01.72.08c-.06.25-.47.2-.72.1v16.95c.61.2.51.85.58 1.25a1.23 1.23 0 01-.58-.31v6.15h2.7a.57.57 0 01.46 0h6.19a1 1 0 00-.33-.06c0-.35.25-.53.73-.55-.28.2 0 .35 0 .6h3.91v-.36l-.26-.11a1 1 0 010-.26v-.17a10.05 10.05 0 00.16-1.47h.1v-3.11a4.44 4.44 0 01-.94 0c0-.36.6-.1.79-.1.08-.21 0-.29-.13-.37h-6.44v-1.71a6.81 6.81 0 00-2.12.69c-.1-.7 1-1 2.12-.69v-3.34h-.16c0-.21 0-.39.11-.5h.05V55.69a.6.6 0 01-.44.18c0-.16.15-.19.13-.36h.32v-1.73h-.1a.32.32 0 01.1-.14V49h3l-.12-.09a.9.9 0 00.31.09h.17a10.34 10.34 0 001-.28c-.12-.31-.24-.6-.77-.61.26-.58-.35-1.24.36-1.43-.17.55-.14 1.16.65 1.24a1.43 1.43 0 01.07 1.08h1.82v-1.5a.41.41 0 01-.27 0c.09-.27-.14-.32-.14-.53l.41-.15V46a.35.35 0 01-.43-.1c0-.17.22-.21.43-.25v-2.19h-2.47c0 .52-.61.37-1.25.35.19-.25.41-.29.77-.35h-1.13a.32.32 0 00.11.27c-.35 0-.33-.15-.32-.27h-2.18v-4a.62.62 0 00-.45.16c-.18-.31.06-.61.45-.8v-2a1.37 1.37 0 00-.37-.08c-.06-.52-.62-.68-.89-1a5 5 0 011.63.8h5.3c-.16-.12-.28-.31-.14-.37.3 0 .31.23.44.37h.7v-5.78H132.4a.56.56 0 01-.08.24zm.17 18.23c.46 0 .47.52.26.7h-.62c-.13-.45.3-.47.36-.74zm-1.31 11.93c.11 0 .22-.08.24-.18a.6.6 0 01.26.53c-.32-.06-.48-.16-.5-.39zm1.18.1c.07-.25.17-.49.55-.51a.44.44 0 01.12.41c-.27-.04-.33.11-.67.06zm1-7.78c-.7-.21-.93-.76-1.77-.86.63 0 1.07-.56 1.51-.2-.46.58.36.7.21 1.02zm10.3 24.42h-.8c.04-.22.92-.35.8 0zm-1.55-.42c-.36 0-.69 0-.63-.26.24-.22.77-.1.63.26zm-4.2-.07c-.36 0-.55-.15-.57-.41.26.09.6.1.57.42zm5.56-32.48c0 .29-.14.43-.49.45a.34.34 0 00-.26-.18c.15-.2.43-.48.75-.27zm-1-1a.68.68 0 01.52.53 3.23 3.23 0 00-1 .11v-.44c.25.04.43 0 .45-.13zm-.1 1.43a.43.43 0 01.26.7 1.48 1.48 0 01-.76-.07c-.14-.37.47-.28.48-.6zM138.43 36h.63c0 .12 0 .25.13.26-.19.24-.97.14-.76-.26zm4.52 0c-.46 0-.8-.14-.88-.43.85.1.79-.65 1.63-.29-.06.59-.92.21-.75.72zm.1-2a5.72 5.72 0 011.27 1c-.07.16-.59 0-.62.19-.38-.31-1.13-.86-.7-1.19zm-.87.9c-.36 0-.58-.18-.63-.43.45-.2 1.16.16.63.44zm-2.44-3.35c-.23.12-.46 0-1 .1-.08-.65.85-.44 1-.09zm.16 2.22c-.68.26-1.39.14-1.51-.42.61.1 1.42-.01 1.51.44zm-.24.8c.09.27.09.17 0 .44a4.86 4.86 0 01-1.5.12c-.07-.56.84-.77 1.5-.54zM131 33.38c.39 0 .38.27.39.53-.48.09-.39-.25-.39-.53zm.29 2c0-.44.77-.45.75 0-.49.05-.38.14-.78.05zm1.68 10.91c-.7.82-1.38-.42-2.15-.42v-.54c1.38-.13.63 1.27 2.13 1.01zm-1.44-3.45a3.76 3.76 0 01.88.08c-.04.36-1.07.49-.9-.03zm.73-1.7a1.17 1.17 0 01.62-.1.14.14 0 00.13.18c-.01.31-.91.32-.77-.03zm.85-1.79a1.61 1.61 0 01-1.52-.33c0-1.02 2.12-.46 1.5.38zm-.29-2.22c.55.12-.09.31-.25.45-.43-.1.12-.32.23-.4zm1.46 4.68c-.24-.17-.47 0-.75 0-.11-.17.11-.76.74-.72.02.39.17.49-.01.78zm-.81-3.72c0-.12.21-.14.24-.27.18.07.41.12.38.35a1.1 1.1 0 01-.64-.02zm1.14.87a.43.43 0 010-.62c.57 0 .63.26.64.61zm0-2.22c.39 0 .49.12.76.17-.08.34-.87.19-.82-.11zM136 51.35c-.06-.14-.4-.07-.26-.35.39 0 .44-.17.88-.1 0 .43.39.55.38 1a3.42 3.42 0 01-2.14-.42c.73-.01.71.05 1.14-.13zm.44-4c-.22.12-1 .3-1.13.19.48-.17.43-.7.87-.9s.19.49.3.71zm-2 6.52c.69.27.69 0 1.63.06-.42.57-1.61.16-2.26.48-.03-.35.75-.14.65-.54zm0 17.73c.42-.18.63 0 1 .07 0 .15-.13.17-.11.33-.42 0-.86-.06-.89-.4zm.28 3.38c.14-.28.15-.66.78-.59.03.4-.33.54-.79.61zm.64-19.7c.88.11 1 .73 1.52 1.13-.88-.18-1.64-.29-1.53-1.13zm1.38.07c-.5-.06-.64-.39-1-.52-.35.34-.61.35-1.38.28 0-.13 0-.25-.12-.26.46-.4 1.32 0 2-.21.3 0 .59-.56.12-.62.26 0 .62-.21 1-.1.33.49-.26.63.14 1.06-.3.1-.43.3-.76.37zm1.26-8.92a1 1 0 01-.63-.08c0-.1.55-.31.63-.09zm0 .73c.4 0 .59.11.57.4-.42.03-.57-.1-.57-.39zm1.48-1.46c.39 0 .35-.24.49-.37.48.07.94.15 1 .52-.2.36-.89.39-1 .82-.56-.11-.3-.8-.89-.88-.4 0-.45.16-.88.1.11-.39.36-.55.12-1-.39.24-.84-.11-1.26.11.12.43-.2.56-.61.63-.29-.37.1-.65.23-1 .7.09.69-.29 1.38-.2.22.53 1.21.49 1.64.87.11.28-.24.22-.23.41zm-1-2.13c.06.53-.84.42-1.12.73-.4-.18-1-.72-.4-1.05.47.11.68.44 1.46.33zm-1.06-3.28c.1.26-.17.24-.12.45-.56.14-1-.28-.76-.43a1.08 1.08 0 01.83-.01zm.09-2.3c-.13 0-.1.11-.13.18-.51 0-.79-.08-.76-.44.23-.16.86-.05.84.27zm-.74 1.07c-.51 0-.79-.08-.76-.43.36-.24.85.03.71.45zm-1.07-3.8c-.47-.1-.92-.23-.88-.7.52.02 1.18.29.83.71zm-.79-2.3c-.23.31-.36.69-.61 1a1.09 1.09 0 01-.63-.61c-.37 0-.88.27-1-.07.51-.45 1.53-.86 2.19-.28zM132 31.6c.78-.05 1-.12 1.5.15-.41-.07-1.13.25-1.5-.15zM125.68 37.91a.39.39 0 000 .09v-.09zM108 31.49c-.37.14-.27-.39-.5-.44-.06.61-.51.72-.63 1.28h.14c0 .27-.06.34-.08.51-.17-.09-.07-.38-.27-.13 0 .25.24.25.36.37 0 .32-.12.49-.35.51-.25-.36-.18-.82-.28-1.15H106a.45.45 0 01.17-.36c.05-.29.33-.27.53-.37a.38.38 0 01.05.2.55.55 0 00.22-.16c0-.23.1-.74-.09-.79.2-.17.39 0 .6-.19h-1.62v2.09h-.05v3.84c.64.37.6-.69 1.08-.43 0 .77-.64.61-1.08.75V44c.28.08.38.4.41.85a.39.39 0 01-.41-.23v3a.63.63 0 01.44 0c.48-.38.26-1.71.87-1.9-.1.79.21 1 .29 1.5-.18.25-.76-.06-.61.64-.11-.38-.23 0-.36-.25-.22.25-.43.5-.63.78v16.33a.64.64 0 01.7.12c.07.32-.11.3-.08.57.17.54.66 0 .76.66.25-.29.15-1 .39-1.35a3 3 0 00-.58-.55c.17-.34.62-.21.82-.24 0 .3-.11.83.25.66-.12.75.24.82.27 1.34-.17 0-.21.08-.33.12a2.38 2.38 0 01.27 1.24c-.1.15-.39.08-.49.23s.39.06.33.44-.32.31-.57.35c0-1.3-1.06-1.15-1.32-2.12-.06-.05-.11-.14-.18-.19a.41.41 0 00-.25.26v1.54a5.24 5.24 0 011.33.52c0 .58-.76.53-1 .24-.32.11-.07.57-.07.9a.38.38 0 01-.27-.24v9.33h2.36c-.51-.64-.75-2-.25-2.47 0-.42-.17-.61-.42-.67 0-.24.06-.36.24-.34.41.34.5 1.21 1.25.77.05.21.24.8.1.9.2.36.69.33.68 1 .35 0 .36-.48.82-.35a1.42 1.42 0 000 1.16h2.15v-5.5a1.65 1.65 0 010-1v-.57c-.11-.06-.25.05-.45.06 0-.49-.52-.34-.43-1-.46-.12-.28.59-.65.58-.2-.67.28-1.2.13-1.92a1.63 1.63 0 01.52 1.34c.12-.15.65-.23.67.11.07-.15.14-.27.22-.41v-13a.18.18 0 01-.23.13v-.62c.12 0 .2.08.24.21V55H116q1.81 0 2.3.76a5.35 5.35 0 01.48 2.69v20.1h7v-2.43a.71.71 0 01-.49.11c-.17-.16.06-.61.49-.63v-3.86c-.09-.08-.07-.21 0-.34v-9.54a1.88 1.88 0 00-.35-.12c0-.13.18-.2.35-.19V59.5a14.52 14.52 0 00-.3-3.27 6 6 0 00-.88-2.09 3.7 3.7 0 00-1.36-1.21c-.18-.09-.38-.17-.58-.25.06.12.23.22.24.38-.49-.29-.31.43-1 .28a.45.45 0 01-.13-.44c.6 0 .49-.2.57-.35a7.2 7.2 0 00-.86-.26v-.24a9.28 9.28 0 001.48-.51 3.54 3.54 0 00.68-.4 5 5 0 01-.78-.29c.12-.27.42 0 .5.07s.27-.11.49-.09a1.92 1.92 0 00-1.39-.87c-.55.07-.51.53-1.25.46 0-.15-.09-.23-.25-.26.28-.25.86-.28.86-.72a4.69 4.69 0 001.52.51c.33 0 .41-.13.37-.37.49 0 .5.36.76.53.06.26-.31.23-.25.49l.12-.11a4.62 4.62 0 00.62-.92c-.24-.44-1.18-.39-1.64-.69.2-.21.74-.2 1-.37.1-.55-.61-.51-1-.7.09-.13-.27-.41 0-.61-.08-.31-.76-.17-.64-.61.43-.07.53.16.75 0 0-.15-.1-.23-.25-.26.33-.29.81.06 1 .16-.2.22-.69.23-.62.63 0 .12.31.07.5.08a.39.39 0 00.24-.45c.44.07.53-.17.76 0-.09.19-.59.12-.62.36.25.48.48.85 1.14.77a9.25 9.25 0 00.13-.93c-.25-.38-.63-.65-.91-1 .2-.3.34.21.38.35.68-.44.19-1.76-1-1.77 0-.12 0-.25-.14-.26 0-.32.93-.36 1.26-.2-.23.43.06.7.51.85v-3.08a.18.18 0 010 .06c-.44 0-.73-.06-.63-.43a.73.73 0 01.68.25V40.5v-.7a1.51 1.51 0 00-.82-.1c.16-.32-.62-.56-.39-.89.46 0 .48.12.87 0-.2-.79-.38-.88-.15-1.68-.71-.08-.71.33-1 .55s-.37-.15-.75-.08c.14-.4 1-.3 1.11-.72-.51-.34-.87-.65-.77-1.23a1.56 1.56 0 001.4-.62c0-.12-.06-.24-.1-.36-.39-.23-1.25-.07-1.57-.18.16-.32 1-.2 1.37-.33a5.61 5.61 0 00-.25-.53c-.42-.13-.92-.19-1-.56a2.2 2.2 0 00.75.13 4.43 4.43 0 00-.58-.69 4.68 4.68 0 00-.95-.67.87.87 0 01-.4-.22 7 7 0 00-1.71-.51 30.72 30.72 0 00-5-.33h-3.95a9.3 9.3 0 01.11 1.73c-.29-.24-.72-1.56-.16-1.73h-1a.89.89 0 01-.34.63 2.83 2.83 0 00.09-.63h-3c-.05.3.33.22.33.71zM107 49a1 1 0 01.1.5c-.19.3-.35 0-.62 0 .18-.06.24-.39.52-.5zm-.74 14.71V63a3.93 3.93 0 01.93.9c-.36-.03-.7-.08-.98-.18zm5.89 12a2.08 2.08 0 01-.15 1.13h-.42c-.13-.07 0-.53-.17-.56.24-.12.26-.48.69-.6zm12.73-.71c-.29.06-.59.15-.64-.17.19-.15.76-.15.64.17zm-2.49 3.4a2.85 2.85 0 00-.46-.82c.19-.08.27-.24.67-.17-.3.41.23.82-.22.98zm.55-14.57c-.09.31-1.18.19-1.26-.07.32-.19.89-.01 1.26.06zm-11.33 1.74a1.32 1.32 0 01.07-.68c0 .5.56.29.51.88-.25.01-.39-.13-.58-.22zm1 2.79c-.14.26 0 .87-.23 1-.62-.36-.47-1.64.27-1.01zm1.14-14c-.22 0-.19.23-.44.13-.11-.41.26-.78 0-1 .13-.2.62.18.48.81zm.4-2.77c0-.47.06-.73.34-.76a.47.47 0 01-.3.71zm1.35.73c-.08-.49.28-.7.43-.51v.39c-.2-.2-.19.11-.39.07zm0-2.38c.44 0 .48.51.56 1-.19.16-.5-.46-.48-1.06zm4.22-.86c-.16-.12-.61 0-.76-.17.14-.36 1.04-.31.85.09zm.51.08c.1.34-.14.44-.5.45 0-.16-.16-.18-.13-.35a1.18 1.18 0 01.71-.16zm-1.17 5.35c.24-.18.59 0 .88 0-.08.28.22.26.14.54-.44-.12-.98-.15-.94-.6zm.68 19c-.08-.25.11-.3.11-.5.35 0 .4.21.46.41a1 1 0 01-.48.05zm.86-9v-.35c.39-.08.38.13.62.17.07.15-.22.15-.53.14zm.92-12.9c0 .38-1 .12-.89-.17.49-.05.86-.05.98.13zm-.83-4.79c-.07-.35.58 0 .76.08.55.03-.61.01-.67-.12zm1.9.59c-.2.11-.89 0-.77-.34.44-.15.89-.07.85.3zm1.88-7.67c-.08.27.14.32.14.53-.71.05-1-.15-1.38.11 0-.21.82-.45 0-.44.31-.32.65-.15 1.32-.24zm-1.43-3.27c-.31-.07-.56-.19-.51-.52.6-.12.82.29.59.48zm-.86 1.09a6.75 6.75 0 001.26.33c-.07.28-.46.33-.87.37-.01-.26-.49-.26-.31-.74zm.81 3.54c-.5 0-.76-.18-.76-.53.22 0 .75.1.75-.09.26.14.1.32.09.59zm-2-8.15c-.16.15-.26.35-.63.36v-.62a3.81 3.81 0 01.7.23zm.68 11c-.28.7 1.12.19 1 .78.31-.22 1.18-.27 1.13.25a3.83 3.83 0 01-2.39-.67c-.13 0-.25.38-.38.09-.32 0 .18.14 0 .35-.49-.07-.72.21-1 0 .18-.58 1.05-.63 1.71-.82zm-2 2.5c.67.15-.14.75-.49.46-.01-.35.56-.22.58-.47zm-2.82-11.86h.63c.26.3-.75.41-.54-.01zm-2.43-3.13c.19 0 0 .44.1.62-.4 0-.58-.34-.89-.49.15-.88.64.12.88-.14zm-1.35 4.41a1.23 1.23 0 01.17.94h.76a3.33 3.33 0 00.1-1.34c.3 0 .31.4.63.37 0 .45 0 .87-.26 1h1.28a6.7 6.7 0 011.57.15 1.53 1.53 0 01.91.58 2.44 2.44 0 01.39 1.12 14.86 14.86 0 01.09 1.84v.71c.25 0 .34-.15.56 0a1 1 0 01-.56.46V45a.57.57 0 01.5.53.48.48 0 01-.5 0v.9a4 4 0 01-.54 2.42 2.84 2.84 0 01-2.24.67h-3.15V41.58a1.23 1.23 0 01-.2-.18V41a.74.74 0 00.21 0v-3.24a.5.5 0 01-.26.12 1.47 1.47 0 01-.1-.76 1.53 1.53 0 00.73-1.26zm-.5 14.19c.33.2.7.34.73 1a.35.35 0 00-.18.26 2.57 2.57 0 01-.89-.61c.22-.21.23-.55.43-.65zm-.82-1.25c.15 0 .19.15.35.12.13.58-.19.57-.34.76-.1-.08 0-.77.08-.88zm-.25 1.64a1.16 1.16 0 01-.09-.63c.45-.13.59.74.18.63zm-5.18 21.26c0-.35-.07-.82.07-1 .41.11.68.42.68 1.11-.17-.03-.51.08-.65-.11zm.37 2.93c.09-.43 0-.66.07-.91.35.01.39 1.04.03.91zm4.47-5.48c-.07.16-.55-.07-.51-.44.35-.03.35.38.61.44zm-.35-1.34a.44.44 0 01-.41.12v-.79c.47-.15.6.19.5.66zm-.14-31.41c0 .35-.15.54-.44.51a1.44 1.44 0 01-.1-.75c.38-.08.45.16.64.23zM110.31 67c-.19.06-.42.23-.58 0 0-.16.12-.28.16-.45.2.1.43.13.42.45zm-.15-35.14c-.07.39-.15.78-.43.89-.11-.22.04-.93.43-.86zm-.43 1c0 .36 0 .68-.26.63-.17-.19-.1-.72.26-.58zm-.25 18.33c.19.05.08.66 0 .76-.32-.06-.07-.48 0-.71zm.25 11.17c0 .33-.28.71-.53.39-.05-.41.26-.34.53-.35zm-.34 9.26c.18-.28.33-.59.83-.46a2.16 2.16 0 00.26 1c-.24-.06-.5-.42-.67-.21-.18 0 0 .47-.07.68-.62.1-.25-1.18-.93-1a9 9 0 00-.31 1.81c.3-.55 1.06.16 1.15-.7.22.28.4.59.6.89-.1.39-.39.53-.65.69-.16-.25-.31-.48-.67-.44-.29.21-.07 1.09-.48 1.14-.2 0-.18-.21-.41-.1.06-1-.65-.86-.93-1.34-.06-.3.16-.22.16-.45.29-.1.35.2.49 0a.74.74 0 00-.43-1.12 10.75 10.75 0 00.39-1.48c.63.38 1.52-.03 1.67 1.13zm-.73-27.44c.16.11.48 0 .45.37-.22 0-.28-.23-.35.13-.21.01-.21-.29-.1-.46zm0 4.77v.75c-.25-.06-.39-.7-.02-.7zm-.57-2.62c.23 0 .18.42.19.74-.28-.13-.28-.23-.21-.7z"/><path class="cls-1" d="M125.47 37.23a.49.49 0 01.15 0v-.35a2.26 2.26 0 01-.32.1.33.33 0 00.17.25zM125.46 36c0-.13 0-.26-.06-.38a1.47 1.47 0 00-.53.29.52.52 0 00.59.09zM106.08 65.65a2.27 2.27 0 00-.21-.77v1c.04-.05.01-.28.21-.23zM110 78.55h.17a1.43 1.43 0 00-.09-.15.65.65 0 01-.08.15zM125.18 39.34c0 .19.31.16.57.17v-.63h-.19c-.15.12-.37.24-.38.46z"/><path class="cls-2" d="M43.5 48.57h-.31c.17.08.26.07.31 0zM30.71 54.34a.24.24 0 00.15-.09.65.65 0 01-.17-.14c.01.08.01.15.02.23zM22.13 52.89l-.26.22a4.69 4.69 0 000 .49 1 1 0 00.22-.24c.04-.16.05-.36.04-.47zM21.87 51.76a.6.6 0 01.33-.13c0-.38.06-.76.12-1.12a.67.67 0 01-.59-.21 2.71 2.71 0 01-.1 1 .61.61 0 00.26.18c-.01.07-.01.18-.02.28zM30.81 52.2a2.5 2.5 0 00.16-.51c0 .14-.11.27-.14.4s0 .07 0 .11z"/><path class="cls-2" d="M91.47 76.41V43.07a.69.69 0 01-.6.31c.19-.52.46-.68.6-1.06v-4c-.17-.26-.37-.49-.51-.73.2-.29.33 0 .51.07v-1.27a.3.3 0 01-.35-.17.41.41 0 01.35-.31v-1.45l-.47-.75a1.82 1.82 0 01.47-.91 15.11 15.11 0 00-.86-4.92c-.1.06-.19.08-.32-.19-.69.52-.24 2.22-.85 3a3.69 3.69 0 01.38 1.37c-.19.08-.25.32-.53.27 0-1-.56-1.06-.48-2.14a.72.72 0 01-.8 0c-.06-.39.12-.49.16-.75a.78.78 0 001.15-.44c0-.56-.42-.42-.63-.62.19-.22.25-.7-.1-.75a1.93 1.93 0 00.34-1.13c.35-.07.55-.33.91-.38a15.18 15.18 0 00-10-7.92c-.15.06-.43-.06-.35.31a2.5 2.5 0 00-.11-.43 15.23 15.23 0 00-3.06-.31h-5a1.3 1.3 0 00.19.36c0 .39-.26.54-.34.87s.46.19.46.62c-1 0-1.32-1-1-1.86h-1.39c0 .51-.55.15-.79.26v-.28h-1c0 .29-.07.6-.08.92a1.19 1.19 0 01-.36-.92h-8.4a1.91 1.91 0 01.4 1.16c-.18.11-.28.29-.57.24 0-.27.14-.25.07-.57-.26.14-.21.68-.4.91-.51-.12-.46-1-1-1.1-.07-.31.16-.24.16-.45a.46.46 0 00.49 0 .42.42 0 00.09-.17h-2.49c.29.23.47.63.75.87 0 .25-.35.05-.49.12 0-.35-.13-.43-.18-.68-.1.15-.13.05-.25 0-.15.29-.05.89-.49.8-.22-.51.41-.6.47-1.12H32.78a15.34 15.34 0 00-1.57.08 1 1 0 01.19.63h-.34v-.6l-.6.09c-.23.42-.56 1.16-1 .88a2.72 2.72 0 01.7-.83 15.18 15.18 0 00-11.87 10.39l.27-.41c.66.12.56 1.29 1.5 1 0 .66.43.69.52 1.23s-.26.46-.32.79.55.35.25.78c-.31-.14-.18-.4-.42-.78-.93 0-1-1.2-1.51-1.78-.4-.11-.34.41-.62.46a15.21 15.21 0 00-.35 3.21v5.57l.57.18a1.12 1.12 0 01-.08.63c-.3.13-.27-.23-.49-.23v2a1.82 1.82 0 01.25.53.28.28 0 01-.25.07V47a1.47 1.47 0 01.12.5.77.77 0 00.55.17.57.57 0 00.15-.45c.39.07.56-.14.91-.13 0 .59 0 1.21.52 1a2.3 2.3 0 00-.15.8c-.7-.25-.62.5-1.15.47 0-.56.61-.45.73-.91 0-.36-.29-.44-.42-.67-.23 0-.14.47-.15.8a2.36 2.36 0 01-1.1.19v2a1.43 1.43 0 00.79-.51c-.06.56-.13.9.42.78 0 .19-.13.29 0 .34a2 2 0 00-.6-.09.79.79 0 00.31.26c0 .38-.18.48-.25.76a.12.12 0 01-.12 0 .36.36 0 00.09.22c.18.2.57.12.58.54-.37.19-.27-.09-.66-.11a.68.68 0 00.08-.43.39.39 0 00-.17.21.78.78 0 010 .22h-.08a.14.14 0 00.07.16c-.11.15-.35-.17-.51-.41V55a.41.41 0 01.12.06.28.28 0 01-.12.22V59a2.36 2.36 0 01.87-.52 2.09 2.09 0 01-.85 2.28v2.81a.52.52 0 01.33.07c-.06 1 0 1.5 0 2.63.13.19.39.2.62.24.09.65-.37.56-.52.89a3.11 3.11 0 01-.46-.2V76.76c.49.19.66.84 1.05 1.17 0 .34-.12.41-.35.39.07-.8-.36-.88-.68-1.11a15.1 15.1 0 003.45 8.87c0-.21-.05-.44-.17-.53.44-.36 1.19.11 1.69.35 0 .55-.15.52-.16.88a3.39 3.39 0 00-1.25-.58 15.13 15.13 0 0011.57 5.37H76.3a15.17 15.17 0 0015.17-15.16zM91 38.1c.07.38-.08.46-.07.75-.24-.18-.55.13-.54-.61.25-.14.26.03.61-.14zm-72.88-6.84c0-.33.47-.27.58-.13a.76.76 0 00-.08.34c-.29.1-.35-.11-.5-.21zm.43 1.86a2 2 0 01.07-.88c.38-.05.38 1.09-.08.89zM82 80.68c-.22-.1-.23-.83.16-.75.12.46-.16.36-.16.75zm-.13-8.53c-.23 0-.13.47-.26.63h-.44c-.34-.42-.14-1.74.33-1.39 0-.2-.28-.1-.18-.5.77-.09.72 1 1 1.62-.24.03-.47.02-.44-.36zm.55-4.66a1.08 1.08 0 01-.08.63c-.25-.01-.24-.74.09-.63zm.72 11.63v.06h-.16l-.19.08a.36.36 0 010-.09.43.43 0 01-.41-.35.37.37 0 01.6-.15c.19-.32.48-.5.76-.31a1.25 1.25 0 01-.59.76zm-.34-4.73c.4-.23.47.68.28.87-.28-.01-.24-.49-.27-.87zm1.2-.53c-.24-.21 0-.74.34-.62.12.47-.29.28-.34.62zm.39 2.76c0 .55 0 1-.43.88.04-.55.18-.79.48-.87zm-.34 6.91c-.26-.76.06-1.68.68-1.65-.2.52-.08 1.55-.63 1.65zM84.71 71c.29 0 .23.95-.08.88-.2-.31 0-.66.08-.88zm.11 13.43c0-.41.1-.61.35-.63-.05.27-.06.61-.35.6zm1 1.62c.17-.61-.11-.6-.37-.87 0-.49.34-.52.71-.52a4.33 4.33 0 01.19.76c-.4-.13-.17.64-.52.58zm1.12-6.67h-.82c-.07-.66-.17-1.12.23-1.37.18.05 0 .61.17.68.26-.14.32-.52.74-.46 0 .31.16.46.18.78-.25.28-.44-.42-.5.34zm-1.67-30c.28 0 .31.32.37.62-.23.57-.64-.15-.37-.63zm-.13-2.63h.45c.07.47-.33.27-.35.62-.24-.2-.14-.37-.1-.63zm-.07-10.3a1.8 1.8 0 01.33-1.77c.77.94.14 3.14 1 3.88-.63.51-2.53-.99-1.32-2.12zm-.47 8.38c-.85.42-1.14-.92-1.51-1.55.25-.28.45.29.58.55.14-.1.23-.28.41-.35 0-.28-.16-.35 0-.56.18.17.47.19.5.56-.26.14-.06-.37-.33-.22-.1.36.26.08.16.44.15 0 .17-.15.33-.12-.15.42-.43.76-.13 1.24zm0-11c.17-.06.22-.28.44-.26a1.89 1.89 0 01-.34.88 3.38 3.38 0 01-.83-1.5c-.46.06-.34.77-.25 1.26a.51.51 0 00-.18.15.24.24 0 00.1 0c.05.4-.24.34-.49.35v-.45h.1c-.08-.18-.27-.2-.33-.4.09-.66.63-.71.78-1.27.42.05.51.27.8.24a1.8 1.8 0 00.19.98zm-.13-2.51c.12-.39.24-.82.61-.89-.15.32-.26 1.2-.61.87zm-.12 9.8v-.51c.29-.16.42.68 0 .49zm-.16.88c-.22-1-1.48-1.17-1.11-2.62.18.09.21.38.36.49.22-.2.37-.47.8-.38a11.75 11.75 0 00-.06 2.51zm-.66 3.26c0 .5-.1.86-.52.76-.01-.47.1-.84.51-.77zm2.89-14.72c0-.4.22-.45.44-.52a1.07 1.07 0 01.09.63c-.35.04-.32.13-.54-.12zm.8 17.68c-.28.15-.19 0-.53 0-.14-.63.65-.72.52-.01zm-.27 3.1a.45.45 0 01-.42.12v-.68c.31-.08.35.24.41.55zm1.89-2.13a1.53 1.53 0 01-.33 2c.08.85-.22 1.37-.87 1.52A2.15 2.15 0 0188 51c-.26-1.12.11-1.69.83-1.82zm-.28-1.12c.11-.26.13-.64.43-.64.13.29.19.23.1.63-.3-.14-.21-.06-.55 0zm-.17 13.43c.08.43-.09.53-.17.75a1.3 1.3 0 01-.22-.75zM88 56.86c0 .59.17.7-.08 1-.13-.32-.13-.84-.28-1.12.12-.02.16.14.36.12zm-.29 21.47a1.1 1.1 0 01.66.1c-.32.36-.07 1.12.35 1.12-.35.45-.98-.55-1.04-1.23zm1.2 3.88c.14-.41 0-.74-.45-.62.12-.55.46 0 .71 0-.01.34-.01.67-.3.61zm-.81-27.49c.17 0 .19-.15.36-.13.38.85.37 1.51.74 2.25-.61.16-1.05-1.03-1.1-2.12zm.65-22.48c-.32 1 .44 1.16.48 2-.62-.2-.51.61-.88.77s-.51-.19-.54-.62c.42 0 .43-.63.51-1.13-.38-.73-1.34-.6-1.45-1.74.35 0 .71.31 1 0 .28.23.47.63.88.72zm-.36-6.4c-.35-.09-.73-1.1 0-1-.03.38.2.71 0 1zM88 24.72h-.45a1.58 1.58 0 01.52-.77 1.47 1.47 0 00-.07.77zm0-1c0 .34-.4.55-.57.35-.1-.45.57-.43.57-.36zm-2 .8c0 .13-.18.08-.18.25s.3.07.35.24c.25-.46.77-1.13 1.23-.89a3.54 3.54 0 01-1 2.15c-.1-.57-.57-.61-.64-1.24-.23.06-.26.38-.53.39-.11-.19-.12-.51-.27-.62.04-.68.8-.8 1.04-.3zm-.83 4.78a.87.87 0 01-.07.88c-.23-.34-.38-.58-.81-.36v-.38c.36.07.47-.24.85-.15zm-.75-3.13c.19-.07.13.23.26.26 0 .33-.33.12-.35.37-.33-.23.24-.23.06-.64zM84 32.44c-.26 0-.3-.33-.53-.37a5.33 5.33 0 000-1.63c.74-.05 1.01 1.46.53 2zm-1.16-11.23c.23.07.33.3.34.67-.25 0-.23.36-.57.24.15-.39-.07-.66.23-.91zm-.05 1.68c.18 0 .17-.28.15-.56.34.15.29-.21.41-.34.66.44-.32.3-.07 1.13-.54-.14-.55.27-.57.58a1.32 1.32 0 00-1.08 0c.09-.48.06-.67-.26-.79.12-.29.27-.53.66-.46a1 1 0 01.1.55.44.44 0 01.66-.11zm-1.24 9.59c-.15.19-.51 0-.45-.49.22.06.46.09.45.49zm.09-5.78c.43.3.37 1.56-.15 1.64-.31-.55-.33-1.34.15-1.64zM81.48 40c.44.06.48-.41.61-.77.46.1-.28 1.41.46 1.25a1.45 1.45 0 01-.08.76c-.38-.38-.57-.68-1.07-.62a1.05 1.05 0 00.08-.62zm.69-13.32a1.66 1.66 0 01.54.25c-.11.21-.18.5-.44.5-.11-.3-.2-.36-.1-.73zm.27 18.2c0 .51.34.62.29 1.26-.65.21-.82-1.14-.28-1.25zM81.81 20a1.59 1.59 0 01.46 1 4.24 4.24 0 00-.33.37.57.57 0 010 .13h-.11a2.55 2.55 0 01-.79.77c-.29-.19-.2-.91-.29-1.38.61.69 1.13-.22 1.06-.89zm-1 19.1c.35 0 .49.24.45.74-.35.08-.37-.31-.63-.36-.01-.11.11-.15.13-.33zm-.44-8.1c.21.28-.16.41-.07.88H80a.61.61 0 01.37-.88zm0 1.63c.16.24.07.83.1 1.26-.75-.72-1 .56-1.58.77v-.76c.68-.2.7-1.26 1.51-1.28zm-.94 8.94a2.3 2.3 0 01-.74-2.12c.87-.08 1.1.58 1.7.6-.21.8-.55-.24-1.15 0 .08.58.69.95.22 1.51zm.08-12.93c-.15.38-.09 1-.42 1.13-.21-.77.35-2.17.45-1.15zm-.06-10c.27 0 .31.31.36.62-.36 0-.42.48-.7.64-.11-.67.17-.9.37-1.32zm.33 4.51a.71.71 0 01-.81-.86c.29-.23.97-.02.84.8zm-.88.9c-.21-.12-.24-.5-.28-.88.32-.04.38.63.31.83zm.23 3.13c0 .49-.16.62-.07 1.13-.42 0-.59-.35-.56-1 .15-.23.43-.19.66-.19zm-1.18 2.22c.07.58-.37.47-.61.63-.04-.52.38-.85.61-.63zm-.38 10c-.23-1.17 1.16-1.62.76-3 .22-.46.81-.11.78-.65a.11.11 0 01.11.06.22.22 0 01.29.05c0 .17-.09.22-.21.23s0 .28.18.28c-.15.12-.22.34-.17.76-.13-.11-.14-.4-.19-.63-.31.14-.49.47-.42 1.13-.76.37-.87 2.24-1.56 2.28-.08-.42.3-.27.43-.46zm-.15 1.89c-.37.41-.56-.33-.9-.37a1.38 1.38 0 01.53-.89 1.75 1.75 0 00.37 1.31zm-.68-4c-.3.11-.37-.13-.54-.24 0-.5.33-.52.61-.63a2.83 2.83 0 01-.07.91zm-.1-6.4a2.15 2.15 0 01-.25 1.51c-.73-.15-.39-1.52.25-1.47zm-1.1-2.12c0 .42-.28.44-.26.89-.22 0-.28-.2-.45-.24.11-.42.28-.66.71-.61zm-2.38 1.43c-.36-.09-.53-1-.38-1.38a1.23 1.23 0 01.38 1.41zm-.23-2.88c.29 1.2-.74.59-.77 1.64a.33.33 0 00-.26-.12v-.5c.51-.08.57-.82 1.04-.99zm-1.17-1.47c-.29.14-.68-.1-.76-.77a2.94 2.94 0 01.76.81zm-.25 5.53c0 .4-.13.49-.24.68-.21-.06-.19-.42-.25-.67a.33.33 0 01.49.02zm-.59-6.74c-.3 0-.42-.94.07-.79.17.26.01.56-.07.82zm-1.26-2.92c.41 0 .29-.33.71-.14.19-.27.13-.89.52-.89-.06.69.41.61.37 1.26-.18.15-.47.16-.52.51.06.52.57.37.55 1a.34.34 0 01-.26.13 5.38 5.38 0 01-.83-1.24c-.32 0-.4.43-.52.76-.29-.05-.04-.95-.02-1.36zm-.07 7.16a2.17 2.17 0 01.65 1.87c.08-.14.23-.2.35 0a.77.77 0 00-.08.34c-.17 0-.22-.08-.33-.11a.48.48 0 01.05-.19 1.45 1.45 0 01-.65-1.88zM69.2 27c.11-.17.38-.13.62-.14a1.13 1.13 0 01-.25.89c-.29.02-.34-.32-.37-.75zm0-.87c0-.33.15-.39.24-.57.32.13.16.79-.24.6zm-.08.11a.79.79 0 01-.48-1.13c.12-.44-.18-.78.25-.86a.63.63 0 000 .55 1 1 0 01.42-.14c0 .47-.14.7-.49.68-.01.52.28.53.3.93zm-.23 1.24a.77.77 0 00-.08.35c-.19-.11-.27-.38-.25-.78.08 0 .06.13.08.21a.63.63 0 00.25.25zm-.94-7l.25.36v.07A8.48 8.48 0 0069 22a14.24 14.24 0 00-.33 1.63 1.42 1.42 0 01-.38-1.5 1.13 1.13 0 01-.34-1.61zM68.1 30c-.48-.13-.75-.78-1.16-.66a2.81 2.81 0 00.23-.91c.34.43.92 1.07.93 1.57zm-.54-11.61c.42 0 .73.37.83.83.38-.09.61.28 1 .4-.14.15 0 .64-.16.79 0-.94-.45-.62-.79-.67a.83.83 0 01-.29.53 1.91 1.91 0 01-.42-.86 1.65 1.65 0 00-.18-.09.32.32 0 01.11-.21 5.27 5.27 0 01-.1-.72zm-.47 4.75a.44.44 0 01.41-.14 1.82 1.82 0 01-.5 1.17c0-.52.25-.49.09-1.03zm0 1.69c.35.36-.25 1.2-.41.57-.01-.4.43-.21.44-.56zm-.94-2a.29.29 0 00.24.11c0 .27-.15.25-.07.57-.18.06-.16-.17-.17-.34-.08 0-.08 0-.08.11-.27-.18.22-.17.11-.45zm-.11-1.24c0 .44-.16.68-.49.69.03-.45.2-.68.52-.7zm-15.13-3.24c.36 0 .4.36.5.66-.26 0-.23.29-.33.45-.28-.11-.3-.74-.17-1.11zm0 3c.26-.06.29.2.58.11-.07.3-.17.58-.23.9-.37.01-.52-.69-.4-.98zm-.56.69c.21 0 .2.41.09.56s-.18-.14-.33-.1c-.11-.34.16-.21.19-.43zm-2.81.38c0 .35 0 .67-.31.68-.1-.39 0-.62.26-.65zm-2.79 1a.39.39 0 01-.25.63c-.08-.36-.07-.69.2-.64zm-.41-4.73c.11.62-.4.42-.73.45.17-.14.39-.81.68-.46zm-.46 2.48a1.53 1.53 0 01.23-1.36c.62.19.09 1.19-.28 1.35zm-1.12-3c-.08.52-.54.53-.9.69-.04-.66.39-.71.86-.72zm-3.09 3.53c.21 0 .18-.21.41-.12-.16.11 0 .5.09.23.07.27-.34.87-.56 1.13.15-.44.01-.63.02-1.26zm-3.26-3.1a.49.49 0 01.25.45c-.19.22-.23.22-.41 0-.05-.23.18-.17.11-.47zm-.9.46a1.63 1.63 0 01-.43-.78c.12.2.46.19.38.72zm-.08 11.82c-.05.41-.39.16-.49 0 .06-.32.31.03.45-.01zM34.16 21c-.26.22-.2.85-.4 1.13-.19-.11 0-.7-.1-1 .26.05.25-.23.5-.13zm-.28-1.79c-.22.26-.52-.12-.5-.55a.55.55 0 01.5.52zm-.36 3.15a8.39 8.39 0 010 2.38 4.06 4.06 0 00-.55-1.31v.08c-.2-.06-.19-.21-.13-.37a3.81 3.81 0 01-.38-.75c-.42.08-.28.9-.73.92-.26-.38.18-.5.07-1a1.36 1.36 0 00.9-.36c-.02.53.41.6.82.39zm-.45 3c0-.32 0-.61.24-.56.02.34.02.63-.24.58zm-1.25-6.26c0 .2.1.24.09.45-.21-.27-.32.14-.58.13.03-.37.12-.68.49-.58zm-.92 5.2c.11 0 .14.2.25.22 0 .28-.11.43-.32.46-.1-.34-.02-.39.08-.68zm-.63 7.33c.55-.15.32 1.12-.06 1a1.65 1.65 0 00.06-1.01zm-1-7.34c0 .17-.15.21-.17.39-.23 0-.18-.41-.19-.75.27-.13.09.4.34.35zm-.82 15.58c.32.09.08.85-.17.88-.09-.46.16-.49.15-.89zm-1.64 1.27a4.12 4.12 0 01-.16.68c-.34-.1-.53.29-.75 0 .25-.34.34-.88.81-.92-.11.16-.08.24.08.24zm-.19-.78c-.16-.51-.59-.41-.6-.9-.26 0-.23.42-.49.46 0-.52.2-.71.24-1.14h.83c-.05.65.23.83.26 1.35a.25.25 0 00-.26.22zm-.31-15.3h.33c0 .35-.22.3-.24.56-.19.01-.06-.41-.11-.57zm-.21 1.29c.16.12.2.39.19.75-.18.05-.23-.08-.36-.12-.1-.4.12-.39.15-.63zm-.1 11.2c-.27 0-.71.17-.66-.32.25.03.66-.17.66.32zM24.6 22c.38-.12.39.3.37.75h-.44c-.02-.32.14-.39.07-.75zm-1.1 15.82c0 .49-.21.75-.56.8.06-.43.27-1.06.56-.8zm-.7-11c0 .33-.14.25 0 .5s.16-.35.44-.26c.09.4-.14.31-.18.5-.45-.31-.83-.06-1.15-.1.09-.56.52-.58.9-.68zm-2.23 2.41c.08-.63 1-.86 1.24-.24-.65-.49-.81.49-1.24.2zm-.74 18.6c.09-.31.51-.5.71-.27.11.74-.54.44-.71.23zm-1 2.71c.09-.63.57-.4.83-.13.27-.32 0-.65.07-1.24.51.09.66-.29.64-.91a2 2 0 001.24.1c.09.38-.25.18-.4.23s0 .16 0 .24a.79.79 0 010 .31.5.5 0 00.22.34c.3 0 .36-.34.32-.8.61.19.6-.46.81-.8 0-.09-.09-.11-.08-.22-.41-.05-.36.48-.74.45.14-.65-.37-.4-.67-.42-.06-.38-.25-.39-.1-.8.12-.17.42-.1.67-.12 0-.13 0-.2.08-.23a.88.88 0 00-.91-.66c-.22 0-.16.38-.16.68-.59-.09 0 .21-.33.23-.2-.22-.13-.26-.18-.79.8-.08.7-.7.64-1.81a4.19 4.19 0 001.06-.69c-.12-.34-.41.17-.5-.1-.11-1.9-1.34-.77-1.84-1.44 0-.48.52-.13.66-.12.31-.31-.09-.62.07-.9.28-.09.39.05.33.44.75.51 1.34 0 2 0a5.06 5.06 0 01-.56-2.19c.27 0 .35.18.66.1-.21.52.1.72.5.67a2.25 2.25 0 00.27 1.11 7.26 7.26 0 001.9.31c-.11.7-.82.6-1.23.92a2.56 2.56 0 00-.67-.89c-.24.26.06 1-.4 1.24-.33-.4-.59.14-1.07-.21 0 .62.33.75.51 1.12 0 .42-.34.48-.15.9.2-.33.9-.47 1.08.09a.8.8 0 00.16-.33.66.66 0 01-.27-.27 1 1 0 01-.07-.38h.07a2.21 2.21 0 01.07-.22c.09 0 .13.07.17.17a.53.53 0 01.52 0 2.47 2.47 0 00-.15 1.58c-.15.35-.59.32-.81.58a2.46 2.46 0 01-.26-.45c-.11 0-.12.2-.25.23-.06.73.52.57.84.78a2.12 2.12 0 01-.14.83 16.91 16.91 0 013.2-4.74c.3-.28.6-.54.9-.79a1.63 1.63 0 01-.29-1.54.45.45 0 01.43.18c.14-.14.4.18.21.43a3.49 3.49 0 01.11.63A14.58 14.58 0 0136.66 38h1v-1a14.32 14.32 0 01.47-3.4A16 16 0 0142 26.85a16.16 16.16 0 015.9-3.63c0-.14-.07-.3-.1-.44.22 0 .3.15.35.36l.56-.17a15 15 0 013.1-.47 1.87 1.87 0 01-.15-.7c.41.09.44-.34.74-.11a2.66 2.66 0 01-.21.78 12.24 12.24 0 013.68.49.42.42 0 01.07-.25c.16 0 .2.15.36.11a1.28 1.28 0 010 .26A20 20 0 0160.51 25a24.73 24.73 0 014.77 3.83l2.89 2.89L70.46 34a2.19 2.19 0 00.16-1.23c0-.17-.22-.1-.36-.12 0-.36 0-.68.26-.63a1.06 1.06 0 00.64 1v1.12l-.28.3 5.64 5.64-5.31 3.43a.73.73 0 01-.45.5.84.84 0 000-.2l-1.23.79-5.39-5.39a1.63 1.63 0 00-.08.44c-.28.06-.35-.17-.54-.25a1 1 0 01.37-.44l-4.38-4.38a28 28 0 00-2.25-2l-.18-.13c-.2.14-.55.09-.43.65-.48 0-1 .39-1.65.47-.13-.06 0-.53-.17-.56.16-.49.83-.13 1.07 0 .22-.28-.07-.81-.26-.9s-.56.35-.74 0c.19-.2.37-.42.54-.64a7.37 7.37 0 00-.75-.29 5.2 5.2 0 00-2.13-.18 1 1 0 01.53.81c-.3.2-.72-.2-.76-.77-.19 0-.38.06-.57.1a7.41 7.41 0 00-3.31 2.13 7.4 7.4 0 00-2.13 3.31 5.43 5.43 0 000 2.93c0 .13.09.25.14.37.1-.11.21-.15.3-.07a1.82 1.82 0 01-.09.58 8 8 0 001.05 1.7l.43.51v6h-4.31a1.54 1.54 0 01-.62.47.89.89 0 01-.1-.47h-.81l-.55-.47a8.07 8.07 0 00-1.63-1c-.37 0-.2.35-.67.4.43.84-.39 2.26-1.31 1.65 0-.43.3-.48.34-.89.24 0 .51 0 .62-.13 0-.39-.31-.33-.1-.62a2.61 2.61 0 00.69-.59l-.53-.19a5.43 5.43 0 00-2.93 0A7.41 7.41 0 0033 48.79 9.26 9.26 0 0031.29 51c.18-.18.28-.46.49-.6 0 .69-.37 1-.23 1.89a2.74 2.74 0 00-.48.36c.08.59 0 1 .53 1.18 0 .55-.26.68-.3 1.13a1.66 1.66 0 00.85 1.22v.79c.12.44.82.07.76.77-.91.14-1.06-1.55-1.81-2.07a7.94 7.94 0 001.17 2v.05h.11c0 .14 0 .22.1.25.57.69 1.16 1.35 1.76 2l2.89 2.89 1 1v-.21c.12.23.57-.29.54.37a.57.57 0 01-.3.08l.43.43-7 4.53-.46-.46-.34-.45a.77.77 0 00-.23.8c-.57.23-.54-.89-.29-1.12.16.16.24.17.36.16l-2.38-2.38A26.81 26.81 0 0125 61.37a.55.55 0 01-.6 0 1.87 1.87 0 00-.07 1c-.73.18-.61-1.32-1.34-.73V61a.53.53 0 01.71.36c.06-.26.2-.44.34-.29a11.28 11.28 0 00-.1-1.58c-.14-.27-.27-.53-.39-.79a.74.74 0 00-.62-.09c0-.33.18-.68.18-.94l-.11-.25a.48.48 0 00-.26-.11c-.25.14.13.41-.07.56s-.41 0-.42-.22c-.24.05-.19.49-.41.58l-.15-.07c-.08 0-.19 0-.19.15a.71.71 0 01-.29-.4 1.21 1.21 0 00-1 0v-.44a.59.59 0 01.66.21 2.51 2.51 0 00.13-1.12c-.6.32-1.64.43-1-.74.39-.17.38.59.63.25.1 0 .09-.22.09-.38l-.11-.24c-.1 0-.25.24-.42.11a1.06 1.06 0 01-.08-1l-.1-.17a3.3 3.3 0 00.22-.9c0-.48-.37-.39-.49-.67-.22 0-.11.44-.33.46s-.56-.5-.34-.89c.59.53 1.09.19 1.4-.47.29.14.44.46.77.53a4.1 4.1 0 00.25-.32 1.11 1.11 0 000-.29v.06c-.21-.25-.62-.21-.81-.5v-.06a1.17 1.17 0 00-.8.25c-.19-.05 0-.56-.09-.79a1.54 1.54 0 01-.97-.3zm1.74-7.25a1.06 1.06 0 01.08-.62c.23 0 .35.18.36.49a.44.44 0 01-.45.1zm55 1.6c-.11.15-.57.22-.58-.11.01-.52.59-.64.52.08zm-2-.42c-.39.21-.47-.63-.09-.56-.11.29.08.26.05.53zm0 1.24c.22.08.37.24.34.68-.36.06-.52-.47-.36-.72zm-1.24.14c-.36.05-.52-.18-.58-.55.2.09.45.2.55.51zm-5.57.1c0-.34.49.08.44-.26.27.44-.34.78-.47.21zm-.1-.63c-.19.06-.24-.07-.36-.11.1-.19.07-.56.34-.5zm-.69 1.4a.85.85 0 01-.38-1.25H66c.2.41 0 .73-.05 1.2zm-21.63 11v-6.08h7v-7h6.07v7h7v6.07h-7v6.93h-6.14v-6.93zm1.85 2.82a5.41 5.41 0 01-.25 1.46c-.22 0-.46.05-.57-.1.17-.57.17-1.38.79-1.37zm.67-10.6a.62.62 0 00.08-.33.6.6 0 01.92.21c-.09.39-.86.5-1.03.11zm2.09-6c.26-.1.26.21.53.11 0 .31-.07.64-.34.63 0-.12-.11-.1-.18-.12zm1.25-2.1c.16 0 .18.15.36.12 0 .54-.2.8-.62.76-.06-.49.34-.36.24-.91zm3 1c.09.4-.22.26-.26.51-.82-.49-1.3.39-1.67.9a3.36 3.36 0 011.3-2c.15.12.23.35.19.75s.15-.4.43-.2zm1.47-5.6c-.18.42-.67-.09-.65.69-.84-.18 0-.56.07-1 .29-.11.38.16.57.27zm-.21-3.15c.39-.1.55.13.58.55-.3.29-.62-.12-.59-.59zm-.84-.44a.6.6 0 01.65-.56c.02.46-.41.75-.66.52zm4.25 2.19c0-.37.36-.19.49-.35-.03.38-.29.42-.5.3zm3.3 12.66c.1-.51.7-.15 1-.15a1 1 0 01-.78.89 1.29 1.29 0 00-.22-.74zm1.1 2.5c.23 0 .22.47.1.63-.22-.01-.21-.47-.1-.63zm1.28-3.78c.32-.39.54-.9 1.05-1a.89.89 0 01-1.05.99zm.59-2.14a3.69 3.69 0 01.16-.76 1 1 0 01.56 1.24c-.3-.08-.44-.39-.71-.49zm-20.72 5.1c-.4.12-.46-.28-.72-.36.06-.55.86-.22.72.35zm-2.24-1.35c0 .17-.16.2-.17.38-.18-.1-.28-.36-.28-.74.27-.02.2.38.45.35zm-3 7.21c-.18-.37.24-1.52.7-1-.03.59-.57.52-.71.96zm.21 1.88c-.14.47-.07.6-.17 1-.22-.33-.28-1.02.16-1.01zm.5-7.8c0-.22.11-.26.08-.5.27.09.32-.13.53-.14.11.38 0 .43-.08.76-.22.02-.42.02-.54-.12zM39 66.69c-.25-.06-.18-.6-.28-.87a.64.64 0 01.28.87zm-2-5.62c.35-.08.39.28.45.62-.25-.1-.23.17-.44.14.1-.4-.01-.29-.01-.76zm.57-3.15c.74.48 0 1.65.14 2.63-1.28.23-.8-2.39-.13-2.63zm.43 3.89c-.11.21 0 .79-.25.75-.12-.15-.06-.79.25-.75zM37.56 57c0-.58.25-.73.44-.38 0 .45-.23.71-.44.38zm-.33-4.76c-.1-.61.55-1.19.77-1.77v1c-.45.02-.31.82-.77.81zm-.06-3.77c.07-.27.21-.45.53-.38.06.49-.26.42-.53.42zm-.6 6.79a3.26 3.26 0 01-.08.89c-.36-.47-.49-.14-.9-.24.12-.46.51-.59.98-.61zM36 53.93c0-.42.48-.15.45.25-.2.32-.31-.08-.45-.25zm-3.33 2.94c-.59.16-.47-.72-.22-1l-.08-.21c.32.13.43.55.6.9a1.85 1.85 0 01-.3-.31c.01.21-.01.44.01.62zm-.67-1.5c-.34.12-.15-.54-.54-.36.39-.9.34-1.66.68-2.52.17.43.07 1.25.29 1.62-.11.18-.42.09-.53.26-.03.48.1.63.1 1zm1-5.29c.5.12.72 1.25.29 1.64-.48.14-.54-.34-1-.24-.01-.84.71-.64.71-1.4zm.69-1.51c.07.39-.08.46-.08.75-.22-.1-.5-.19-.61.14-.14-.32.4-.78.71-.89zm-1.4 2.62c-.09.23-.34-.29-.34-.56.12 0 .23 0 .25-.12.35.15-.06.56.1.67zm.24 3.06a6.47 6.47 0 00.37-1l-.08-.2A.32.32 0 0133 53a3.54 3.54 0 00.08-.42.64.64 0 01.35.6 1.61 1.61 0 01.44 1.35 1 1 0 01-.44-.31c-.43.05-.62.49-.89.02zm1.61 4.57c-.39-.1-.28-.91-.75-.89 0-.18 0-.43-.09-.45.34-.48.77.72.86 1.33zm.16 23.38c-.22 0-.22-.47-.1-.63.23.02.23.43.1.63zm-3.92-12.12c0 .25-.18.33-.17.64a.36.36 0 00-.27-.13v-.37a.47.47 0 01.44-.14zm-1.79 3.23a4.13 4.13 0 01.15-.69c.18.11.13.83-.15.69zm-1.53-2.79a.31.31 0 00.25.11c0 .11-.09.21 0 .23 0 .2-.14.26-.33.23.09-.36.02-.29.08-.57zm-2.13-4.47a.61.61 0 01.58.55c-.1.32-.44.24-.49.35-.19-.08-.02-.63-.09-.9zM23 63.93c0 .3-.05.6-.35.51a1.07 1.07 0 01-.1-.63.55.55 0 01.27 0c0-.36.31-.32.58-.33 0 .12 0 .2.09.22 0 .23-.37 0-.33.34-.13 0-.08-.33-.31-.22a.55.55 0 01.15.11zm-.23-3.25c-.14.37-.53.41-.9.47-.16-.47-.4-.81-.84-.89 0-.37.32-.37.32-.79.24.19.41 0 .58.1a1 1 0 01-.07.57c.14.43.73.18.91.54zM24 64c0 .2.11.23.08.44-.23.18-.55.35-.74 0 .14-.18.24-.44.66-.44zm-.81-4.27c.59-.14.6.7 0 .57-.01-.15-.01-.3-.01-.53zm-3.42-1.63a1 1 0 01.1.57.34.34 0 01-.5 0c0-.31.13-.51.39-.53zm-.37-3.4c0-.55.18-.82.52-.89.23.31-.1.49-.07.88zm-1.06 2c.08-.69.22-1.33.89-1.25.11.22-.05.46.09.79-.37.09-.58.4-.98.46zm.58 24.63c0-.55.28-.76.42-1.14.45.36-.19.95-.43 1.14zm.5-18.56c-.13-.16-.08-.58-.1-.9.18.75.46 0 .91.32a.82.82 0 01-.81.57zm.56-1.7c0-.27.28-.21.24-.57.43.81 1.51.71 1.93 1.55-.12.25-.16.62-.32.8-.4.06-.27-.6-.42-.9h-.66c-.2-.39-.34-.85-.75-.88zm.78 7.18c-.25 0-.16-.53-.19-.87.36-.14.32.62.19.86zm.15-5.16c.43.12.57 1.65 1.43 1.56a.6.6 0 00-.08.34 1.86 1.86 0 01-1.35-1.91zm1 3.64c0 .48-.26.56-.54.38.09-.27.26-.74.53-.39zm-.4 9.42c.27.08.31.49.28 1-.58.12-.68-.75-.29-1.02zm-.16 7.29c.4-.08.51.29.55.74-.3-.11-.65-.11-.56-.76zm.11 1.5c.22-.2.25-.42.61-.63-.12.28-.26 1.01-.62.61zm.95-16.36a1.15 1.15 0 000-.6.89.89 0 00-.69.51c-.25-.17.06-.56.08-.75a.64.64 0 00.5 0 1.44 1.44 0 01-.19-.68c.48-.22.59-.55.81-1.25A2.72 2.72 0 0024 65.4a1.42 1.42 0 010-.22.34.34 0 01.54 0 .57.57 0 00.22.18 1.28 1.28 0 00-.07.68c-.18.24-.51.29-.74.46 0 .3 0 .66.17.67-.32.55-.72-.9-.34-1-.33-.24-.45.16-.63.47 0 .09 0 .15.1.16 0 .17-.22.11-.34.13a3.06 3.06 0 01.1 1h-.1c-.12.31-.17.67-.51.63zm1.57.63c-.21-.32-.1-1 .35-.76.03.45-.07.71-.33.74zm-.64.49c-.21 0-.26-.18-.42-.22 0-.21.1-.24.08-.46.08.24.38.19.33.66zm0-2.49c.26-.16.28.84 0 .68-.03-.09-.15-.63.03-.69zm.28 10.16c0 .37 0 .71-.34.64.07-.33.09-.66.37-.65zm-.13 8.54c-.28-.12-.19-.75-.64-.62-.06-.49.22-.52.25-.88.9-.21.82 1.06.42 1.49zm.35-1.91c0-.31.14-.39.17-.63.33.1.11.69-.17.63zm.3-3.9c-.28-.43.2-.63.43-.77.03.04-.15.79-.43.78zm1-.9c.19.11.21.46.19.88-.31.07-.26.63-.52.76-.3-.15.36-1.19 0-1.88.23-.2.57-.3.78-.52-.07.45-.12.83-.49.77zm.11-4c0 .82.49 2.36-.14 2.26a2.34 2.34 0 000 1c-.62.23-.84-1.15-1.27-1.61a6.07 6.07 0 00.25-1.13c.53-.21.82.45 1.06.23-.43-.33.06-.79.07-1.25.14.06.23.18.36.25a.37.37 0 01-.36.25zm.73-1.62c-.39-.42-.36-.28-.83-.33.05-.33.27-.46.41-.68a.76.76 0 01.39 1.01zm.05-1.8c-.26 0-.36-.25-.66-.22-.16.35-.15 1.11-.57.8a.72.72 0 00-.67-1.12 1 1 0 01.07-.56c.33.18.52.25.75-.12 0-.47-.38-.46-.6-.66v-.68c.42.08.41-.42.74-.46a9.49 9.49 0 00-.39 1c.17.57.6.39 1.08.31.2.48.63.65 1 .89-.15.48-.6.46-.78.82zm.91 9.67c-.27.1-.26-.21-.53-.11-.11-.6.33-.45.43-.76.25.21.02.42.07.87zm0-9.16a.73.73 0 01.73.61c-.23.21-.77 0-.67-.62zm2.24 2.93C29 75.3 29 75 28.86 75s.11.29 0 .56-.41.26-.66.36a13.81 13.81 0 00.7-2.6c.35 0 .26.64.67.55a1.8 1.8 0 01-.38 1.34zm.23-2.22c.06-.57 0-1-.51-.76.05-.27.27-.32.31-.57.18 0 0 .49.26.44.38-.16.42-.79 1.08-.58a1.18 1.18 0 00-.07.68c-.79-.74-.25.86-1.07.79zm1 3c0 .45-.16.68-.48.68-.1-.52.07-.75.43-.68zm1.23 3c-.47-.4-.9.23-1.42-.1 0-.37.09-.76.33-.88a1 1 0 01-.55-1.15c.35-.28.36.23.63.37s.29-.43.53-.51c-.09-.22-.26-.32-.19-.75.18-.27.49-.07.62.11 0 .5-.38.4-.34.89s.4.62.54 1c-.3.25.09.78-.2 1.02zm.74-3.4a1.51 1.51 0 01-.1-.75c.21.08.25.41.45.49-.06.21-.19.28-.4.24zm.38-4.28c-.23-.4-.43-.23-.72-.36-.18.17-.15.61-.52.51 0-.35.14-.53.43-.5-.11-.83.24-.82 0-1.76h.35a2.7 2.7 0 01.19.87c.29 0 .25-.39.44-.5 0-.28-.47 0-.53-.24.23-.22.25-.72.52-.89.36.44.76.63 1.16.11-.36.75-.76 1.77-1.4 1.78-.12.43.09.5.04.96zm.44-.38a1.15 1.15 0 01-.08.63c-.32-.03-.24-.69.04-.65zM33 90c0-.4.2-.56.53-.51V90c-.33 0-.25.15-.53 0zm.66-3.72c-.13-.17-.13-.64.16-.57-.03.23.12.69-.16.58zm.45.94c-.33-.1-.15-.82.16-.76.25.34-.1.54-.16.77zm0-1.64c-.06-.45.26-.39.52-.38-.2.15-.34.67-.54.39zm1.37-15.22c-.26.3-.29.93-.7 1-.04-.6.22-1.36.68-.98zm-.58 2.78c0-.59.4 0 .62-.14a1 1 0 01-.08.63c-.31.02-.24-.51-.56-.47zm.79 14.67c-.2-.11-.27-.38-.26-.78h.34a.75.75 0 01-.1.8zm0-1.23c-.49-.26 0-1.17.41-.8.01.54-.32.55-.45.82zm.15-11.45c-.44-.09 0-.85-.11-1.26.22 0 .28.2.45.25-.18.35-.52.35-.38 1.03zm.94 15.3c-.16-.2-.26-.74.08-.75.02.4-.13.47-.12.77zm-.16-2.74a1.19 1.19 0 01-.1-1.46c.2.09.3.33.66.21a1.19 1.19 0 01-.61 1.27zm0-2.48c0 .32 0 .61-.24.56-.24-.19-.18-.67.16-.54zm.5.67a1.73 1.73 0 01-.1-.79c.13-.02.38.8-.02.81zm0-8.89c.25.19.29.69.46 1-.07-.08-.24-.19-.26 0a1 1 0 01-.25-.99zm.06 4.27c-.25-.6.3-1.14.15-2 .21-.11.35-.35.61-.39-.31.8-.52 1.65-.81 2.41zm1-3.78c0-.44-.22-.82.25-.77-.03.42.03.85-.29.79zm-.1-.88h-.48a.62.62 0 011-.65c-.13.53-.6-.33-.6.67zm2.36 9.12c-.2-.13 0-.79.26-.63 0 .41-.27.36-.3.66zm-.83-2.62c0-.18.12-.32.17-.51.45 0 .77.25.73 1-.38-.1-.56-.43-.95-.46zm2 6.88c-.06-.38.15-.37.08-.76.03.15.31.93-.16.78zm9.44.85v-.38c.28.08.26-.22.53-.14.12.31-.36.9-.58.54zM71.25 86H71c-.16-.25-.15-.93.25-.76-.05.41.19.49 0 .76zm1-13.33A1.78 1.78 0 0171 71.36v.93a14.32 14.32 0 01-.47 3.4 15.1 15.1 0 01-10.62 10.64 15.22 15.22 0 01-3.43.5h-.39a12.59 12.59 0 01-3.56-.55 19.72 19.72 0 01-4.4-2 24.72 24.72 0 01-4.77-3.83l-2.89-2.89L36 73.09c-.08.08-.18.08-.3-.07a1.45 1.45 0 00.07-.17l-.53-.53.89-.58a1 1 0 01.25-.38.73.73 0 00-.19-.62c.37-.39.52-1.1 1.05-1.27a10.74 10.74 0 00.17 1.43l1.8-1.17a2.47 2.47 0 010-1.19c.12.29.21.65.32 1l2.75-1.78 6.9 6.9a28 28 0 002.25 2A7.79 7.79 0 0054 78.11a5.06 5.06 0 001.51.22 6.07 6.07 0 001.42-.18A7.41 7.41 0 0060.19 76a7.4 7.4 0 002.13-3.31 5.43 5.43 0 000-2.93 7.75 7.75 0 00-1.39-2.58c-.15-.19-.31-.37-.47-.55v-5.85h2c0-.19.12-.31.33-.25v.25h3.59l.5.43a7.79 7.79 0 002.58 1.39 5 5 0 001.5.23 6.06 6.06 0 001.43-.18 7.41 7.41 0 003.31-2.13 7.4 7.4 0 002.13-3.31 5.43 5.43 0 000-2.93 7.75 7.75 0 00-1.39-2.58 27.55 27.55 0 00-2-2.25L72.89 48 75 46.59c0-.27.05-.54.07-.83.23-.1.22.16.42.11a1.88 1.88 0 00-.17.51L77 45.32a.35.35 0 00-.16-.08c.08-.24.22-.13.37-.05l.41-.27a1.36 1.36 0 00.09-.57c.26 0 .37-.24.63-.27a.65.65 0 00.11.3l.5-.33c-.33-.37-1-.21-1-1.1.48-.11.9 0 1.24-.15 0 .2.06.49-.07.51a.46.46 0 00.42.35l.27-.18a1.46 1.46 0 01.1-.44v.47l.17.17A25.85 25.85 0 0184 48.44a18.32 18.32 0 011.83 3.92c.23 0 .45.16.4.76a.29.29 0 01-.15.11q.17.66.27 1.29l.14-.06a.74.74 0 01-.07.42 11.74 11.74 0 01.11 1.9 14.32 14.32 0 01-.47 3.4 16 16 0 01-3.92 6.76c-.33.31-.67.6-1 .88.19.1.37.34.54.43 0 .61-.08 1.21-.61 1.14-.11-.4-.14-.91-.24-1.32a14.47 14.47 0 01-8.69 3.23 1.81 1.81 0 01.06 1.38zm.24-23.37c.22-.08.35-.29.57-.36-.08.26-.28.38-.23.79-.16 0-.18-.14-.34-.11zm.72 4.4c.27-.06.29.27.28.63h-.27a.6.6 0 01-.06-.63zm1 2c0-.61.36-.15.65-.23a.38.38 0 01-.67.21zm1.17-3.39a.77.77 0 01.63.61.51.51 0 01-.26.51c-.33-.11-.39-.59-.38-1.14zm.71.37v-.38c.22 0 .43 0 .53.11-.02.31-.31.24-.54.25zm1.11 2.74c-.3.33-.49.8-.79 1.14 0-.61-.63-1.94-.12-2.13.16.52.71.43.9.97zm-1.69 24.24h.44c.08.47-.09.62-.34.63a1.11 1.11 0 01-.1-.63zm.49 3.13c-1-.28.43-1.34 0 0z"/><path class="cls-2" d="M90.09 26.69l-.09-.26a.82.82 0 00.09.26z"/><path class="cls-1" d="M48.58 6.9l.13.25h.46a1.43 1.43 0 01-.59-.25zM118.63 108.89c-.07.11-.3 0-.41.23a.49.49 0 01.08.18h1.8a2.06 2.06 0 00-.21-.38c-.59 0-1.08 0-1-.44a.6.6 0 00.62-.19c-.29-.33-1.09-.28-1-.87h-.39c.16.51.21 1.17.51 1.47zM234.75 95.41l.54-.31a.35.35 0 00-.08-.17z"/><path class="cls-1" d="M20.82 107.7c.08-.14.23-.16.36.08a30.29 30.29 0 003.25.86c.2-.26.47-.33.66.12l.28.05a.73.73 0 01.09-.27c.1.12.21.22.31.34a30.66 30.66 0 004.81.38h20.21c0-.18.12-.27.15-.45a2.32 2.32 0 00-1.34-.65c-.2 0-.12.42-.23.57-.47 0-.63.34-1.07.35a1.37 1.37 0 00.07-.68c.29-.18.68.26.65-.46-.09-.23-.32-.24-.58-.21s-.25.37-.16.68c-.19-.23-.34.2-.49.35-.07-.19-.09-1.06-.27-1.68.49.41 1.36-.42 1.58.31a3.54 3.54 0 00.8-1.48c.27-.11.13.37.26.45.2-.1.24-.42.4-.57.5.51 1-.16 1.23-.7 0-.41-.34-.28-.26-.78.59.29.76-.12 1-.58a.38.38 0 00.33.1c0 .32-.06.78.18.79a3.79 3.79 0 011.4-.7c.15.37-.19.65 0 1.24-.42.19-.28 1.11-.89 1a4.13 4.13 0 00.78 1.18c0-.28.24-.29.44-.3.08.34.3 1.43-.25 1.26a.38.38 0 01-.08-.34.65.65 0 000 .1c-.23-.06-.14-.58-.42-.56a.28.28 0 00-.17.23c0 .29.18.28.33.33.1.42-.3.18-.23.58-.46-.06-.46-.75-.69-1.12-.46.09-.6.58-.71 1 0 .25 0 .52-.31.56a1 1 0 01-.1-.52 2.6 2.6 0 01-.11-.35l.11-.12v-.14a.21.21 0 01.1 0 1.66 1.66 0 00.59-1.61 7 7 0 00-1.39 2.84h38.9a4.19 4.19 0 01.27-.9 2.7 2.7 0 01.28.5c.28-.06.3-.48.61-.51a1.76 1.76 0 01-.11.91h23.73a1.91 1.91 0 01-.06-1 5.67 5.67 0 01.59 1h1.95a6.41 6.41 0 01.43-1.64c0-.16-.16-.21-.25-.3a.52.52 0 01-.06-.44.58.58 0 01.21.16.9.9 0 01.72-.15c0 .22 0 .43-.12.54.86 0 1.29.32 1.27 1a.92.92 0 00.38.17 1.06 1.06 0 01.49-.83.22.22 0 01-.14-.06 3.07 3.07 0 01.43-1c.13.36.55.65.82 1 .15-.14.37-.21.38-.44.44.1.49.48.77.7a1.22 1.22 0 01-.94.07.52.52 0 01-.1.51c-.59-.1-.66.19-1.12.19.31-.25.48-.38.47-.63a1.47 1.47 0 01-.81.35c0 .16.15.19.13.35.53-.1 1.13.33 1.76.06.12.17.32.29.36.51h4.09a.26.26 0 01.07-.13.57.57 0 01.4.13h7.72a.32.32 0 01.12-.11c.17 0 .22 0 .24.11h3.52c-.14-.14-.25-.35 0-.51a2.31 2.31 0 001.13.07 1.12 1.12 0 01-.61.43H146a.37.37 0 00-.15-.06c.2-.18.37-.07.54.06h27.95a.45.45 0 01-.24-.31 1.42 1.42 0 011.53.31h4.66c-.16-.06-.24-.17-.16-.4.54 0 .77.12.87.4h20.78c0-.19 0-.37.1-.46a.49.49 0 01.42.46h10.46c-.13-.7 1-1 1.6-1.31.28.25-.29.45-.55.58.1.14.28.23.35.41.28 0 .35-.16.56 0-.09.1-.14.22-.22.33h2a.22.22 0 010-.06h.51a.14.14 0 010 .07h1.23a30.58 30.58 0 006.36-.67c-.18-.29-.78-.19-1.21-.12a.51.51 0 00-.15-.18.24.24 0 000 .1c-.4.05-.34-.24-.35-.49h.45a.34.34 0 010 .1c.18-.08.2-.27.4-.33.66.09.71.63 1.27.78l.5-.12h.05a30.32 30.32 0 004.76-1.6c-.47.07-1-.07-1.09-.42.56-.31 1.35-.33 1.64.15a30.51 30.51 0 003.63-2 .73.73 0 01.88-.72.35.35 0 010 .12A30.82 30.82 0 00242 98a2.56 2.56 0 01-1.27-.07c0-.78 1.16-.82 1.61-.35q.36-.46.71-.93c-.41 0-.68-.08-.58-.43a.64.64 0 01.61.39 30.41 30.41 0 005.36-12.73.79.79 0 01-.32 0c.08-.42-.32-.48-.35-.82a7.76 7.76 0 01.73.52 30.65 30.65 0 00.4-4.9v-3.19c-.67.15-1.63.29-1.82-.37a.14.14 0 01.12-.18c.45.06 1.25-.17 1.7 0v-3.05h-.07a.69.69 0 01.07-.15V50.4c-.25-.26-.39-.6-.64-.86.44 0 .6-.11.64-.35v-.4c-.74 0-1 .38-.75.83a11.65 11.65 0 01-1.93-.38 2.36 2.36 0 01.1-.92 3 3 0 011.46-.26c0-.49-.19-.75 0-1.16.35 0 .37.17.35.41.43-.15.33-.15.77 0a.56.56 0 000 .45V30.57c0-.71 0-1.41-.08-2.11V29c-.22.1-.56-.07-.67.25-.3 0-.09-.32-.46-.24.24-.31.11-.41.22-.75a1.46 1.46 0 00.87-.31v-.28c0-.09-.33.08-.29.17-.53-.16.39-.4.1-.41 0-.05.08-.07.16-.08-.06-.56-.14-1.12-.23-1.68a1 1 0 01-.73.2c.35-.51-.26-1.26-.15-1.57.36-.08.35.12.56.16a.27.27 0 00.09-.06 30.68 30.68 0 00-16.37-21.2v.13a2.15 2.15 0 01-1.51-.06.82.82 0 01.15-.7q-.59-.26-1.2-.5c-.11.2-.39.28-.85.24-.13-.22 0-.19-.14-.53h.2A30.4 30.4 0 00219.4 0a1.28 1.28 0 00-.33.39c-.36 0-.44-.16-.64-.25l.14-.16H204a1 1 0 00.59.63 1.58 1.58 0 01-1.12.55c-.65 0-.55-.61-1.38-.51-.54.16-.61.63-1.12.81-.73-.39-1.46-.24-2.15-.67.09-.25.57-.5.52-.81H186.3c0 .31-.42.64-1 .49-.15-.18-.33-.33-.48-.49h-.13a2.77 2.77 0 01-1.41.43 1.42 1.42 0 00-.19-.43h-17.5c0 .18.23.18.14.42-.31-.07-.67-.11-.64-.42h-2.94c-.14.11-.46.09-.32.39a.55.55 0 01-.5-.39h-10.18L151 0h-1.84c.11.26-.41.2-.72 0H130.9l.17.05c-.09.41-.5.6-.75.9 0 .43.76.83.4 1.24a1.85 1.85 0 01-.3-2.19h-17.93v.24a.5.5 0 010 .11.55.55 0 01-.38-.35h-10.6a1.3 1.3 0 000 .64c-.27 0-.36-.3-.42-.64h-6.15a1.41 1.41 0 000 .5c-.24.09-.19-.25-.36-.25a1 1 0 010-.25H92a2.66 2.66 0 000 .9c-.25-.12-.32-.49-.33-.9H84.8a.42.42 0 01.12.34c-.33.13-.37-.17-.5-.33h-16c0 .16-.27.41-.12.84-.14.18-.37.25-.48.46-.12-.41.24-.83.4-1.3h-2.4c0 .6.58.87 1 .07a.51.51 0 00.25.22 2.18 2.18 0 01-.32.9c0 .64.43.68.43 1.35.65.31 1.34.56 1.35 1.78-.32-.12-.29.4-.49.12 0 .36.15.38.1.79-.26 0-.37-.25-.67-.21.13-.41 0-.9-.43-.9-.25.16-.17.82 0 1-.36 1-1.06.34-1.25-.43-.39.06-.57-.19-1-.09a1.63 1.63 0 01.5-1.61c.18 0 .17.3.34.33s.08-.11.16-.12c0-.47-.39-.42-.25-1.11-.19-.25-.8.11-.59-.67h-.34c-.26.15.22.63-.15.68a1.64 1.64 0 01-.43-1c.43.06.34-.69.74-.35a1.34 1.34 0 010-.78H55.3l.12.15c0 .19.1.55-.15.44 0 .29.27.22.5.22-.17.24 0 .45.09.68.3-.1-.08-.63.23-.57.37.39.24.84.59 1.12 0 .1 0 .11-.08.12s-.79-.75-1.24-.32c0 .48.27.68.26 1.23-.68-.15-.69.56-1.4.36-.35.19-.22 1.26-.04 1.59a1.92 1.92 0 01-.49.91c-.55-.07-.31-1.25-.61-1.68h-.5c-.11-1 .43-1.13.56-1.8-.48-.36-.6.67-1.15.57-.17 0-.08-.25-.33-.33-.2.14.18.43.17.68-.29.56-1.07 1-1.56.36.08-.23.14-.49.32-.57s.12.37.34.33c.11-.3-.18-.39 0-.89.81-.22.89-1.4 1.37-2.05 0-.39-.24-.36-.37-.53H51a1.05 1.05 0 01.74.77c-.57.16-.65-.38-1.16-.32V0H48a.87.87 0 010 .49c-.24 0-.34-.3-.48-.49h-6.31a.61.61 0 00-.08.26A.5.5 0 0141 0H30.57A30.55 30.55 0 005.66 12.89a.36.36 0 010 .22.33.33 0 00-.1-.11A30.39 30.39 0 000 30.57v16.85c.1 0 0 .46 0 .82v30.5a30.62 30.62 0 0020.82 28.96zM68.18 2.3c-.33-.12-.12-.81.23-.68.02.38-.16.44-.23.68zM9.68 94c0 .12.11.1.18.12.08.4-.13.39-.17.63-.43.06-.44-.75-.01-.75zm.42 4.77h-.34c-.06-.41 0-.64.17-.76s.18.45.18.79zm3 4.46c-.06-.23-.28-.69-.46-1.37.24-.64.75.92.47 1.4zm1-.64c.21 0 .2.38.37.5-.19.42-.66-.2-.39-.47zm1.54 2.23c-.3.09-.32-.43-.18-.62.18.04.17.35.16.65zm4.51-2c-.14-.18-.14-.71.17-.63-.06.32.1.81-.2.7zm.52 4.52v-.64c.28.06.2-.38.53-.25.01.66-.32.75-.56.96zm2.14.71a.43.43 0 01-.18-.62c.14.17.29.51.15.69zm1.15-.77c-.16 0-.19-.15-.37-.12 0-.7.1-1.28.61-1.27-.2.48-.02 1.24-.27 1.46zm.23-2.64c0 .33-.26.38-.26.76-.24-.1-.04-.74.22-.69zm-.28-1.13c0-.39.27-.28.16-.75.39-.14.45.2.72.23-.42.13-.5.61-.92.6zm1 4.69c-.35.13-.46-.64-.09-.57-.04.37.18.32.07.65zm.8-1.7c-.07.36-.22-.16-.44 0 .07-.36-.14-.33-.1-.63.06-.1.24-.07.26-.26s-.09-.13-.09-.25c-.14.37-.22.14-.53.13a1.66 1.66 0 01.06-1.76c.29.47.66.34 1.06.1.28.35-.16.92.11 1.26.35 0 .32-.47.42-.76.26-.1.19.24.37.25.02 1.2-1.14 1.34-1.14 2zm.28.87c.11-.29.3-.89.52-.63-.02.52-.36.5-.51.71zm1.36 1.36c0-.23-.11-.26-.09-.51-.26 0-.1.61-.44.52 0-.47.06-.74.34-.77.19.21.53.18.55.62-.19.08-.22.24-.39.22zm-.45-6c0-.18.12-.31.17-.51.2 0 .2.31.19.63-.21.15-.26-.02-.38-.06zm.41 3.77a.14.14 0 00.18-.13c.35 0 .49.23.46.74a.55.55 0 01-.63 0c-.03-.11-.03-.35-.03-.56zm.65 1.74c-.28.11-.28-.19-.45-.24a.49.49 0 01.53-.38 1 1 0 00-.1.67zm10.82-1.81c-.14-.18-.14-.71.16-.63.06.36.13.64-.18.68zM47 107.8c.19.08.22.38.42.44-.12.33-.51.02-.42-.44zm.56-1.25c-.38-.13-.58.53-1 .25v-.33c.19-.2.6-.09.49-.69a.65.65 0 01.22.23c0-.13.11-.27.14-.4.23 0 .26.67 0 .76a.58.58 0 00.19.18zm1.12-2.15a.59.59 0 00-.91 0c.12-.51-.26-.85.31-1 .22.37.72.29.65 1zm1.74.65c-.16 0-.11-.31-.33-.23 0-.33.15-.38.23-.56.17.08.23.3.26.56a.34.34 0 00-.11.18zm1.64-1.27c-.38.08-.29-.51-.5-.67-.13.06-.07.36-.33.24.27-.57.4-.24.82-.35.09.25.22.57.05.78zm.72-1.59c.31.11.44.46.52.89a.59.59 0 01-.48-.89zm1.95 3.63a1.93 1.93 0 010 1.16 1.94 1.94 0 01-.29-1.25h.08c.16-.39.6-.4 1-.41-.13.22 0 .15 0 .45-.23-.23-.52.03-.75.05zm.21-2c-.12.38-.36-.14-.27-.49.45-.09.17.5.33.5zm1.92 3.73a.23.23 0 01-.1-.06c-.32.13-.64-.23-.77-.53a.28.28 0 01.15-.16c-.16-.27-.46-.35-.46-.85.57-.58.85.27 1 1.07a.53.53 0 01.18.38l-.07.05a.47.47 0 01.11.12zm1.76-.77c-.3.09-.32-.44-.18-.63.24.04.24.34.23.65zm2.3-1c-.19 0 0-.45-.09-.64.44-.05.28.43.17.62zm.85-2.53c0-.29-.1-.54-.28-.63-.06-.27.16-.18.17-.38a.53.53 0 01.63.49c-.38-.21-.06.65-.47.5zm25.8 1.59c-.17-.25-.15-.93.26-.76.06.36.11.8-.21.74zm2.59 1.34c-.16 0-.19-.15-.35-.11a1.66 1.66 0 01.16-.89c.37.06.36.6.24.98zm-.38-2.26c-.48.17-.41 1.09-.78 1.4-.17-.5.18-.76 0-1.51.53-.85.89-.37 1.42-.15v.51c-.22.33-.2-.44-.59-.27zM91 103a1.44 1.44 0 01-.16 1c-.52-.53.16-1.26.51-1.39v.51c-.19.02-.21-.12-.35-.12zm2.43 1.72c.19-.06.23.07.36.12.07.34-.17.26-.17.51-.23-.01-.24-.35-.23-.62zm.24 3.76c-.21-.37-.11-1.14.34-1-.1.41-.07.94-.38 1.01zm2.49.21c0-.15 0-.22-.09-.25a.49.49 0 01.53-.39c-.02.46-.16.67-.48.65zm2.1-5c.29 0 .43.16.42.56-.33.04-.47-.14-.46-.54zm1.59 1.67c.22-.54.54.27.91-.13v.56a1.47 1.47 0 01-.94-.41zm1.21-1.71c-.07-.34.13-.33.07-.68.33 0 .61 0 .75.22-.11.53-.58.81-.88.47zm1.58.87a1.16 1.16 0 010-.9c.36.01.36.91-.02.92zm.56-1.25c-.08-.08-.05-.3-.17-.33a.68.68 0 01.9-.46c-.09.52-.24.91-.76.81zm2.75.86c-.32-.33.16-.57.07-1 .17.17.09.99-.1 1.02zm1.55 4.6c.06-.43.54-.19.5.21-.21.27-.31-.17-.53-.2zm.62-2.6A1.6 1.6 0 01108 105c.4.08.66.37.68 1-.2.06-.32.2-.59.14zm1.26 1.11c-.47 0-.38-.7-.6-1 .23-.35.29-.27.31-.79a1.12 1.12 0 01.68 1.11c-.38-.41-.18.59-.42.69zm1.1 1.89c0-.34.21-.57-.09-.67.24-.3.59.25 1 .1-.21.37-.61.44-.94.58zm.6-4.51c0-.42.06-.66.32-.68.17.32 0 .79-.4.69zm4.62 3.25c.76.28-.41 1 0 0zm.94-.51c.13-.49-.38 0-.63-.25.4-.38 1.56.04.6.27zm-.27-1.06c.37-.18.81-.67 0-.72.77-.34.72.38.77.71a.83.83 0 01-.8.02zm3.79 1.27c-.25 0-.17-.24-.51-.17-.11-.28.19-.28.24-.45.31 0 .48.13.51.35-.29-.02-.26.15-.27.29zm.45-2.94a3.3 3.3 0 002.27.5c.06.3-.21.38-.36.54a4.85 4.85 0 01-2.28-.85c-.42.06-.39.43-.36.8.37.18.91.23 1 .61-.22 0-.24-.07-.26-.18-.56 0-.6.4-1.25.37-.14-.13 0-.33.08-.53a.57.57 0 01-.33-.12c0-.2.25-.15.45-.08a.26.26 0 000-.07c-.39-.25-1.18-.6-.77-1.14-.18 0-.35 0-.37.1-.23-.26-.06-.44.11-.71.46 0 1.26.2 1.38-.2.2.18.28.46.63.53-.11-.22.23-.77-.26-.71 0-.19.61 0 .88-.1-.29.2 0 .34 0 .61.89-.19 1.3-.76 1.11-1.26.55.12 0 1.15.78 1.33a1.74 1.74 0 01-.24.54c-.48 0-.41-.35-.63-.52-.67 0-.67.31-1.14 0-.19 0-.09.28-.49.19zm2 4.14c0-.27.81-.22 1-.1-.08.33-.89.24-1.07.13zm1.05-4.9a.9.9 0 01.51.52c-.32.22-.43-.22-.88-.17-.2-.22.24-.15.3-.33zm.65 1.58c-.15.57.35.64.51 1-1.59.13-.92-1.86.11-1.25.07.33-.61.1-.69.28zm2.23 3.26c-.36 0-.72-.06-.79-.32.1-.18.72 0 .78-.18.19.07.04.47-.06.53zm17-2.83c.17-.26.63 0 .77.07-.2.24-.66-.03-.86-.04zm1.19 3.36c0-.29.67-.53 1-.29-.07.38-.88.14-1.09.32zm32.27-2.33c.1-.22.83-.23.75.16-.47.11-.37-.2-.75-.16zm2.29 1.74a1.25 1.25 0 01-.73-.6h-.06v-.16c0-.06 0-.13-.08-.19h.09a.43.43 0 01.35-.41.37.37 0 01.15.6c.27.2.46.49.27.76zm3.13-.66c0-.29.49-.25.87-.28.22.4-.69.47-.88.29zm2 1.3c-.47.07-.28-.34-.62-.34.2-.25.75.05.63.34zm.73-2.05c0-.26 0-.49.36-.45 0-.23-.47-.13-.63-.26v-.44c.42-.34 1.74-.14 1.39.33.2 0 .1-.28.5-.18.09.76-1 .76-1.61 1zm3.11-1.3c.46-.12 1.07-.15 1.51-.29.33.32-.23.63-.37.9-.61-.04-1.2-.08-1.13-.61zm1.08-3a1.57 1.57 0 01.76-.09c0 .3-.42.35-.75.45zm.83 4.35a1.08 1.08 0 01-.63-.08c.02-.21.75-.21.64.12zm.43-4c.52-.49 1.34.26 1.77.43-.37.44-1.37-.18-1.76-.39zm2.93 2.63c.33-.18 1.28 0 1.26.33-.58.05-.63-.32-1.25-.25zm1.61-1.18c-.31 0-.48-.12-.5-.36h.62c.03.19-.14.23-.1.39zm.66 1.68a.34.34 0 010-.53c.32 0 .48.12.51.34-.25.04-.15.28-.5.22zm.82-3.13c0-.31.1-.57.62-.54.19.19 0 .67-.6.58zm1.15 1.23a3 3 0 01-.88-.07c.11-.18.98-.3.89.11zm-.21 2.58c-.41-.15.14-.36.24-.45.55.14.01.35-.22.48zm1.08-2.86c.35 0 .68 0 .63.26-.27.03-.76.13-.61-.23zm1.06 3c0-.16.15-.19.12-.36.42-.07.21.33.5.35-.01.25-.53.1-.6.05zm.36-.63c0-.25 0-.44-.26-.52.11-.27.4 0 .63 0 .02.29.05.57-.35.56zm.23-1.24a2.92 2.92 0 00-.75-.25c0-.37.24-.6.74-.64 0 .08-.15.07-.25.1.13.42.79.42.28.82zm-.65-1.85c.58 0 .87.14.89.52-.14-.25-.89-.04-.87-.49zm1.88-.12h.5c.17.33-.67.45-.48.03zm.28 1.68c0-.27-.35-.29-.27-.62.31-.19 1-.09 1 .26s-.31.38-.71.39zm3-2.09c.29.12.78.08.76.44a.51.51 0 01-.76-.43zm4.66 1.35a.58.58 0 01.63-.28c.14.41-.39.48-.63.32zm1.28 1.31h.62c.2.51-.75.47-.62.04zm.92 2.21c.46 0 .83.12.76.52-.5.04-.86-.05-.76-.48zm-.14-.26c-.2-.65 1.11-.83 1.26-.29-.52.07-.63.38-1.26.33zm2.83-3.6a.48.48 0 00-.36.45c-.09.33.44.21.62.34a13.13 13.13 0 00-2.5.21c-.29-.25-.18-.39-.27-.89a17.41 17.41 0 011.75-.29c.38-.32.21-1 1.11-1 .11.48 0 .9.15 1.24-.2.05-.48.12-.5-.06zm3.47 4.3c.2.22.47.37.38.8a11.74 11.74 0 00-2.51-.06c1-.22 1.17-1.48 2.62-1.1-.09.22-.38.25-.49.4zm-.2-4.17c-.58 0-.94.66-1.51.19a2.3 2.3 0 012.12-.74c.08.87-.58 1.1-.6 1.7-.79-.17.25-.51-.01-1.11zm-.45 3.29a1.46 1.46 0 01-.76-.08c.38-.38.68-.57.62-1.07a1.06 1.06 0 00.62.07c-.06.44.41.48.77.61-.11.51-1.42-.23-1.25.51zm.61-1.35c-.08-.35.31-.37.36-.63.16 0 .2.16.38.18.04.38-.24.54-.74.5zm6-.72c.72-.75-.56-1-.77-1.58h.75c.21.66 1.27.69 1.28 1.49-.23.2-.82.11-1.25.14zm1.4 1.05c-.19-.15 0-.51.49-.45-.06.27-.09.51-.48.5zm.61-1.25v-.27a.61.61 0 01.89.34c-.29.27-.41-.11-.89-.02zm1.84-3c.52 0 .86.38.63.61-.58.16-.47-.29-.63-.52zm1.41 2.2c-.38-.15-1-.09-1.13-.42.74-.15 2.15.41 1.09.51zm1.5-.38c-.49 0-.62-.16-1.13-.07 0-.42.35-.59 1-.56.18.21.14.49.14.72zm3.13-.23c.12-.21.51-.24.88-.28-.02.38-.69.47-.87.37zm3.57-9.73c.94 0 .62-.45.67-.79a.83.83 0 01-.53-.29 1.92 1.92 0 01.86-.42 1.66 1.66 0 00.09-.18.32.32 0 01.21.11 5.29 5.29 0 01.71-.08c0 .42-.37.73-.83.83.09.38-.28.61-.4 1-.13-.07-.61.04-.77-.09zm4-1.13c-.08.27-.84.06-.87.37-.57-.19-.15-.9.48-.81a.61.61 0 01-.21-.25 5.8 5.8 0 01-1.67 0 1.58 1.58 0 011.63-.19c.28-.31 1.07-.31.93.29-.37-.18-.16.49-.24.71zm-1.62.38h.5c0 .32.08.7-.24.8-.46.13-.1-.47-.22-.71zm-.08 3c-.39 0-.54-.26-.87-.34s-.19.46-.62.46c-.05-1.38 2.15-1.38 2.67-.21a1.19 1.19 0 00-1.14.2zm1 .34c-.29-.39 1.44-1.28 1.62-.56-.72.13-.57.79-1.56.67zm2.6-2.08c.21-.72-.61-.7-.53-1.33-.39 0-.32.32-.63.1.34-.27-.1-.53-.14-.8.59-.21 1.12.3 1.88.24-.19.33-.61.69 0 .89-.15.38-.03.9-.52 1.01zm.15-13.09c-.4 0-.86 0-.79-.33.29.25.78.17.85.43zm0-12.23c.07.4-.44.39-.55.67-.34-.23.08-.78.64-.57zm-.05 17.44a.3.3 0 01-.11-.24c.07-.07.62-.2.67 0s-.27.26-.48.33zm1.09-2.91c.08-.51-.47-.54-.47-1 1.14-.57 1.84 1.04.55 1.09zm-.71-27a.57.57 0 01-.51.25c-.08-.25.17-.25.11-.48a.49.49 0 01-.09-.18c.43-.22.85.17 1 .42a1.61 1.61 0 01-.43.08zm.06.65c0 .29-.16.44-.56.42-.12-.3.27-.24.22-.5a.62.62 0 00.42.17zm-.33-5.94c.36 0 .63-.29.9-.1 0 .42-.21.66-.67.75.07-.17-.17-.27-.15-.56zm.7 1.31c-.18-.34.58 0 .56-.25.15 0 .1.21.12.33-.12.03-.58.17-.6 0zm.43-22.23a.38.38 0 00.1-.33c.3 0 .49 0 .46.24-.24.01-.21.2-.48.17zm.38 23.71c.13.32.43.44.24.82-.5 0-.61-.38-.57-.82zm1.32 18.83c.23.07.67 0 .57.32a1 1 0 00-.68 0c-.21-.06.06-.09.23-.09a.31.31 0 01-.04-.15zm-.31-12.39c-.32-.13 0-.45.11-.58.64.13.02.55-.03.65zM245.21 50c-.11-.41.11-.58.67-.5.07.38-.16.5-.67.5zm.48 8.92c0 .35-.2.56-.78.51a.77.77 0 01.78-.5zm.51 11c-.36.64-1.14.23-1.8.52.15-.42-.52-.21-.46-.57.71-.12 1.34.45 2.27.05zm-.13 12.56c.22.16.28 0 .57 0 0 .15.09.16.22.17-.08.29-.86.12-.79-.17zm.82-5.14c-.26-.06-.46-.4-.23-.57.44-.06.5.17.57.41-.09.06-.31.04-.34.16zm1.92.13c-.35.1-.28-.12-.45-.15-.45 0 0 .68-.32.83a.85.85 0 01-.79-.32c-.01-.59 1.33-1.08 1.56-.36zm-1.81-1c.11-.31-.29-.24-.24-.49.52-.17.83.46.24.45zm.07-1.91c-.23 0-.29-.05-.44-.08s.31.2.11.49c-.53 0-.81-.56-.69-.81.16.28.57 0 .56-.26.35 0 .4.14.79.07.04.27-.31.3-.34.56zm-.07-6.81c.28-.42 1.37.16.92.56-.4-.14-.54-.46-.92-.56zm.55 5.94c-.34 0 .1-.18 0-.33h.55c-.1.31-.53.25-.59.33zm.49-18.6c0-.11 0-.23-.12-.24.16-.23.62 0 .56.24zM247 50c.24 0 .3.05.45.08-.31.41.31.56.12.83-.45.09-.83-.5-.57-.91zm-.09 1.57c.38 0 .31.63-.23.5-.06-.3.15-.36.24-.51zm-.65 1.25c.57-.07.7.19 1 .31a1.38 1.38 0 001-1.17c.57.13.19.5.47.9-.72.23-1.24.59-1.11 1.42a2.79 2.79 0 00-1.57.11 6.79 6.79 0 00.22-1.59zm-1.61-23c-.53-1 .91-.75 1-1.25.28.06.36.28.57.41-.43.36-1.39.34-1.56.87zm1.93-5.9c-.1-.34.12-.47.34-.58.45.13.2.72-.34.66zm.11-1c-.11.17-.43.19-.79.18-.09-.28.54-.1.79-.1zm-1.13.27c.87.08.14 1.05.59 1.31a1.18 1.18 0 01-.68.09c0-.2.39-.16.33-.42s-.3-.22-.57-.24v-.53c.08-.07.31-.06.33-.17zm-.62 3.4a5.65 5.65 0 001-.1c.13-.27-.36-.06-.22-.32a4.58 4.58 0 001.57-.11c-.09.35.39.27.58.4a1.24 1.24 0 01-.22.84c-.32-.06-.29.11-.57.09 0-.28.19-.41.1-.75a3.82 3.82 0 00-.78.42c-.1.35.53.41.24.67-.79 0-.85-.48-.58-.9 0-.1-.2-.07-.34-.08-.33.08.15.21 0 .42-.37 0-.5.19-.9.18.04-.24-.06-.59.12-.72zm.14 1.32c.47 0 .7.19.68.57a2.32 2.32 0 00-1.24 0c.2-.13.37-.35.57-.54zm-.54 22.41c-.38-.08-.67-.22-.69-.56.32-.18 1 .31.7.59zm-.68-7.91c.06.35-.87.18-.76-.09.23.09.74-.07.76.12zm-.9-1.32a2.9 2.9 0 01-.88-.07c.14-.29.84-.3.92.1zm-.35-5.86c0 .23-.46.21-.62.1.01-.19.47-.19.62-.07zm.15 23.54c-.27 0-.25.16-.57.09.3-.5-.09-.69-.35-1 .48.23.92.42.93.94zm-3.06-47.95a.79.79 0 00.37.08c0 .32-.17.47-.62.46-.21-.11.06-.36.26-.5zm-1.19 1a.8.8 0 01-.34.5c-.31 0-.32-.19-.34-.41.35.09.34-.12.69-.07zm-.08 2.4c-.2 0-.24-.1-.45-.08a2.39 2.39 0 010-.82.68.68 0 01.46.93zM234 6.68c-.32 0-.49-.12-.5-.35h.62c.05.18-.12.23-.12.35zm-.32-1.62v-.25c.3 0 .37.11.34.32h-.34c-.18.18-.72.19-.71-.11a1.72 1.72 0 01.7.04zm-.4 3.94c-.37.26-1.2.19-1.27-.24.19-.54 1.25-.15 1.27.24zm-1.39-2.5c.41 0 .8.64.36.82-.17-.24-.17-.6-.36-.82zm-.06-1.82c.31-.22.61.07.88.16-.14.16-1.04.16-.88-.17zm0 2.73c.48.2-.28 1.06-.89.76.06-.44.7-.41.86-.77zm-.79.93c-.1.27-.52.35-.87.46-.25-.25.37-.68.83-.47zm-1.32.51c.18 0 .19.07.33.08.09.22-.16.21-.11.41-.32-.02-.25-.28-.25-.5zM228.41 3c.51.09.16.63-.11.71-.35-.12.06-.5.11-.71zm-2.06 2.38c.41.25.9.68 1.48.31.13.3.53.82 1 .57.29.74-.83-.2-1.34.19a.7.7 0 01-.49 1.19c.54-.88-.48-1.28-1-1.8-.17-.31.35-.19.36-.43zm-.93-2.29a.38.38 0 01.24.41c.35 0 .43-.19.67 0-.07.36-.28.13-.78.18-.33.22-.31.71-1 .68-.33-.54.71-.77.87-1.24zm-1.6 3.81a.76.76 0 01-.87.19c0-.29.27-.39.74-.37-.01.13.04.18.14.21zm-.72-5.51c.38 0 .38.63-.11.54-.27-.16.01-.36.12-.51zM220.83.3h.51c0 .59-.38.91-.23 1.6-.33 0-.38.27-.75.28-.29-.79.08-1.18.47-1.88zm-1.07 3.58a2.9 2.9 0 01.35-1.61c.56.31.14 1.42-.35 1.61zm-.68-3.2c.63 0 .81.24.77.71-.27.05-.36.22-.76.18-.19-.44-.34-.51-.01-.89zm-4.59 4c-.59-.17-.54-.8-.64-1.33.68.08.71.96.65 1.31zm-2.76-.14c.06.23-.56.42-.75.19s.5-.15.75-.2zm-2.91-1.46c-.07.28.25.27 0 .44-.4.08-.39-.13-.63-.17.1-.19.35-.26.63-.29zm-1-.34c0 .46-.3.67-.87.72a.87.87 0 01.86-.74zm-5.53-.8c.45 0 .48.51.26.71-.55-.03-.41-.49-.26-.73zm-1.29.8c.46 0 1 .36.64.69-.5-.03-1.13-.43-.64-.69zm.27 1.42c.51 0 .66-.31 1.13-.37.45.27.71.67 1.27.87a1.76 1.76 0 01-1.36 1.18c-.27-.14-.56-.55-1-.26.09.52.74.66 1 1h-1.14a.94.94 0 00-.77-.78c-.2-.31.36-.74.75-.64-.36-.08-.55-.47-.13-.62-.12-.52-.93-.52-1.27-.88.71-.23.87.52 1.56.49zm1.41 2h.62c.18.37-.69.38-.57.02zm-3-2.18c.31.27.71.5 1 .78-.42.15-.64.45-1.12.56-.72-.26.05-.84.12-1.32zm-3.9-.3c0 .42-.28.63-.87.64-.46-.37.31-.93.87-.62zm-2.4-.5c-.44.24-1.06 0-1-.43.35-.14 1.19-.05 1 .46zm-1.89-.41c.14.35.12.67-.62.63-.18-.26-.01-.64.63-.61zm-1.73 1.45c.31.07.54.19.51.52-.37.11-.42 0-.76-.07-.02-.21.2-.26.26-.43zm-1.13.46c-.8.07-.64-.55-.9-.88.77-.05 1.06.6.91.9zm-.36 1.25c-.31.22-.78.05-.63-.34.44-.03.73.03.64.36zm-.67-3.36c.22 0 .26.1.5.08v.55c-.67.17-.76-.38-.49-.61zm-1.46 3c.24-.17.31 0 .64 0 .11.32-.78.33-.64-.03zm-.77-1.42c.4.08.43.35.25.62a1.09 1.09 0 01-.63-.08c-.11-.36.31-.35.39-.57zm-1.43-3.2c.44 0 .62.42.39.62-.62.14-.61-.44-.39-.62zm-.75-.08a.58.58 0 01-.63.27V.88c.3-.01.38-.17.63-.01zm-2.37 1.55c.52-.08.65.13.63.44a1.08 1.08 0 01-.62.1c-.24-.16.1-.24-.01-.54zm-.06 3.74c.3 0 .39.13.63.16 0 .25-.59.23-.75.1a.36.36 0 00.12-.26zm-3.39 0c0 .33-.72.43-1 .28.13-.18.54-.23 1-.24zm-4.08-3.29c-.18.33-.53.56-1.23.52-.18-.53.94-.55 1.23-.48zm-2.75.64a.88.88 0 00.4-.1.41.41 0 01.46 0 .13.13 0 000 .05 1 1 0 00.21.1.28.28 0 01-.23.08.52.52 0 01-.08.3h-.62c.04-.16-.24-.14-.14-.39zm-.4-1a.33.33 0 010 .49c-.29 0-.58 0-.57-.24s.28-.2.57-.21zm-2.72-.87c.5 0 .14.58-.21.49.05-.13.26-.2.21-.45zm-1.54.69c-.17.14-.65.1-.62-.16.18-.11.74-.1.62.2zm-.57 3.21c0 .31-.1.58-.62.54-.35-.24-.05-.63.62-.5zM163 3.39c-.47.08-.43-.22-.64-.34 0-.16.15-.19.12-.37.44.05.72.51.52.71zm-.17-2.92a.92.92 0 01-1 .37c-.01-.36.47-.4 1-.37zm-1.72 2.33c0 .24-.59.22-.75.1.15-.23.43-.18.75-.1zm-2.38 0c0 .24-.76.41-1 .19-.08-.31.69-.07 1-.15zm-4.29-1.09c-.52.06-.6-.22-.63-.52.58-.07.95.29.64.56zM150.59 4c-.5-.17-.88-.45-.89-1 .59.15 1.52.59.89 1zm0 1.25c-.14.28-.22.6-.87.54-.16-.58.4-.85.89-.51zm-.26-.8c-.05.2-.66.08-.75 0s.67-.05.76.02zm-11.6-3.38c.33 0 .42.23.5.43a1 1 0 01-.62-.08c-.05-.15.1-.2.14-.33zm-23.6-.59c0 .29-.14.43-.49.45a.31.31 0 00-.25-.18c.06-.22.46-.21.74-.27zm-.77 3c.21.32 0 .85-.35.76-.01-.42.06-.78.35-.79zm-.57-3a.85.85 0 010 .76c-.29.11-.28-.2-.45-.25.1-.27.1-.64.44-.54zm-.58 2.89c-.06.41-.37.88-.71.52-.02-.54.32-.58.7-.55zm-.89-1.75c.36-.06.11.31.25.33 0 .26-.45 0-.41.35-.15 0-.18-.13-.33-.1.07-.56.59.17.48-.61zm-.92-.91a.62.62 0 01.34-.1.28.28 0 000 .06.74.74 0 000-.64c.44 0 .2.88.27 1.35-.27 0-.35.2-.66.11a1 1 0 00-.08-.37c-.05 0-.08 0-.11.13a.28.28 0 010-.33 1.22 1.22 0 01-.16-.77c.2.04.2.44.4.56zm-.71 1.43c0 .5-.16.68-.53.63.04-.41.14-.77.53-.64zm-3.11 0c.08.35-.12.32-.08.63-.33.1-.2-.48-.46-.5-.43-.06-.33.61-.7.64-.01-1.06.74-1.25 1.24-.73zM106 .2c-.11.48-.28.83-.79.76.04-.44.35-1.12.79-.76zm-1.4 1.53c0 .19-.13.32-.16.5-.23 0-.28-.19-.46-.24a.35.35 0 01.57-.26zm-1-.74c.22 0 .22.47.1.62-.11 0-.14-.22-.27-.25-.01-.15.11-.19.14-.36zm0 2.38c.37.27.87.35.9 1.12-.59.05-.61-.74-1.17-.74-.02-.28.26-.14.27-.37zm.49 3.13c-.13-.37 0-.86.35-.88.17.31.05.99-.35.89zM102.94.74a5.1 5.1 0 000 1.13c-.48-.08-.8-1.17 0-1.13zm-1.68.66c.32 0 .52.68.37 1-.2-.28-.54-.51-.37-.99zm-.21 3.9a3.43 3.43 0 01-.17.75.57.57 0 01-.28-.62.44.44 0 01.45-.13zM100 .17c.43 0 .51.51.28.87-.28.07-.37-.16-.45-.37s.17-.25.17-.5zm-1 .89c.36-.06.14.83-.17.63.17-.07.02-.59.17-.63zm-2 4.8c.08.67-.4.74-.61.39s.39-.36.67-.39zm-4.36-.3c.4 0 .37.65.37 1.25-.36-.02-.49-.72-.31-1.25zM91.63.91c0 .5-.48.32-.49.81-.25-.48.12-1.1.49-.81zm-1.31.18c.21.09.1.77-.17.62s.06-.45.17-.62zm-.6 1.5a.86.86 0 01-.07.9c-.22-.08-.2-.48-.28-.76.16.01.19-.16.35-.14zM83.39.94c0-.35-.09-.85.16-.88.42.38.55 1.17.83 1.75-.56.07-1-.46-1.52-.6-.09-.46.35-.21.53-.27zm-3.78 2.64c.06.28.08.64.25.79a.62.62 0 01-.48.46 2.37 2.37 0 01-.18-1c.25.06.15-.33.41-.25zm-6.34 1.57c-.2.1-.22.08-.58.11l.24-.68c.24.02.39.15.34.57zM72 5.74c.27.4.31 1.3.68 1.22-.51.27-1-.56-1.33-.88.08-.34.35-.39.65-.34zM71.54 5a1.07 1.07 0 01-.08.63c-.28 0-.2-.63.08-.63zm1.28-1.9c.19.33 0 .9-.05 1.24-.26 0-.23-.46-.58-.33.33-.11.31-.72.63-.88zM71.87.44a.47.47 0 01.42.1c-.09.35-.24.52-.5.35-.01-.2.1-.24.08-.45zm-.44 3.5a.35.35 0 00.33.11c-.14.33 0 1-.49.91-.09-.52.11-.68.16-1.02zm-1.64 1.15a.06.06 0 010 .12v.22C69.64 5 69.21 5 69 4.76c.34-.6.74.24.79.33zm-2.3 1.05c-.29 0-.34-.37-.34-.78.36-.08.33.37.34.78zm-3.15-.51c0 .21.19.27.18.55.38.1.39-.29.74-.23V7c-.32-.2-1.36-1-1.4.14-.41-.31.14-.77.14-1.14 0-.14-.48 0-.5-.44.4-.38.5.34.85.07zM63 4c.43.67.6 1.89 0 2.36-.31-.53-.32-1.46-.68-1.9.15-.24.24-.6.68-.46zM61.13.72c-.27 0-.34.21-.66.13V.07c.28.12.61.19.66.65zM60 3.22c.26-.1.12.36.26.45.38-.11.68-.42.83.21-.55.39-.92.14-1.32.36a3.82 3.82 0 01.7 2.13c-.26.06-.2-.34-.5-.22-.1.29-.34.79-.56.57 0-.49.5-.35.39-1-.47-.22-.8-.64-.77-1.57.49-.09.77-.82.97-.93zm-1.92-1.66c.49.05.6.33 1 0 0 .44.31.56.35 1-.47.21-.35-.43-.74-.32a8.17 8.17 0 01-.32.78c-.36-.23.13-1-.35-1.12a.62.62 0 00.06-.34zm-.37 2.71c.62-.05.67.61 1.16.43 0 .65-.15 1 .19 1.24-.76.38-1.79-.68-1.34-1.66zM46.85 1.75c.23 0 .45 0 .42.33H47c.14-.45 0 0-.24 0a.71.71 0 00.09-.33zm-.48 1c0-.4.32.27.33-.12.1 0 .07.21.09.33.11 0 .06-.28.08-.45.09 0 .07.2.08.34s.08-.05.08-.12a1.13 1.13 0 01-.56.9c-.28-.23-.05-.75-.1-.86zm.78 1.9c-.08.19-.26.25-.5.23v-.43c.28-.09.35.13.49.23zm-12-2.05c.2 0 .31-.19.58-.13.06.49.86.44.51 1.11-.37 0-.37-.47-.67-.55s-.09.32-.24.34c.16.27.45.36.35 1 .58 0 .81-.61 1.23 0a2 2 0 01-.15.8c-.35-.29-.34.19-.66.23a1.89 1.89 0 01-.67-.54c.1.5-.44.83-1 .8-.33-.3.16-1.13-.43-1.12a2.42 2.42 0 011.24-.7c.03-.5-.17-.69-.12-1.22zM33.77 6c-.19.06-.23-.08-.35-.11-.07-.34.17-.25.17-.5.2.01.2.31.18.61zm-1.43-2.11c.08.2.24.29.17.67.36.11.56.43 1.08.33-.14.55-.9.28-1 .91-.23-.44-.19-1.27-.61-1.45.02-.29.14-.44.36-.46zM31.82 3c0 .34-.28.28-.49.34-.05-.39.25-.34.49-.34zm-1.41-.65c.28-.08.3.39.18.56a.38.38 0 01-.18-.56zM30.22.56c.08.5-.35.33-.57.45V.57c.06-.11.51-.25.57-.01zm-.33 1.24h-.17v-.61c.28-.19.13.38.17.61zm.18 4.61c.17.56-.35.53-.49.34-.06-.4.23-.34.48-.34zm-.65-4.61s-.14.92-.49.92c-.23-.54.27-.64.48-.91zm-1 3.79c.42-.17 1-.55 1.08.36l-.18.13c.19 0-.07.69.16.67 0 .33-.14-.17-.26-.11-.07-.3.11-.29.07-.54-.4.28-.89.46-1.3.76v-.62c.38.08.52-.14.45-.64zM27 3.11c.25.2.56.29.54.87-.52.17-.66-.87-1-.24-.11 0-.08-.23-.09-.38.25.03.45-.04.55-.25zm-4.6 4.78c-.14-.31 0-.57-.18-.9.35-.12.28.71.18.9zm-12 7.16c.23 0 .21.46.1.63-.27-.01-.26-.47-.14-.63zM7.1 40.21c.05.63-.11 1-.44.77-.06-.54.01-.89.44-.77zm-1.28-7.76c.28.19.27 1.21-.16 1.13a1 1 0 01.16-1.13zm-.23 8.42c-.39-1 .76-.33 0 0zm.59 9.27c.06.65.3 1 .38 1.63-.62-.42-.94.33-1.24.26.01-.53.34-1.63.86-1.89zm-.92-19.82c.45-.07.3 1-.18.76-.01-.36.02-.64.18-.76zm-.08 18.33c-.13-.06-.23-.18-.36-.24s.08-.22.08-.38c.27-.03.29.26.28.62zm-.24-21.83c.15.64-.38.75-.61.5V27c.1-.22.37-.18.61-.18zm-.57 9.55c-.24 0-.31-.32-.37-.62.33-.09.36.25.37.62zM4 38c-.11.59-.71.49-.51 1.52-.21 0-.36.25-.54 0a1.69 1.69 0 01.35-1c-.13-.2-.09-.64-.28-.75 0-.57.56-.31.43-1 .55.1.08.91.55 1.23zM2.54 22.84c.25-.05.33.14.42.34a1 1 0 01-.57.92 10.83 10.83 0 00.15-1.26zm.37 2.6c-.25 0 0-.51-.42-.67.11-.29.52.34.83.32 0 .33.05.74-.07.9-.42-.28-.51.48-.73.8-.34 0-.32.15-.58 0a6 6 0 00.97-1.36zm-.76 11.21a.75.75 0 00-.8 0c0-.36-.06-.82.08-1a1.25 1.25 0 00.8.61c0 .1 0 .12-.09.13zm0 5.4c.21 0 .27.21.54.12-.11.45-.24.9-.61 1 .16-.36-.08-.9.06-1.17zm.15-7.79a.86.86 0 01-.52.89c-.34.07-.28-.44-.46-.61.12-.35.76-.43.98-.28zm-.94 2.52c.19.16.45.2.46.62-.28.41-.74-.21-.47-.61zM.25 58.28c-.24 0-.22-.59-.1-.75.25-.01.23.58.1.75zm.25 4.14c.23 0 .31.32.36.62-.32.08-.56-.34-.36-.62zm.78-.77a1.61 1.61 0 01-.63-1.13c.42.06 1.06.64.63 1.13zM2 57.87c-.22 0-.43 0-.53-.12-.01-.5.69-.54.53.12zm-.2-13.3c.19.35.62.38.89.61-.08 1.16-1.5.09-.86-.61zM3 41.15c.28.09.17.09.44 0 .08.77-.15 1.11-.69 1 .02-.43.34-.44.25-1zm.31 8.29v-.5c.31-.15.42.69.01.5zm.54 36c.39.21.58.69.64 1.38-.22-.42-.77-.38-.62-1.37zm1.29 3.13c-.3.1-.38-.14-.53-.25.06-.44.58-.16.54.26zm-.23 2.5c-.24-.11-.21-.63-.28-1 .2-.28.54 0 .71.12-.1.35-.34.49-.41.9zM5 84.19a1.18 1.18 0 01.72 1.23c-.58.01-1.34-.42-.72-1.23zm.13-26.62c.33 0 .32.49.37.88h-.45c-.05-.45.14-.45.08-.88zm.23-2.38c0-.5-.2-.65-.28-1 .1-.34.37-.47.61-.64.1.39 0 .93.11 1.52-.25-.13-.22.16-.44.12zm.73 13.29c-.36-.23-.32-.86-.11-1.26.02.31.29.78.11 1.26zm.1-10.93c.13-.45-.36-1 .07-1.13 0 .42 0 .89.28.88 0 .11-.08.23-.18.26zm.77 33a1.42 1.42 0 01-.55-.87c.4-.03.69.55.59.88zM7 54.4c-.08.08-.13.36-.18.13-.2.1.13.48.28.5-.37.19-.23 1.07-.78 1a2.26 2.26 0 01.24-1.89c-.11-.38-.33.19-.45-.12-.09-.74.28-.84.52-1.13.22 0 .22.46.1.62a.58.58 0 01.39.09v-8.37C7 45.15 7 44.94 6.81 45c-.47.29-.57 1.1-.86 1.64.1.34.43.81.2 1.25-.36 0-.31-.58-.55-.74a2.55 2.55 0 00.25-1.27c.11-.12.32-.13.44-.26a3.68 3.68 0 010-1.38c.45.1.54.43.88.45v-7c-.24 0-.34-.44-.2-.82a.19.19 0 01.2.08v-6.38a23.46 23.46 0 0116-22.2.62.62 0 00-.12-.37c.14-.44.26.09.51.11s.8-.45 1.23-.47a1.18 1.18 0 00.07.23 23.3 23.3 0 013.91-.63c.58 0 1.16-.07 1.76-.07h17.42v-.24c.16-.15.49-.08.49-.46.53 0 .79.1 1.15-.24-.09-.9.25-1.15.05-1.91.22-.27.39-.2.91-.24a2.68 2.68 0 00.76 1.34 1.32 1.32 0 01-.74.13c0-.63-.3-.74-.51-1a.63.63 0 00.42 1c-.09.61.09 1.08 0 1.63H51a.4.4 0 00-.4-.18c.38-1.06 1.75.72 2.14-.71 0-.4-.16-.53-.18-.89.54.28.27 1.13.44 1.78h20.14L73 7a.61.61 0 00-.19 0c0-.48.35-.56.39-1a.87.87 0 01.67 1.21h3.55a1.83 1.83 0 01.34-.61c.13.06.21.16.33.23a.58.58 0 010 .39h1.33c-.22-.09-.43-.79 0-.75.2.26 0 .36 0 .75h1.06c0-.71-.2-1.68.6-1.65a3 3 0 01-.24 1.39c.12.24.54.06.71.24h.41a.44.44 0 010-.15c.54 0 .49-.81 1.15-.65a.85.85 0 010 .81h18.1c.13-.25.32-.41.52-.22a.64.64 0 01-.08.22h.8a.8.8 0 00.26-.49c0-.47-.74-.65-.55-1.5.41.62.85.28 1.34.35a3.35 3.35 0 00-.5 1.64h35.42a.41.41 0 01.56-.1l-.08.1h29.57a1.19 1.19 0 01.27 0h49.71a23.27 23.27 0 0111.48 3 2.93 2.93 0 01.62 0 .2.2 0 01-.07.27 23.43 23.43 0 0111.4 20.1V60a1.59 1.59 0 00.81 0c0-.23-.2-.34-.56-.32.11-.38.63-.48 1-.67 0 .26-.35.24-.21.58 0 .17.49 0 .56.16a2 2 0 00.09-1.58c.41.09.64.44 1.13.23-.09.26-.44.34-.44.67.19.44.75.6.92 1.06-.42.22-.82.45-.89.93-.2 0-.24-.1-.44-.08 0-.34-.26-.77-1-.73 0 .28.5.13.34.49a4.94 4.94 0 01-1.27 0v18A23.3 23.3 0 01237 92.78l.1.06-.32.22c-.39.5-.79 1-1.22 1.46h.31c0 .41.33.29.14.71.27.19.89.13.89.52-.69-.06-.61.41-1.26.37-.15-.18-.16-.47-.51-.52-.52.06-.37.57-1 .55a.48.48 0 01-.1-.14 23.52 23.52 0 01-5.59 3.79.55.55 0 01.37.61c-.42 0-.44-.28-.89-.26a.25.25 0 010-.13q-1 .46-2.07.83c.41 0 .85.28.82.65a2.15 2.15 0 01-1.51-.25.51.51 0 01.11-.21 23.34 23.34 0 01-7 1.08h-.26c.05.1.06.24.16.31 1.17-.23 1.62 1.16 3 .76.46.22.11.81.65.78a.11.11 0 01-.06.11.22.22 0 01-.05.29c-.17 0-.21-.09-.23-.21s-.28 0-.28.18c-.12-.15-.34-.22-.76-.17.11-.13.4-.14.63-.19-.14-.31-.47-.49-1.13-.42-.35-.71-2-.86-2.23-1.43h-1.21a1.34 1.34 0 00-.23.16.35.35 0 01-.11-.16h-3.75a.24.24 0 000 .22 1.36 1.36 0 00.88.25c0 .26.24.37.27.63-.45 0-.44.4-1 .37-.14-.33.31-.25.24-.54-.09-.53-.78-.55-1.4-.59a.21.21 0 010 .19 4.65 4.65 0 01-.46-.25.64.64 0 01-.42-.26h-2.93a.21.21 0 01.1.2 1.94 1.94 0 01-.88.1c0-.13.06-.24.21-.3H124a2.26 2.26 0 00.86.65c0 .15-.22.2-.5.19-.06.43.52.4.63.7-.27.19-.6-.09-1.12 0-.33-.44.24-1-.27-1.24a1.18 1.18 0 01-1.38-.16c-.16.3-.83.26-.75.72a6.79 6.79 0 00-3 .58c-.3-.17-1 0-1.14-.34a6.09 6.09 0 002.62-1v-.1h-3.31a2 2 0 01-.91.25.29.29 0 00-.08-.25h-.88a1.06 1.06 0 01-.29.5c0 .47.4.34.34.9.56.26.86-.24 1.16 0-.32.66.24 1.4.6 1.8 0 .24-.35.05-.49.11 0-1-.86-.78-1.09-1.44-.59 0-.68.73-1.06 1 0 .15.21.09.33.12 0 .49-.13.71-.4.79-.5-.94-1.31-1.81-1.2-3.25-.15 0-.18.2-.16.45-.36-.44-1.41.08-1.65-.52a2.59 2.59 0 00-.64 1.46c0 .29.31.18.42.33a1.54 1.54 0 01-.16.8c-.37-.09-.49.15-.82.12-.2-.61.21-1.13.3-1.69 0-.35-.24-.43-.34-.67a1.45 1.45 0 00.25-.8h-.37a.24.24 0 00-.05.13.33.33 0 01-.24-.13h-7a1 1 0 01.31 1c-.55.08-.75-.35-.76-1H63.22c0 .24.08.53.19.91-.12.19-.42.41-.62.14 0-.5.05-.79.07-1.05h-10.7c0 .19-.1.44-.24.39a.41.41 0 01.07-.39H30.57a23.3 23.3 0 01-9-1.81.82.82 0 01-.57.65 2.41 2.41 0 01.16-.83q-1.05-.46-2-1L19 99.1a23.58 23.58 0 01-9.2-9.55c0 .23-.11.42-.27.34-.19-.29 0-.51.08-.72a23.28 23.28 0 01-2.46-10.44V54.46A.4.4 0 007 54.4zm108.28 48.72c-.2-.13-.08-.84.16-.75.13.42-.04.52-.12.74zM7.87 91.92a.65.65 0 01-.54-.36c.08-.56.67-.36.54.36z"/><path class="cls-1" d="M214.16 109.31h.21c.06 0 .11 0 0-.15-.21-.07-.15.08-.21.15zM120.64 109.31H122a2.41 2.41 0 00-1.36 0z"/></g></g></svg>