<?xml version="1.0" encoding="utf-8"?>
<!-- Generator: Adobe Illustrator 21.1.0, SVG Export Plug-In . SVG Version: 6.00 Build 0)  -->
<svg version="1.1" id="Layer_1" xmlns="http://www.w3.org/2000/svg" xmlns:xlink="http://www.w3.org/1999/xlink" x="0px" y="0px"
	 viewBox="0 0 32.7 32.7" style="enable-background:new 0 0 32.7 32.7;" xml:space="preserve">
<style type="text/css">
	.st0{fill:#D62B1F;}
</style>
<title>arrow</title>
<g>
	<path class="st0" d="M19.8,6.5c0.3-0.1,0.6-0.1,1,0c0,0,0,0,0,0l0,0c0.3,0.1,0.6,0.3,0.9,0.5c0.3,0.2,0.6,0.3,0.9,0.5
		c0.3,0.2,0.6,0.4,0.8,0.6c0.3,0.2,0.5,0.4,0.7,0.7c1.1,1.1,1.8,2.3,2.4,3.6c0.6,1.3,0.8,2.8,0.8,4.2c0,1.4-0.3,2.9-0.8,4.2
		c-0.5,1.3-1.3,2.5-2.4,3.6c-0.5,0.5-1.1,1-1.7,1.4c-0.6,0.4-1.2,0.7-1.9,1c-0.7,0.3-1.4,0.5-2.1,0.6c-0.7,0.1-1.4,0.2-2.1,0.2
		c-1.4,0-2.9-0.3-4.2-0.8c-1.3-0.5-2.5-1.3-3.6-2.4c-1.1-1.1-1.8-2.3-2.4-3.6c-0.6-1.3-0.8-2.8-0.8-4.2c0-1.4,0.3-2.9,0.8-4.2
		c0.5-1.3,1.3-2.5,2.4-3.6C8.8,8.6,9,8.4,9.3,8.2c0.3-0.2,0.5-0.4,0.8-0.6C10.4,7.4,10.7,7.2,11,7c0.3-0.2,0.6-0.3,0.9-0.4
		c0,0,0,0,0,0c0.3-0.1,0.7-0.1,1,0c0.3,0.1,0.6,0.3,0.7,0.7c0,0,0,0,0,0c0.1,0.3,0.1,0.7,0,1c-0.1,0.3-0.3,0.6-0.7,0.7c0,0,0,0,0,0
		c-0.2,0.1-0.5,0.2-0.7,0.3c-0.2,0.1-0.4,0.3-0.7,0.4c-0.2,0.1-0.4,0.3-0.6,0.5c-0.2,0.2-0.4,0.3-0.6,0.5c-0.8,0.8-1.4,1.7-1.8,2.7
		c-0.4,1-0.6,2.1-0.6,3.2c0,1.1,0.2,2.2,0.6,3.2c0.4,1,1,1.9,1.8,2.7s1.7,1.4,2.7,1.8c1,0.4,2.1,0.6,3.2,0.6c0.6,0,1.1-0.1,1.6-0.2
		c0.5-0.1,1.1-0.3,1.6-0.5c0.5-0.2,1-0.5,1.4-0.8c0.4-0.3,0.9-0.6,1.3-1.1c0.8-0.8,1.4-1.7,1.8-2.7c0.4-1,0.6-2.1,0.6-3.2
		c0-1.1-0.2-2.2-0.6-3.2c-0.4-1-1-1.9-1.8-2.7c-0.2-0.2-0.4-0.4-0.6-0.5c-0.2-0.2-0.4-0.3-0.6-0.5c-0.2-0.1-0.4-0.3-0.7-0.4
		C20.2,9.2,20,9,19.8,8.9c0,0,0,0,0,0l0.2-0.3l-0.2,0.3c-0.3-0.1-0.6-0.4-0.7-0.7c-0.1-0.3-0.1-0.6,0-1c0,0,0,0,0,0l0.3,0.2
		l-0.3-0.2C19.2,6.9,19.5,6.7,19.8,6.5z"/>
	<path class="st0" d="M17.3,4c0.2,0.2,0.4,0.6,0.4,0.9v12.4c0,0.4-0.1,0.7-0.4,0.9c-0.2,0.2-0.6,0.4-0.9,0.4c-0.4,0-0.7-0.1-0.9-0.4
		C15.2,18,15,17.7,15,17.3V4.9c0-0.4,0.1-0.7,0.4-0.9c0.2-0.2,0.6-0.4,0.9-0.4C16.7,3.6,17,3.7,17.3,4z"/>
</g>
</svg>
