<svg xmlns="http://www.w3.org/2000/svg" viewBox="0 0 40.29 40.33"><defs><style>.cls-1{fill:#d62b1f;}.cls-2{fill:#fff;}</style></defs><title>inserate zulassen</title><g id="Layer_2" data-name="Layer 2"><g id="Layer_1-2" data-name="Layer 1"><path class="cls-1" d="M8.29,0H32a8.29,8.29,0,0,1,8.29,8.29h0V32a8.28,8.28,0,0,1-8.23,8.33H8.28A8.28,8.28,0,0,1,0,32.05S0,32,0,32V8.29A8.29,8.29,0,0,1,8.29,0Z"/><path class="cls-2" d="M26.56,15.57a1.53,1.53,0,0,0-2.16,0l-6.13,6-2.35-2.29a1.53,1.53,0,1,0-2.14,2.19l3.42,3.34a1.53,1.53,0,0,0,2.14,0l7.19-7A1.53,1.53,0,0,0,26.56,15.57Z"/><path class="cls-2" d="M33.38,17A13.58,13.58,0,0,0,8.85,12.64a1.16,1.16,0,0,0,1.92,1.28A11.27,11.27,0,0,1,31,17h-2.2l3.48,6,3.44-6Z"/><path class="cls-2" d="M31.16,26.08a1.16,1.16,0,0,0-1.6.32,11.27,11.27,0,0,1-20.21-3.1h2.2l-3.48-6-3.44,6H7a13.59,13.59,0,0,0,24.52,4.37A1.15,1.15,0,0,0,31.16,26.08Z"/></g></g></svg>