<svg height="60px" viewBox="-44 0 488 488.3" width="60px" xmlns="http://www.w3.org/2000/svg"><path d="m51.878906 27.828125c5.210938 0 9.429688 4.222656 9.429688 9.433594 0 5.207031-4.21875 9.429687-9.429688 9.429687-5.207031 0-9.429687-4.222656-9.429687-9.429687.003906-5.207031 4.222656-9.429688 9.429687-9.433594zm0 0" fill="#6fe3ff"/><g fill="#edb288"><path d="m315.371094 131.800781-38.972656-16.472656c-1.746094-8.375-6.167969-15.960937-12.597657-21.609375l-2.320312-2.027344 23.660156-4.351562 115.007813 43.75c-8.101563 17.398437-28.722657 24.996094-46.179688 17.019531zm0 0"/><path d="m315.371094 131.800781 58.890625 73.589844c-16.996094 8.894531-37.878907 4.894531-50.382813-9.652344l-35.300781-41.046875-6.199219-7.101562-5.800781-31.378906c-.046875-.289063-.109375-.589844-.179687-.882813zm0 0"/><path d="m369.28125 37.261719c3.003906 18.957031-9.867188 36.785156-28.8125 39.898437l-55.328125 10.179688-23.660156 4.351562-28.242188-24.78125zm0 0"/></g><path d="m329.359375 488.300781h-220c0-60.753906 49.25-110 110-110s110 49.246094 110 110zm0 0" fill="#e48e66"/><path d="m282.378906 147.589844 19.28125 104.238281c-21.152344-5.636719-37.460937-22.492187-42.398437-43.816406l-11.523438-49.722657c-4.269531-18.476562-20.722656-31.566406-39.6875-31.578124-.769531 0-1.539062.027343-2.320312.070312-14.046875.785156-26.691407 8.761719-33.449219 21.097656-2.332031 11.980469-4.179688 24.042969-5.550781 36.179688l-4.300781 38.152344c-2.582032 22.914062-21.113282 40.746093-44.109376 42.449218l8.640626-88.71875c-20.390626-.390625-39.144532-11.230468-49.660157-28.703125l-.050781-.066406-18.679688-2.292969-1.851562-.367187 19.910156-99.589844.882813.179687h25.417969l2.351562-.761718c4.859375-1.558594 9.933594-2.355469 15.039062-2.359375 2.984376-.003907 5.964844.273437 8.898438.820312l87.070312 16.089844c6.289063 1.039063 12.160157 3.816406 16.949219 8.019531l28.242188 24.78125 2.320312 2.027344c6.429688 5.648438 10.851563 13.234375 12.597657 21.609375.070312.292969.132812.59375.179687.882813zm0 0" fill="#f7caa5"/><path d="m282.269531 282.191406c.035157 22.828125-12.003906 43.976563-31.648437 55.609375-25.230469 14.980469-57.382813 11.097657-78.320313-9.457031s-25.414062-52.632812-10.898437-78.132812c14.511718-25.5 44.375-38.035157 72.742187-30.53125 28.363281 7.507812 48.121094 33.167968 48.125 62.511718zm0 0" fill="#e48e66"/><path d="m83.589844 10.101562-6.960938 34.820313-19.910156 99.589844-6.027344 30.160156-50.542968-10.101563 32.902343-164.570312zm-22.269532 27.160157c.003907-5.210938-4.21875-9.4375-9.429687-9.441407-5.210937-.003906-9.4375 4.21875-9.441406 9.429688-.003907 5.210938 4.21875 9.4375 9.429687 9.441406 5.210938 0 9.4375-4.222656 9.441406-9.429687zm0 0" fill="#f8ec7d"/></svg>