<svg xmlns="http://www.w3.org/2000/svg" viewBox="0 0 40.29 40.33"><defs><style>.cls-1{fill:#d62b1f;}.cls-2{fill:#fff;}</style></defs><title>business accounts</title><g id="Layer_2" data-name="Layer 2"><g id="Layer_1-2" data-name="Layer 1"><path class="cls-1" d="M8.29,0H32a8.29,8.29,0,0,1,8.29,8.29h0V32a8.28,8.28,0,0,1-8.23,8.33H8.28A8.28,8.28,0,0,1,0,32.05S0,32,0,32V8.29A8.29,8.29,0,0,1,8.29,0Z"/><circle class="cls-2" cx="20.17" cy="10.33" r="5.64"/><path class="cls-2" d="M33.73,18.32a1.9,1.9,0,0,0-2.68,0l-7.59,7.43-2.91-2.84a1.9,1.9,0,1,0-2.65,2.71l4.23,4.14a1.89,1.89,0,0,0,2.65,0L33.71,21A1.9,1.9,0,0,0,33.73,18.32Z"/><path class="cls-2" d="M20.55,22.88a1.9,1.9,0,1,0-2.65,2.71l4.23,4.14a1.9,1.9,0,0,0,2.65,0L31,23.62a12.83,12.83,0,0,0-2.46-2.9l-5.11,5Z"/><path class="cls-2" d="M26.19,31.16a3.9,3.9,0,0,1-5.45,0L16.5,27a3.9,3.9,0,1,1,5.44-5.57l1.51,1.48,3.49-3.41A12.77,12.77,0,0,0,7.38,30.34c0,7.06,25.57,7.06,25.57,0a12.74,12.74,0,0,0-1-4.86Z"/></g></g></svg>