<svg xmlns="http://www.w3.org/2000/svg" viewBox="0 0 40.33 40.33"><defs><style>.cls-1{fill:#d62b1f;}.cls-2{fill:#fff;}</style></defs><title>contact us</title><g id="Layer_2" data-name="Layer 2"><g id="Layer_1-2" data-name="Layer 1"><path class="cls-1" d="M8.29,0H32a8.29,8.29,0,0,1,8.29,8.29V32A8.28,8.28,0,0,1,32,40.33H8.28A8.28,8.28,0,0,1,0,32V8.29A8.29,8.29,0,0,1,8.29,0Z"/><path class="cls-2" d="M27.63,8.1,26.07,6.54A13.32,13.32,0,0,0,23.5,4.47,10.63,10.63,0,0,0,21.13,3.4,6.63,6.63,0,0,0,19,3.11a8.2,8.2,0,0,0-1.85.27,8.55,8.55,0,0,0-3.62,2.09,8.62,8.62,0,0,0-2.11,3.64,7.71,7.71,0,0,0-.25,1.83c0,.17,0,.35,0,.53h-.53a8.21,8.21,0,0,0-1.85.27,8.56,8.56,0,0,0-3.62,2.09,8.62,8.62,0,0,0-2.11,3.64,7.71,7.71,0,0,0-.25,1.83,7.17,7.17,0,0,0,.29,2.13,9.58,9.58,0,0,0,1.07,2.37,13.92,13.92,0,0,0,2.08,2.56L7.82,27.9l.25.25,3.77-2.44-.91-.91h0L9.37,23.24A14.88,14.88,0,0,1,8.29,22a4.18,4.18,0,0,1-.75-1.39,2.92,2.92,0,0,1,0-1.58,4,4,0,0,1,1.15-1.78,4,4,0,0,1,1.78-1.15,2.93,2.93,0,0,1,1.58,0,4.2,4.2,0,0,1,1.39.75l.3.25h3.17V14l-.23-.27a4.18,4.18,0,0,1-.75-1.39,2.92,2.92,0,0,1,0-1.58A4,4,0,0,1,17,8.93a4,4,0,0,1,1.78-1.15,2.93,2.93,0,0,1,1.58,0,4.2,4.2,0,0,1,1.39.75A15.1,15.1,0,0,1,23,9.64L28.36,15l3.77-2.44Z"/><polygon class="cls-2" points="21.79 18.82 21.79 15.06 18.52 15.06 18.52 18.82 14.78 18.82 14.78 22.09 18.52 22.09 18.52 25.82 21.79 25.82 21.79 22.09 25.56 22.09 25.56 18.82 21.79 18.82"/><path class="cls-2" d="M33.84,15.37a12.61,12.61,0,0,1,1.67,2.12,8.89,8.89,0,0,1,1,2.18,6.46,6.46,0,0,1,.27,1.9,7,7,0,0,1-.23,1.66,7.38,7.38,0,0,1-5.2,5.2,7.5,7.5,0,0,1-1.68.24h-.46l-.84,0,.05.84c0,.16,0,.31,0,.46a7,7,0,0,1-.23,1.66,7.38,7.38,0,0,1-5.2,5.2A7.49,7.49,0,0,1,21.3,37h-.18a6.07,6.07,0,0,1-1.71-.27,9.93,9.93,0,0,1-2.2-1,12.63,12.63,0,0,1-2.42-1.95l-1.56-1.56-2.17-2.17,2.49-1.61,3.29,3.29a15.91,15.91,0,0,0,1.27,1.14,5,5,0,0,0,1.64.88,3.49,3.49,0,0,0,1,.15,4,4,0,0,0,.94-.12,4.66,4.66,0,0,0,2.14-1.34,4.65,4.65,0,0,0,1.34-2.14,3.67,3.67,0,0,0,0-2,4.94,4.94,0,0,0-.88-1.63l-.09-.11V24.49h2.19l.08.06a5,5,0,0,0,1.64.88,3.48,3.48,0,0,0,1,.15,4,4,0,0,0,.94-.12,4.66,4.66,0,0,0,2.14-1.34A4.65,4.65,0,0,0,33.55,22a3.67,3.67,0,0,0,0-2,4.94,4.94,0,0,0-.88-1.63,15.7,15.7,0,0,0-1.14-1.27L31.36,17l2.48-1.6m.11-1-3.77,2.44.8.8A14.86,14.86,0,0,1,32,18.85a4.18,4.18,0,0,1,.75,1.39,2.92,2.92,0,0,1,0,1.58,4,4,0,0,1-1.15,1.78,4,4,0,0,1-1.78,1.15,3.26,3.26,0,0,1-.77.1,2.72,2.72,0,0,1-.81-.12A4.2,4.2,0,0,1,26.93,24l-.27-.23H23.44v3.17l.25.3a4.18,4.18,0,0,1,.75,1.39,2.92,2.92,0,0,1,0,1.58A4,4,0,0,1,23.33,32a4,4,0,0,1-1.78,1.15,3.27,3.27,0,0,1-.77.1,2.73,2.73,0,0,1-.81-.12,4.2,4.2,0,0,1-1.39-.75,15.09,15.09,0,0,1-1.21-1.08l-3.72-3.72L9.88,30l2.83,2.83,1.56,1.56a13.32,13.32,0,0,0,2.57,2.06,10.62,10.62,0,0,0,2.37,1.07,6.78,6.78,0,0,0,1.92.3h.21a8.2,8.2,0,0,0,1.85-.27,8.55,8.55,0,0,0,3.62-2.09,8.62,8.62,0,0,0,2.11-3.64,7.71,7.71,0,0,0,.25-1.83c0-.17,0-.35,0-.53h.53a8.21,8.21,0,0,0,1.85-.27,8.14,8.14,0,0,0,5.73-5.73,7.71,7.71,0,0,0,.25-1.83,7.17,7.17,0,0,0-.29-2.13,9.58,9.58,0,0,0-1.07-2.37,13.92,13.92,0,0,0-2.08-2.56l-.13-.13Z"/></g></g></svg>