<svg xmlns="http://www.w3.org/2000/svg" viewBox="0 0 40.33 40.33"><defs><style>.cls-1{fill:#d62b1f;}.cls-2{fill:#fff;}</style></defs><title>credits</title><g id="Layer_2" data-name="Layer 2"><g id="Layer_1-2" data-name="Layer 1"><path class="cls-1" d="M8.29,0H32a8.29,8.29,0,0,1,8.29,8.29V32A8.28,8.28,0,0,1,32,40.33H8.28A8.28,8.28,0,0,1,0,32V8.29A8.29,8.29,0,0,1,8.29,0Z"/><path class="cls-2" d="M18.64,15.18l-2.33.18a4.41,4.41,0,0,0-.88-2,3.1,3.1,0,0,0-2.34-1,3.22,3.22,0,0,0-2,.62,5.33,5.33,0,0,0-1.74,2.35,12.3,12.3,0,0,0-.66,4.41,5.43,5.43,0,0,1,2.07-1.91,5.56,5.56,0,0,1,2.56-.62,5.31,5.31,0,0,1,4,1.72A6.19,6.19,0,0,1,19,23.39a7.33,7.33,0,0,1-.77,3.34,5.64,5.64,0,0,1-2.13,2.36A5.81,5.81,0,0,1,13,29.9a6,6,0,0,1-4.77-2.15q-1.85-2.15-1.85-7.1,0-5.53,2-8a5.87,5.87,0,0,1,4.8-2.18,5.39,5.39,0,0,1,3.69,1.26A5.36,5.36,0,0,1,18.64,15.18ZM9.08,23.4a5.43,5.43,0,0,0,.51,2.32A3.83,3.83,0,0,0,11,27.4,3.59,3.59,0,0,0,13,28a3.3,3.3,0,0,0,2.55-1.2,4.71,4.71,0,0,0,1.07-3.25,4.41,4.41,0,0,0-1.05-3.12,3.46,3.46,0,0,0-2.65-1.14,3.61,3.61,0,0,0-2.69,1.14A4.1,4.1,0,0,0,9.08,23.4Z"/><path class="cls-2" d="M21.3,24.58l2.46-.21A4.41,4.41,0,0,0,25,27.07a3.44,3.44,0,0,0,2.4.9,3.74,3.74,0,0,0,2.86-1.27,4.8,4.8,0,0,0,1.17-3.38,4.34,4.34,0,0,0-1.13-3.16A3.92,3.92,0,0,0,27.39,19a4.08,4.08,0,0,0-2,.51,4,4,0,0,0-1.43,1.33l-2.2-.29,1.85-9.79H33V13H25.44l-1,5.12a6.2,6.2,0,0,1,3.6-1.2,5.71,5.71,0,0,1,4.21,1.73,6,6,0,0,1,1.72,4.45,6.94,6.94,0,0,1-1.51,4.47,6,6,0,0,1-5,2.31,6.17,6.17,0,0,1-4.25-1.46A5.68,5.68,0,0,1,21.3,24.58Z"/></g></g></svg>