<svg xmlns="http://www.w3.org/2000/svg" viewBox="0 0 40.33 40.33"><defs><style>.cls-1{fill:#d62b1f;}.cls-2{fill:#fff;}</style></defs><title>update info</title><g id="Layer_2" data-name="Layer 2"><g id="Layer_1-2" data-name="Layer 1"><path class="cls-1" d="M8.29,0H32a8.29,8.29,0,0,1,8.29,8.29V32A8.28,8.28,0,0,1,32,40.33H8.28A8.28,8.28,0,0,1,0,32V8.29A8.29,8.29,0,0,1,8.29,0Z"/><circle class="cls-2" cx="29.42" cy="11.53" r="3.25"/><circle class="cls-2" cx="11.05" cy="11.53" r="3.25"/><circle class="cls-2" cx="20.17" cy="12.61" r="4.33"/><path class="cls-2" d="M16.09,17.69A7.36,7.36,0,0,0,3.69,23.05c0,1.63,2.37,2.61,5.21,2.93A11.56,11.56,0,0,1,16.09,17.69Z"/><path class="cls-2" d="M29.42,15.69a7.34,7.34,0,0,0-5.08,2A11.56,11.56,0,0,1,31.43,26c2.9-.31,5.35-1.29,5.35-2.95A7.36,7.36,0,0,0,29.42,15.69Z"/><path class="cls-2" d="M30,28c0,5.42-19.65,5.42-19.65,0A9.82,9.82,0,1,1,30,28Z"/></g></g></svg>