<svg xmlns="http://www.w3.org/2000/svg" viewBox="0 0 54.68 54.68"><defs><style>.cls-1{fill:#d62b1f;}.cls-2{fill:#fff;}</style></defs><title>add photo</title><g id="Layer_2" data-name="Layer 2"><g id="Layer_1-2" data-name="Layer 1"><rect class="cls-1" width="54.68" height="54.68" rx="11.23" ry="11.23"/><path class="cls-2" d="M42.36,23.67h-5.2a5.56,5.56,0,0,0-5.55-5.55H27.79a5.56,5.56,0,0,0-5.55,5.55H17a5.92,5.92,0,0,0-5.9,5.9V42.22a5.92,5.92,0,0,0,5.9,5.9H42.36a5.92,5.92,0,0,0,5.9-5.9V29.58A5.92,5.92,0,0,0,42.36,23.67ZM29.7,41.88a6,6,0,1,1,6-6A6,6,0,0,1,29.7,41.88Z"/><polygon class="cls-2" points="14.48 9.44 14.48 3.56 9.8 3.56 9.8 9.44 3.93 9.44 3.93 14.12 9.8 14.12 9.8 19.97 14.48 19.97 14.48 14.12 20.38 14.12 20.38 9.44 14.48 9.44"/></g></g></svg>