<svg xmlns="http://www.w3.org/2000/svg" viewBox="0 0 35.28 35.28"><defs><style>.cls-1{fill:#d62e27;}</style></defs><title>facebook</title><g id="Layer_2" data-name="Layer 2"><g id="Layer_1-2" data-name="Layer 1"><path class="cls-1" d="M17.64,0A17.64,17.64,0,1,0,35.28,17.64,17.64,17.64,0,0,0,17.64,0Zm5.78,10.29h-.28c-.69,0-1.37,0-2.06,0-.94,0-1.64.39-1.67,1.57,0,.86,0,2.83,0,2.83h3.93c-.18,1.37-.35,2.68-.52,4H19.4v10H15.25v-10h-3.4v-4h3.42v-.3c0-.8,0-1.6,0-2.4a10.45,10.45,0,0,1,.12-1.53,4.46,4.46,0,0,1,1.79-3,5.18,5.18,0,0,1,3-.92c.7,0,1.41,0,2.11.05.38,0,.77.07,1.13.11Z"/></g></g></svg>