<svg xmlns="http://www.w3.org/2000/svg" viewBox="0 0 35.28 35.28"><defs><style>.cls-1{fill:#d62e27;}</style></defs><title>instagram</title><g id="Layer_2" data-name="Layer 2"><g id="Layer_1-2" data-name="Layer 1"><circle class="cls-1" cx="17.64" cy="17.64" r="3.56" transform="translate(-0.16 35.11) rotate(-89.48)"/><path class="cls-1" d="M23,9.05A75.68,75.68,0,0,0,12.46,9a3.63,3.63,0,0,0-3.4,3.23,71.88,71.88,0,0,0,0,10.84,3.52,3.52,0,0,0,2.67,3c1.61.45,9.34.34,11.07.15A3.64,3.64,0,0,0,26.23,23a77.1,77.1,0,0,0,0-10.54A3.64,3.64,0,0,0,23,9.05Zm-5.4,14.09a5.51,5.51,0,1,1,5.51-5.5A5.51,5.51,0,0,1,17.64,23.15Zm5.72-9.93a1.29,1.29,0,1,1,1.29-1.29A1.29,1.29,0,0,1,23.36,13.21Z"/><path class="cls-1" d="M17.64,0A17.64,17.64,0,1,0,35.28,17.64,17.64,17.64,0,0,0,17.64,0ZM28.06,23.84a5.44,5.44,0,0,1-4.7,4.29c-1.87.3-10.19.36-11.89-.08a5.44,5.44,0,0,1-4.31-4.68c-.3-1.81-.4-10.23.11-12.05a5.42,5.42,0,0,1,4.65-4.17A77.43,77.43,0,0,1,22.53,7a6,6,0,0,1,3.94,1.6,5.69,5.69,0,0,1,1.74,3.66C28.37,14,28.55,22,28.06,23.84Z"/></g></g></svg>