<svg xmlns="http://www.w3.org/2000/svg" viewBox="0 0 35.28 35.28"><defs><style>.cls-1{fill:#d62e27;}</style></defs><title>linkedin</title><g id="Layer_2" data-name="Layer 2"><g id="Layer_1-2" data-name="Layer 1"><path class="cls-1" d="M17.64,0A17.64,17.64,0,1,0,35.28,17.64,17.64,17.64,0,0,0,17.64,0ZM12.55,24.84H8.72V12.55h3.83Zm-1.91-14a2.21,2.21,0,1,1,2.21-2.22A2.22,2.22,0,0,1,10.64,10.87Zm16.22,14H23v-6c0-1.43,0-3.26-2-3.26s-2.29,1.55-2.29,3.16v6.08H14.95V12.55h3.66v1.68h.05a4,4,0,0,1,3.62-2c3.87,0,4.58,2.54,4.58,5.85Z"/></g></g></svg>