<svg xmlns="http://www.w3.org/2000/svg" viewBox="0 0 135 69.82"><defs><style>.cls-1{fill:#d52f28;}.cls-4{fill:#4e4d4e;}.cls-3{fill:#fff;}</style></defs><title>minibrocki logo</title><g id="Layer_2" data-name="Layer 2"><g id="Layer_1-2" data-name="Layer 1"><g id="Layer_2-2" data-name="Layer 2"><g id="Layer_1-2-2" data-name="Layer 1-2"><path class="cls-1" d="M57.63,56.78a5.17,5.17,0,0,1,1.35-2,6.44,6.44,0,0,1,1.59-1,6.51,6.51,0,0,1,1.87-.48,7.18,7.18,0,0,1,3.44,1,6.31,6.31,0,0,1,1.26,1,6.18,6.18,0,0,1,1.09,1.48A8.77,8.77,0,0,1,69,58.74a12.1,12.1,0,0,1,.29,2.85A11,11,0,0,1,69,64.44a8.43,8.43,0,0,1-.84,2.09A5.71,5.71,0,0,1,67,68a7.87,7.87,0,0,1-1.36,1,8.16,8.16,0,0,1-3.69.87,8,8,0,0,1-3.66-.87,7.37,7.37,0,0,1-1.35-1,5.81,5.81,0,0,1-1.17-1.47,8.32,8.32,0,0,1-.83-2.11,11.51,11.51,0,0,1-.31-2.85V48.4h3.72v7.47Zm4.28,9.47a3.3,3.3,0,0,0,1.86-.48,3.22,3.22,0,0,0,1.08-1.17,4.76,4.76,0,0,0,.5-1.52,9.06,9.06,0,0,0,0-3,4.76,4.76,0,0,0-.5-1.52,3.21,3.21,0,0,0-1.08-1.17,3.92,3.92,0,0,0-3.72,0A3.33,3.33,0,0,0,59,58.56a4.5,4.5,0,0,0-.51,1.52,9.06,9.06,0,0,0,0,3A4.49,4.49,0,0,0,59,64.6a3.35,3.35,0,0,0,1.09,1.17,3.3,3.3,0,0,0,1.86.48Z"/><path class="cls-1" d="M71.26,58.28A4.18,4.18,0,0,1,72,55.73a5,5,0,0,1,1.5-1.39,5.4,5.4,0,0,1,2.19-.69H80v3.8H77.07a2.07,2.07,0,0,0-1,.22,2.28,2.28,0,0,0-.61.48,1.78,1.78,0,0,0-.34.69V69.53H71.26Z"/><path class="cls-1" d="M81.67,61.59A11.54,11.54,0,0,1,82,58.74a8.32,8.32,0,0,1,.83-2.11A5.9,5.9,0,0,1,84,55.14a7.44,7.44,0,0,1,1.36-1,7.78,7.78,0,0,1,7.41,0,7.49,7.49,0,0,1,1.36,1,5.92,5.92,0,0,1,1.19,1.48,8.73,8.73,0,0,1,.84,2.11,12.49,12.49,0,0,1,0,5.71,8.43,8.43,0,0,1-.84,2.09A5.73,5.73,0,0,1,94.12,68a7.89,7.89,0,0,1-1.36,1,8.27,8.27,0,0,1-7.41,0A7.83,7.83,0,0,1,84,68a5.71,5.71,0,0,1-1.19-1.46A8,8,0,0,1,82,64.44,11.54,11.54,0,0,1,81.67,61.59Zm7.41-4.66a3.3,3.3,0,0,0-1.86.48,3.21,3.21,0,0,0-1.08,1.17,4.7,4.7,0,0,0-.5,1.52,9.06,9.06,0,0,0,0,3,4.7,4.7,0,0,0,.5,1.52,3.22,3.22,0,0,0,1.08,1.17,3.92,3.92,0,0,0,3.72,0A3.22,3.22,0,0,0,92,64.61a4.72,4.72,0,0,0,.5-1.52,9.06,9.06,0,0,0,0-3,4.73,4.73,0,0,0-.5-1.52,3.21,3.21,0,0,0-1.08-1.17,3.3,3.3,0,0,0-1.86-.48Z"/><path class="cls-1" d="M112.88,59.59H109a7.24,7.24,0,0,0-.39-1,3,3,0,0,0-.62-.86,2.85,2.85,0,0,0-1-.59,3.71,3.71,0,0,0-1.35-.22,3.3,3.3,0,0,0-1.86.48,3.21,3.21,0,0,0-1.08,1.17,4.72,4.72,0,0,0-.5,1.52,9.06,9.06,0,0,0,0,3,4.71,4.71,0,0,0,.5,1.52,3.22,3.22,0,0,0,1.08,1.17,3.3,3.3,0,0,0,1.86.48,3,3,0,0,0,2.3-.81,4.28,4.28,0,0,0,1-1.87h3.84a8.08,8.08,0,0,1-.61,2.17,7.77,7.77,0,0,1-1,1.59,5.5,5.5,0,0,1-1.16,1.11,7.68,7.68,0,0,1-1.25.72,7.8,7.8,0,0,1-3.22.66,8.23,8.23,0,0,1-3.72-.87,7.87,7.87,0,0,1-1.36-1,5.71,5.71,0,0,1-1.19-1.46,8,8,0,0,1-.83-2.09,13.1,13.1,0,0,1,0-5.71,7.94,7.94,0,0,1,.84-2.11,6.4,6.4,0,0,1,1.19-1.48,6.6,6.6,0,0,1,1.37-1,8.26,8.26,0,0,1,3.72-1,8.51,8.51,0,0,1,3.19.72,7.13,7.13,0,0,1,1.25.73,5.71,5.71,0,0,1,1.16,1.14,8.22,8.22,0,0,1,1,1.61A8.08,8.08,0,0,1,112.88,59.59Z"/><path class="cls-1" d="M118.73,69.5h-3.8V48.4h3.8V60l4.66-6.31h4.22l-4.81,6.6,6.72,9.25h-4.22l-4.66-6.38-1.9,2.47Z"/><path class="cls-1" d="M131.2,50.12v-1a.69.69,0,0,1,.19-.5.88.88,0,0,1,.56-.17h2.28a.88.88,0,0,1,.56.17.69.69,0,0,1,.19.5v2.06a.69.69,0,0,1-.19.5.88.88,0,0,1-.56.17h-2.28a.87.87,0,0,1-.56-.17.69.69,0,0,1-.19-.5Zm3.8,3.53V69.5h-3.8V53.65Z"/><path class="cls-4" d="M10.25,61.59a13.11,13.11,0,0,0-.08-1.43,3.64,3.64,0,0,0-.39-1.31,2.54,2.54,0,0,0-1-1A3.46,3.46,0,0,0,7,57.48a3.46,3.46,0,0,0-1.8.39,2.53,2.53,0,0,0-1,1,3.62,3.62,0,0,0-.39,1.31,12.9,12.9,0,0,0-.08,1.43V69.5H0V61.59A12.08,12.08,0,0,1,.3,58.74a8.32,8.32,0,0,1,.8-2.11,6.22,6.22,0,0,1,1.13-1.46,6.69,6.69,0,0,1,1.28-1,7.48,7.48,0,0,1,3.53-1,7.42,7.42,0,0,1,3.5,1,7.13,7.13,0,0,1,1.3,1A5.76,5.76,0,0,1,13,56.64a9.22,9.22,0,0,1,.8,2.11,11.54,11.54,0,0,1,.31,2.85v7.91h-3.8Zm10.25,0a13.11,13.11,0,0,0-.08-1.43A3.64,3.64,0,0,0,20,58.85a2.54,2.54,0,0,0-1-1,3.46,3.46,0,0,0-1.8-.39,3.46,3.46,0,0,0-1.8.39,2.53,2.53,0,0,0-1,1,3.62,3.62,0,0,0-.39,1.31,12.9,12.9,0,0,0-.08,1.43V69.5h-3.8V61.59a12.08,12.08,0,0,1,.29-2.85,8.3,8.3,0,0,1,.8-2.11,6.22,6.22,0,0,1,1.11-1.46,6.69,6.69,0,0,1,1.28-1,7.48,7.48,0,0,1,3.53-1,7.42,7.42,0,0,1,3.5,1,7.13,7.13,0,0,1,1.3,1,5.75,5.75,0,0,1,1.13,1.48,9.22,9.22,0,0,1,.8,2.11,11.55,11.55,0,0,1,.31,2.85v7.91h-3.8Z"/><path class="cls-4" d="M26.31,50.12v-1a.69.69,0,0,1,.19-.5.88.88,0,0,1,.56-.17h2.28a.88.88,0,0,1,.56.17.69.69,0,0,1,.19.5v2.06a.69.69,0,0,1-.19.5.88.88,0,0,1-.56.17H27.06a.87.87,0,0,1-.56-.17.69.69,0,0,1-.19-.5Zm3.8,3.53V69.5h-3.8V53.65Z"/><path class="cls-4" d="M39.16,53.26l.67,0a6,6,0,0,1,1.36.27,8,8,0,0,1,1.65.73,5.77,5.77,0,0,1,1.63,1.43,7.74,7.74,0,0,1,1.24,2.38,11,11,0,0,1,.48,3.51v7.91h-3.8V61.59a8.23,8.23,0,0,0-.12-1.43,4,4,0,0,0-.48-1.31,2.85,2.85,0,0,0-1-1,3.71,3.71,0,0,0-3.33,0,2.82,2.82,0,0,0-1,1,3.94,3.94,0,0,0-.48,1.31,8.19,8.19,0,0,0-.12,1.43V69.5h-3.8V61.59a11,11,0,0,1,.48-3.51,7.74,7.74,0,0,1,1.24-2.38,5.77,5.77,0,0,1,1.63-1.43,8,8,0,0,1,1.65-.73,6,6,0,0,1,1.35-.27Z"/><path class="cls-4" d="M48.19,50.12q0-.68,0-1a.69.69,0,0,1,.19-.5.88.88,0,0,1,.56-.17h2.28a.88.88,0,0,1,.56.17.69.69,0,0,1,.19.5q0,.34,0,1t0,1a.69.69,0,0,1-.19.5.88.88,0,0,1-.56.17H48.93a.87.87,0,0,1-.56-.17.69.69,0,0,1-.19-.5Q48.19,50.81,48.19,50.12ZM52,53.65V69.5h-3.8V53.65Z"/><rect class="cls-1" x="46.68" width="41.65" height="41.65" rx="8.55" ry="8.55"/><path class="cls-3" d="M75.19,7.9,73.56,6.27a13.94,13.94,0,0,0-2.71-2.16A11.12,11.12,0,0,0,68.38,3a6.94,6.94,0,0,0-2.23-.3A8.58,8.58,0,0,0,64.22,3a9,9,0,0,0-3.8,2.19A9,9,0,0,0,58.2,9a8.08,8.08,0,0,0-.27,1.9v.55h-.56a8.45,8.45,0,0,0-7.93,6.28,8.08,8.08,0,0,0-.27,1.9,7.51,7.51,0,0,0,.3,2.23,10,10,0,0,0,1.12,2.48A14.57,14.57,0,0,0,52.78,27l1.63,1.63.26.26,4-2.55-1-1h0l-1.59-1.58a15.57,15.57,0,0,1-1.13-1.26,4.37,4.37,0,0,1-.78-1.45,3.06,3.06,0,0,1,0-1.65,4.17,4.17,0,0,1,1.2-1.86,4.18,4.18,0,0,1,1.86-1.2,3.06,3.06,0,0,1,1.65,0,4.39,4.39,0,0,1,1.46.75l.31.27h3.33V14l-.24-.29a4.37,4.37,0,0,1-.78-1.45,3.06,3.06,0,0,1,0-1.65,4.18,4.18,0,0,1,1.2-1.86A4.18,4.18,0,0,1,66,7.57a3.07,3.07,0,0,1,1.65,0,4.39,4.39,0,0,1,1.46.78,15.8,15.8,0,0,1,1.26,1.12L76,15.17l3.93-2.55Z"/><polygon class="cls-3" points="69.08 19.12 69.08 15.19 65.66 15.19 65.66 19.12 61.74 19.12 61.74 22.54 65.66 22.54 65.66 26.46 69.08 26.46 69.08 22.54 73.03 22.54 73.03 19.12 69.08 19.12"/><path class="cls-3" d="M81.69,15.52a13.2,13.2,0,0,1,1.75,2.22,9.3,9.3,0,0,1,1,2.28,6.77,6.77,0,0,1,.28,2,7.32,7.32,0,0,1-.24,1.73,7.73,7.73,0,0,1-5.44,5.44,7.84,7.84,0,0,1-1.75.25h-.48L76,29.38l.06.88v.48a7.33,7.33,0,0,1-.24,1.73,7.73,7.73,0,0,1-5.44,5.44,7.85,7.85,0,0,1-1.75.25h-.19a6.35,6.35,0,0,1-1.78-.28,10.39,10.39,0,0,1-2.3-1,13.22,13.22,0,0,1-2.54-2l-1.63-1.63-2.27-2.27,2.6-1.68,3.44,3.44a16.64,16.64,0,0,0,1.33,1.19,5.2,5.2,0,0,0,1.71.92,3.65,3.65,0,0,0,1.08.16,4.23,4.23,0,0,0,1-.12,4.88,4.88,0,0,0,2.23-1.43,4.87,4.87,0,0,0,1.43-2.23,3.85,3.85,0,0,0,0-2.07,5.17,5.17,0,0,0-.92-1.71l-.09-.11v-2.2h2.29l.08.07a5.19,5.19,0,0,0,1.71.92,3.64,3.64,0,0,0,1.08.16,4.22,4.22,0,0,0,1-.12A4.87,4.87,0,0,0,80,24.66a4.87,4.87,0,0,0,1.43-2.23,3.85,3.85,0,0,0,0-2.07,5.17,5.17,0,0,0-.92-1.71,16.39,16.39,0,0,0-1.19-1.33l-.15-.15,2.6-1.68m.11-1-4,2.55.83.83a15.54,15.54,0,0,1,1.13,1.26,4.37,4.37,0,0,1,.78,1.45,3.06,3.06,0,0,1,0,1.65,4.18,4.18,0,0,1-1.26,1.89,4.18,4.18,0,0,1-1.86,1.2,3.42,3.42,0,0,1-.8.1,2.85,2.85,0,0,1-.85-.13,4.39,4.39,0,0,1-1.46-.78l-.29-.24H70.79V27.6l.27.31a4.37,4.37,0,0,1,.78,1.45,3.06,3.06,0,0,1,0,1.65,4.18,4.18,0,0,1-1.2,1.86,4.18,4.18,0,0,1-1.86,1.2,3.42,3.42,0,0,1-.8.1,2.85,2.85,0,0,1-.85-.13,4.39,4.39,0,0,1-1.46-.78,15.79,15.79,0,0,1-1.26-1.13l-3.89-3.89-4,2.54,3,3,1.63,1.63a13.94,13.94,0,0,0,2.69,2.16,11.12,11.12,0,0,0,2.48,1.12,7.1,7.1,0,0,0,2,.31h.22a8.45,8.45,0,0,0,7.93-6.28,8.08,8.08,0,0,0,.27-1.9v-.55h.56A8.45,8.45,0,0,0,85.28,24a8.08,8.08,0,0,0,.27-1.9,7.51,7.51,0,0,0-.3-2.23,10,10,0,0,0-1.12-2.48,14.57,14.57,0,0,0-2.17-2.68l-.14-.14Z"/></g></g></g></g></svg>