<svg xmlns="http://www.w3.org/2000/svg" viewBox="0 0 35.28 35.28"><defs><style>.cls-1{fill:#d62e27;}</style></defs><title>yt</title><g id="Layer_2" data-name="Layer 2"><g id="Layer_1-2" data-name="Layer 1"><path class="cls-1" d="M17.64,0A17.64,17.64,0,1,0,35.28,17.64,17.64,17.64,0,0,0,17.64,0Zm9.49,23.11A2.37,2.37,0,0,1,26,24.22c-1.3.68-14.72.68-16.44.11A2.36,2.36,0,0,1,8,22.82c-.67-1.85-.87-9.6.42-11.13a2.51,2.51,0,0,1,1.69-.9c3.5-.38,14.3-.32,15.54.13a2.44,2.44,0,0,1,1.53,1.47C28,14.3,28,21.27,27.13,23.11Z"/><path class="cls-1" d="M15.14,20.7l6.3-3.26-6.3-3.28Z"/></g></g></svg>