<svg xmlns="http://www.w3.org/2000/svg" viewBox="0 0 116.41 103.17"><defs><style>.cls-1{fill:#d62b1f;}</style></defs><title>Antiquities &amp;amp; Art</title><g id="Layer_2" data-name="Layer 2"><g id="Layer_1-2" data-name="Layer 1"><path class="cls-1" d="M50.47,64.29a6.5,6.5,0,0,1-2.38,1.06c-3.53.75-7.09-2-7.29-2.89s3,.27,6.57-.47a11.77,11.77,0,0,0,1.55-.45A58.56,58.56,0,0,1,43.4,43.8,88.21,88.21,0,0,1,31.27,47.4c-14.6,3.1-14.6,3.08-30.59,1.45a.49.49,0,0,0-.67.58s1.16,6.22,1.48,7.75C7.9,87.4,29.3,105.78,43,102.87c8.49-1.8,16.35-12.24,19.6-27.08C58,73.74,53.79,69.74,50.47,64.29Zm-27.3,6.35c-3.53.75-7.09-2-7.29-2.89s3,.27,6.57-.48,6-3.16,6.2-2.24S26.7,69.89,23.18,70.64ZM39.75,87.4c-6.41,1.36-10.55,7.45-10.89,5.86s3.4-9.61,9.81-11,13.08,4.44,13.42,6S46.17,86,39.75,87.4Z"/><path class="cls-1" d="M115.74,18.95s-17,.21-32-4.4S54.74.2,54.74.2a.52.52,0,0,0-.91.19s-2.12,6.33-2.61,7.91C41.64,39.49,52,67.42,66.13,71.78s38.39-13,48-44.15c.49-1.58,2.29-8,2.29-8A.52.52,0,0,0,115.74,18.95Zm-57.41,9c.29-1,4.3-3.47,7.93-2.35S71.8,31,71.51,32,68.84,30.14,65.2,29,58,28.86,58.33,27.9ZM84.19,55.68C83.67,57.37,76.06,63,69.45,61s-9.74-11-9.22-12.67,4.26,5.23,10.88,7.26S84.71,54,84.19,55.68Zm13-15.83c-.29,1-2.67-1.81-6.31-2.93S83.74,36.76,84,35.8s4.29-3.47,7.93-2.35S97.51,38.89,97.22,39.85Z"/></g></g></svg>