<svg xmlns="http://www.w3.org/2000/svg" viewBox="0 0 99.52 101.74"><defs><style>.cls-1{fill:#d62b1f;}</style></defs><title>batteries &amp;amp; chargers</title><g id="Layer_2" data-name="Layer 2"><g id="Layer_1-2" data-name="Layer 1"><path class="cls-1" d="M82,101.74h0l-80.47-.09A1.52,1.52,0,0,1,0,100.13L0,58.27a1.52,1.52,0,0,1,1.52-1.52h0L82,56.84a1.52,1.52,0,0,1,1.52,1.52l0,41.86A1.52,1.52,0,0,1,82,101.74ZM3,98.61l77.43.09,0-38.82L3.09,59.79Z"/><path class="cls-1" d="M97.85,95.59h-9.1a1.52,1.52,0,0,1-1.52-1.52l0-29.51A1.52,1.52,0,0,1,88.78,63h9.1a1.52,1.52,0,0,1,1.52,1.52l0,29.51a1.52,1.52,0,0,1-1.52,1.52Z"/><rect class="cls-1" x="8.29" y="64.06" width="9.07" height="30.61"/><rect class="cls-1" x="22.54" y="64.06" width="9.07" height="30.61"/><rect class="cls-1" x="36.43" y="64.06" width="9.07" height="30.61"/><path class="cls-1" d="M96.25,26.38H83.6V16.45H96.25a3.27,3.27,0,0,0,0-6.54H83.6V.1S62.67-2.26,62.67,16.18H51.79v2.67H36.43c-9.16,0-11.9,2.91-14.54,5.72C18.79,27.88,15.58,31.3,0,31.3v3.25c17,0,20.85-4.11,24.26-7.74,2.47-2.63,4.41-4.7,12.17-4.7H51.79v3.66H62.67c0,18.44,20.93,16.09,20.93,16.09V32.92H96.25a3.27,3.27,0,1,0,0-6.54Z"/></g></g></svg>