<svg xmlns="http://www.w3.org/2000/svg" viewBox="0 0 95.51 75.76"><defs><style>.cls-1{fill:#d62b1f;}</style></defs><title>Collection</title><g id="Layer_2" data-name="Layer 2"><g id="Layer_1-2" data-name="Layer 1"><path class="cls-1" d="M20.18,12.93a6.44,6.44,0,1,1-6.44,6.44,6.44,6.44,0,0,1,6.44-6.44Zm0,0"/><path class="cls-1" d="M82.38,63.36V40.49l-11.51-13a1.9,1.9,0,0,0-2.77-.08l-7.25,7.24L51.17,23.76a1.9,1.9,0,0,0-2.77-.08l-8.26,8.26-7.26-8.18a1.9,1.9,0,0,0-2.77-.08l-17,17V63.36Z"/><path class="cls-1" d="M94.73,6.52a1,1,0,0,0,.78-.95V1a1,1,0,0,0-1-1H80.16a1,1,0,0,0-.94.75,5,5,0,0,1-4.86,3.93A5,5,0,0,1,69.5.75,1,1,0,0,0,68.56,0H62.42a1,1,0,0,0-.94.75,5,5,0,0,1-4.86,3.93A5,5,0,0,1,51.77.75,1,1,0,0,0,50.83,0H44.68a1,1,0,0,0-.94.75,5,5,0,0,1-4.86,3.93A5,5,0,0,1,34,.75,1,1,0,0,0,33.09,0H26.95A1,1,0,0,0,26,.75a5,5,0,0,1-4.86,3.93A5,5,0,0,1,16.29.75,1,1,0,0,0,15.35,0H1A1,1,0,0,0,0,1V5.58a1,1,0,0,0,.78.95,4.94,4.94,0,0,1,4.09,4.86A5,5,0,0,1,.78,16.25,1,1,0,0,0,0,17.2v6a1,1,0,0,0,.78.95A4.94,4.94,0,0,1,4.87,29,4.94,4.94,0,0,1,.78,33.91a1,1,0,0,0-.78.95v6a1,1,0,0,0,.78.95,4.94,4.94,0,0,1,4.09,4.86A4.94,4.94,0,0,1,.78,51.57a1,1,0,0,0-.78.95v6a1,1,0,0,0,.78.95,5,5,0,0,1,4.09,4.86A4.94,4.94,0,0,1,.78,69.24a1,1,0,0,0-.78.95V74.8a1,1,0,0,0,1,1H15.35a1,1,0,0,0,.94-.75A5,5,0,0,1,26,75a1,1,0,0,0,.94.75h6.14A1,1,0,0,0,34,75a5,5,0,0,1,9.71,0,1,1,0,0,0,.94.75h6.14a1,1,0,0,0,.94-.75,5,5,0,0,1,9.71,0,1,1,0,0,0,.94.75h6.14A1,1,0,0,0,69.5,75a5,5,0,0,1,9.71,0,1,1,0,0,0,.94.75H94.54a1,1,0,0,0,1-1V70.18a1,1,0,0,0-.78-.95,4.94,4.94,0,0,1,0-9.73,1,1,0,0,0,.78-.95v-6a1,1,0,0,0-.78-.95,4.94,4.94,0,0,1,0-9.73,1,1,0,0,0,.78-.95v-6a1,1,0,0,0-.78-.95,4.94,4.94,0,0,1,0-9.73,1,1,0,0,0,.78-.95v-6a1,1,0,0,0-.78-.95,4.94,4.94,0,0,1,0-9.73Zm-9.61,57a2.53,2.53,0,0,1-2.53,2.53H12.92a2.53,2.53,0,0,1-2.53-2.53V12.19a2.53,2.53,0,0,1,2.53-2.53H82.59a2.53,2.53,0,0,1,2.53,2.53Z"/></g></g></svg>