<svg xmlns="http://www.w3.org/2000/svg" viewBox="0 0 107.43 107.42"><defs><style>.cls-1{fill:#d62b1f;}</style></defs><title>Commercial</title><g id="Layer_2" data-name="Layer 2"><g id="Layer_1-2" data-name="Layer 1"><path class="cls-1" d="M27.21,74.74a2.3,2.3,0,0,0-3.56-.59l-9.91,9a2.3,2.3,0,0,0-.16,3.25l9.79,10.82a2.3,2.3,0,0,0,1.59.75L27.1,98a2.3,2.3,0,0,0,1.66-.59l6-5.42a2.3,2.3,0,0,0,.47-2.82Zm-.84,18.66h-.23L18.54,85l6.05-5.47,5.72,10.34Z"/><path class="cls-1" d="M8.06,42.48A7,7,0,0,0,18,43L22,39.36a2.34,2.34,0,0,0,.17-3.3,2.31,2.31,0,0,1,.17-3.27,2.35,2.35,0,0,1,3.31.17,2.33,2.33,0,0,0,2.62.59L37.78,44,51.11,32,41.62,21.54a2.33,2.33,0,0,0-.19-2.45l-.15-.19-3.09-3.42a22.33,22.33,0,0,1,10.27-5.3,50.47,50.47,0,0,1,6.36-.9,2.33,2.33,0,0,0,.86-4.4C43.15-1.59,31.78-.75,22.8,7.3l-9.47,8.51a2.33,2.33,0,0,0-.17,3.31A2.3,2.3,0,0,1,13,22.39a2.35,2.35,0,0,1-3.3-.17A2.33,2.33,0,0,0,6.38,22L2.32,25.68a7,7,0,0,0-.52,9.88Z"/><path class="cls-1" d="M104.66,93.69c0-.11,0-.22,0-.33v-.1c0-.11,0-.23,0-.34v-.09c0-.12,0-.23-.06-.35V92.4c0-.12,0-.23-.08-.35l0-.08c0-.12-.06-.24-.09-.35l0-.07-.11-.36,0-.06-.13-.36,0-.05-.16-.36,0,0-.18-.36,0,0-.2-.36,0,0-.22-.35,0,0-.24-.35,0,0-.26-.34,0,0-.3-.35L77.81,61.1a4.77,4.77,0,0,1-2.7,1.26l-3.6.44L72,66.4a4.8,4.8,0,0,1-4.19,5.35l-3.6.44.1.79c11,12.14,21.33,23.53,24.63,27.19a9,9,0,0,0,12.79.67l.1-.1h0l.08-.08.22-.21.12-.12.19-.21.12-.14.17-.21.12-.15.15-.2.12-.17.14-.2.11-.18.12-.2.11-.19.1-.19.1-.21.09-.18.1-.22.08-.18.09-.23.06-.17.08-.25.05-.16.07-.26,0-.16.06-.27,0-.15c0-.09,0-.19,0-.28l0-.14c0-.1,0-.2,0-.3l0-.13c0-.1,0-.2,0-.31s0-.08,0-.12,0-.21,0-.32,0-.08,0-.12,0-.22,0-.32S104.66,93.72,104.66,93.69Z"/><path class="cls-1" d="M106.83,14.4,94.49.76A2.3,2.3,0,0,0,91.24.59l-60,54.31h0L.76,82.46a2.3,2.3,0,0,0-.16,3.25l18.52,20.47a2.3,2.3,0,0,0,1.59.75l9.75.49a2.3,2.3,0,0,0,1.66-.59l16-14.48.05-.05.05,0,.16-.18h0l3.8-4.85a2.3,2.3,0,0,0,.47-1.7l-.8-6.61,6.62-.8a2.3,2.3,0,0,0,2-2.56l-.8-6.62,6.62-.8a2.3,2.3,0,0,0,2-2.56l-.8-6.61,6.62-.8a2.3,2.3,0,0,0,2-2.56L75.32,49l6.62-.8a2.3,2.3,0,0,0,2-2.56L83.15,39l6.62-.8a2.3,2.3,0,0,0,2-2.56L91,29l6.62-.8a2.3,2.3,0,0,0,2-2.56L98.79,19l6.61-.8a2.3,2.3,0,0,0,1.43-3.83ZM29.73,102.77l-7.84-.39L5.55,84.33,32.14,60.27,35,65.41l-.47,7.92h0a2.3,2.3,0,0,0,.3,1.27l7.79,13.71,1.05,1.85Z"/></g></g></svg>