<svg xmlns="http://www.w3.org/2000/svg" viewBox="0 0 87.74 104.28"><defs><style>.cls-1{fill:#d62b1f;}</style></defs><title>drinks</title><g id="Layer_2" data-name="Layer 2"><g id="Layer_1-2" data-name="Layer 1"><path class="cls-1" d="M16.18,11.46a3.73,3.73,0,0,0,.19,2.34H28.44a3.73,3.73,0,0,0,.19-2.34A4,4,0,0,1,29,8.21a5.69,5.69,0,0,0,.35-2.87s0-2.61,0-3.13S29.44.39,28.63,0H16.18c-.81.39-.69,1.69-.69,2.21s0,3.13,0,3.13a5.69,5.69,0,0,0,.35,2.87A4,4,0,0,1,16.18,11.46Z"/><path class="cls-1" d="M39.81,44c-3.06-2.38-7.74-3.38-9.35-3.87l-.87-.28a2.85,2.85,0,0,1-.2-.78c-.32-3.68,1.24-7.44,1.15-11.48-.07-2.94-1.3-6.84-1.93-9.75H16.12c-.63,2.9-1.86,6.81-1.93,9.75-.09,4,1.47,7.81,1.15,11.48a2.81,2.81,0,0,1-.21.81l-.79.25C12.73,40.61,8.06,41.62,5,44A14,14,0,0,0,0,54.48V97.35s.16,6.93,6.93,6.93H37.88c6.77,0,6.93-6.93,6.93-6.93V54.48A14,14,0,0,0,39.81,44Zm.63,50s-.13,5.58-5.58,5.58H9.95C4.5,99.6,4.37,94,4.37,94v-19s5.29,6.17,16.33,3.32c13.5-3.67,19.74-1.51,19.74-1.51Z"/><path class="cls-1" d="M53.65,65.62l.61,33.62a3,3,0,0,0,3,3H84.14a3,3,0,0,0,3-3l.61-33.62ZM83.29,96A2.29,2.29,0,0,1,81,98.33H60.39A2.29,2.29,0,0,1,58.1,96l-.17-9.55H83.46Z"/></g></g></svg>