<svg xmlns="http://www.w3.org/2000/svg" viewBox="0 0 93.35 110.81"><defs><style>.cls-1{fill:#d62b1f;}</style></defs><title>Garden</title><g id="Layer_2" data-name="Layer 2"><g id="Layer_1-2" data-name="Layer 1"><path class="cls-1" d="M80.38,27.13A12.42,12.42,0,0,0,68.12,12.47c-.26,0-.51,0-.76,0A17.62,17.62,0,0,0,35.62,8.19,17.61,17.61,0,0,0,12.49,24.93a17.78,17.78,0,0,0,.12,2,17.63,17.63,0,0,0,5,34.53c3.53,0,26.6-6.26,26.6-6.26V96.51l-11.7,14.3H61.15l-11.7-14.3V55.4s21.09,8.47,25.05,8.47a18.84,18.84,0,0,0,5.88-36.75Z"/></g></g></svg>