<svg xmlns="http://www.w3.org/2000/svg" viewBox="0 0 106.64 106.66"><defs><style>.cls-1{fill:#d62b1f;}</style></defs><title>Household</title><g id="Layer_2" data-name="Layer 2"><g id="Layer_1-2" data-name="Layer 1"><path class="cls-1" d="M53.32,9a.76.76,0,0,1,.58.24L97.4,52.73l0,0a.83.83,0,0,1,0,1.15.77.77,0,0,1-.58.24H86.22v41a2.49,2.49,0,0,1-2.49,2.49H72.59c0-14.17,0-16.65,0-17.13h0v-.06c0-.46,0-.93-.07-1.42a19.26,19.26,0,0,0-38.22-1.31l-.05.34,0,.12v0c0,.15,0,.3-.06.45a14.92,14.92,0,0,0-.1,1.68v17.3H22.91a2.49,2.49,0,0,1-2.49-2.49v-41H9.77a.76.76,0,0,1-.54-.24.84.84,0,0,1,0-1.18l0,0L52.74,9.24A.76.76,0,0,1,53.32,9m0-9a9.75,9.75,0,0,0-6.94,2.88L2.9,46.36l0,0A9.81,9.81,0,0,0,9.39,63.13h2v32a11.5,11.5,0,0,0,11.49,11.49h17a3.13,3.13,0,0,0,3.12-3.12V80.35a6.15,6.15,0,0,1,0-.69c0-.09,0-.17,0-.25s0-.16,0-.25a10.26,10.26,0,0,1,20.37.69,6.07,6.07,0,0,1,0,.61v.06s0,23,0,23a3.12,3.12,0,0,0,3.12,3.12h17A11.5,11.5,0,0,0,95.22,95.17v-32h1.61a9.82,9.82,0,0,0,6.95-16.76h0L60.27,2.88A9.75,9.75,0,0,0,53.32,0Z"/></g></g></svg>