<svg xmlns="http://www.w3.org/2000/svg" viewBox="0 0 71.16 102.91"><defs><style>.cls-1{fill:#d62b1f;}</style></defs><title>Lamps &amp;amp; Illuminants</title><g id="Layer_2" data-name="Layer 2"><g id="Layer_1-2" data-name="Layer 1"><path class="cls-1" d="M50.62,91.33h-11V56.12h-8.1V91.33h-11A7.64,7.64,0,0,0,12.92,99v2.82A1.13,1.13,0,0,0,14,102.91H57.12a1.13,1.13,0,0,0,1.13-1.13V99A7.64,7.64,0,0,0,50.62,91.33Z"/><path class="cls-1" d="M70.94,47.9c-.11-.16-11.43-15.61-15.1-25.52S52.34,1.26,52.34,1.15A1.13,1.13,0,0,0,51.21,0H20a1.13,1.13,0,0,0-1.13,1.15c0,.11.14,11.4-3.51,21.24S.33,47.75.22,47.9a1.13,1.13,0,0,0,.91,1.8h49.2V65.12a3.3,3.3,0,1,0,3,0V49.7H70a1.13,1.13,0,0,0,.91-1.8Z"/></g></g></svg>