<svg xmlns="http://www.w3.org/2000/svg" viewBox="0 0 65.43 102.99"><defs><style>.cls-1{fill:#d62b1f;}</style></defs><title>lifehacks</title><g id="Layer_2" data-name="Layer 2"><g id="Layer_1-2" data-name="Layer 1"><path class="cls-1" d="M32.71,0A32.76,32.76,0,0,0,11.06,57.31c5.18,5.18,4.71,16.24,4.59,16.36a2,2,0,0,0,.59,1.53,2.17,2.17,0,0,0,1.41.59h30a2,2,0,0,0,1.41-.59,2.24,2.24,0,0,0,.59-1.53c0-.12-.59-11.18,4.59-16.36L54.6,57A32.66,32.66,0,0,0,32.71,0ZM51.54,54.25c-.12.12-.35.35-.35.47-4.59,4.94-5.41,13.06-5.53,16.95h-26c-.12-3.88-.94-12.36-5.88-17.42a28.65,28.65,0,1,1,37.77,0Z"/><path class="cls-1" d="M32.6,8.36a2.06,2.06,0,0,0-2,2,2.06,2.06,0,0,0,2,2A21.42,21.42,0,0,1,54,33.77a2,2,0,0,0,4,0A25.31,25.31,0,0,0,32.6,8.36Z"/><path class="cls-1" d="M44.87,80.13H20.32a4.64,4.64,0,1,0,0,9.29H44.76a4.77,4.77,0,0,0,4.75-4.64A4.67,4.67,0,0,0,44.87,80.13Z"/><path class="cls-1" d="M44.87,93.7H20.32a4.64,4.64,0,0,0,0,9.29H44.76a4.77,4.77,0,0,0,4.75-4.64A4.67,4.67,0,0,0,44.87,93.7Z"/></g></g></svg>