<svg xmlns="http://www.w3.org/2000/svg" viewBox="0 0 90.28 90.31"><defs><style>.cls-1{fill:#d62b1f;}</style></defs><title>Motors &amp;amp; wheels</title><g id="Layer_2" data-name="Layer 2"><g id="Layer_1-2" data-name="Layer 1"><path class="cls-1" d="M55,41.45a10.23,10.23,0,0,0-.72-1.58,10.62,10.62,0,0,0-1-1.42,3,3,0,0,1-2.21-.32l-2.8-1.63a3,3,0,0,1-1.38-1.73,10.71,10.71,0,0,0-2.92-.09,1.49,1.49,0,0,1-.72,1.14L40.6,37.34l-1.29.75-.12.08-.05,0L38,38.84a1.41,1.41,0,0,1-1.34.06,10.65,10.65,0,0,0-1.39,2.57,3,3,0,0,1,.82,2.06v3.25a3,3,0,0,1-.82,2.07,9.34,9.34,0,0,0,1.74,3,3,3,0,0,1,2.19.31L42,53.78a3,3,0,0,1,1.36,1.73,10.72,10.72,0,0,0,2.94.1,1.48,1.48,0,0,1,.72-1.14l2.63-1.52L51,52.2l.12-.08.07,0,1.1-.64a1.48,1.48,0,0,1,1.34-.06A10.65,10.65,0,0,0,55,48.83a3,3,0,0,1-.82-2.06V43.52A3,3,0,0,1,55,41.45Zm-5.88,8.22a6,6,0,1,1,1.24-7.54A6,6,0,0,1,49.11,49.67Z"/><path class="cls-1" d="M47.41,31.82l5.24-11.11a25.73,25.73,0,0,0-7.55-1.15,25.44,25.44,0,0,0-7.47,1.13l5.24,11.11A13.6,13.6,0,0,1,47.41,31.82Z"/><path class="cls-1" d="M34.74,36.52l-7-10.09a25.54,25.54,0,0,0-7.48,13l12.22,1A13.62,13.62,0,0,1,34.74,36.52Z"/><path class="cls-1" d="M39.07,34.75l1.44-.84L34.8,21.76A25.36,25.36,0,0,0,32.35,23,25.76,25.76,0,0,0,30,24.49l7.67,11Z"/><path class="cls-1" d="M56.88,38.37a13.16,13.16,0,0,1,.94,2.08l12.26-1a25.43,25.43,0,0,0-7.51-13l-7,10.08A13.59,13.59,0,0,1,56.88,38.37Z"/><path class="cls-1" d="M45.92,42.24a3.07,3.07,0,0,0-.78-.1,3,3,0,1,0,2.91,3.79h0a3,3,0,0,0-2.13-3.69Z"/><path class="cls-1" d="M33.1,43.52,19.75,42.4h0a25.58,25.58,0,0,0,0,5.49L33.1,46.78Z"/><path class="cls-1" d="M52.56,35.53l7.66-11a25.52,25.52,0,0,0-4.75-2.73L49.75,33.91Z"/><path class="cls-1" d="M57.18,43.51v3.26l13.35,1.11h0a25.52,25.52,0,0,0,0-5.49Z"/><path class="cls-1" d="M33.41,51.91a13.19,13.19,0,0,1-.95-2.07l-12.26,1a25.46,25.46,0,0,0,7.51,13l7-10.1A13.53,13.53,0,0,1,33.41,51.91Z"/><path class="cls-1" d="M51.21,55.54l-1.44.84,5.72,12.16h0a24.84,24.84,0,0,0,4.74-2.74l-7.67-11Z"/><path class="cls-1" d="M84.23,22.57A45.14,45.14,0,1,0,6,67.72a44.85,44.85,0,0,0,27.41,21A45.14,45.14,0,0,0,84.23,22.57Zm-21,44.66-.1.1-.07,0A28.43,28.43,0,0,1,16.92,49.56s0,0,0,0A28.64,28.64,0,0,1,27,23.05l.1-.1.07,0a26.13,26.13,0,0,1,7.69-4.43l0,0h0a28.64,28.64,0,0,1,28.12,4.47l.05,0s.06.07.1.1A28.14,28.14,0,0,1,73.36,40.73s0,0,0,0A28.64,28.64,0,0,1,63.24,67.24Z"/><path class="cls-1" d="M55.54,53.78l7,10.08a25.54,25.54,0,0,0,7.48-13l-12.22-1A13.6,13.6,0,0,1,55.54,53.78Z"/><path class="cls-1" d="M45.19,58.68a13.69,13.69,0,0,1-2.32-.22l-5.23,11.1a25.53,25.53,0,0,0,15,0l-5.23-11.1A13.43,13.43,0,0,1,45.19,58.68Z"/><polygon class="cls-1" points="37.72 54.76 30.17 65.62 34.89 68.34 40.53 56.38 37.72 54.76"/></g></g></svg>