<svg xmlns="http://www.w3.org/2000/svg" viewBox="0 0 94.95 78.94"><defs><style>.cls-1{fill:#d62b1f;}</style></defs><title>office</title><g id="Layer_2" data-name="Layer 2"><g id="Layer_1-2" data-name="Layer 1"><path class="cls-1" d="M81.22,13.36H70.71V11.24A11.25,11.25,0,0,0,59.47,0h-24A11.25,11.25,0,0,0,24.25,11.24v2.12H13.74A13.78,13.78,0,0,0,0,27.09V61.48A13.78,13.78,0,0,0,13.74,75.22h3.63a7.74,7.74,0,0,0,13.23,0H64.35a7.74,7.74,0,0,0,13.23,0h3.63A13.78,13.78,0,0,0,95,61.48V27.09A13.78,13.78,0,0,0,81.22,13.36ZM30.7,11.24a4.79,4.79,0,0,1,4.79-4.79h24a4.79,4.79,0,0,1,4.79,4.79v2.12H30.7Z"/></g></g></svg>