<svg xmlns="http://www.w3.org/2000/svg" viewBox="0 0 91.59 91.59"><defs><style>.cls-1{fill:#d62b1f;}</style></defs><title>Sport</title><g id="Layer_2" data-name="Layer 2"><g id="Layer_1-2" data-name="Layer 1"><path class="cls-1" d="M45.8,0A45.79,45.79,0,1,0,91.59,45.79,45.85,45.85,0,0,0,45.8,0ZM64.94,7.74a42.77,42.77,0,0,1,14.8,12.32l-1,2.18-3.46,7.41L59.92,27.92,56.58,12.64Zm-41,1.49,5.4,1.8.09,15.63L13.58,31.94,8.71,24.84A42.8,42.8,0,0,1,23.94,9.23ZM18.86,72.6l-5.52.77A42.42,42.42,0,0,1,3.74,52.59l3.42-3.43L21.2,56ZM56.27,87.09a42.82,42.82,0,0,1-22.78-.51l-1.54-5.47,12.88-8.87L58.11,82.39Zm-11-22.7-18.9-13,6.75-20.09H55.63l6.75,20.09Zm29.27,3.34-5-14.8,13.37-10L88.37,47a42.37,42.37,0,0,1-6.05,20.7Z"/></g></g></svg>