<svg xmlns="http://www.w3.org/2000/svg" viewBox="0 0 92.65 83.78"><defs><style>.cls-1{fill:#d62b1f;}</style></defs><title>Toys</title><g id="Layer_2" data-name="Layer 2"><g id="Layer_1-2" data-name="Layer 1"><circle class="cls-1" cx="46.35" cy="56.99" r="4.83"/><path class="cls-1" d="M92.65,16.58a13,13,0,0,0-22.29-9,41.85,41.85,0,0,0-48,0A13,13,0,1,0,6.83,28a41.89,41.89,0,1,0,79,0A13,13,0,0,0,92.65,16.58ZM9.9,21.27a5.6,5.6,0,1,1,6.75-8.9A42,42,0,0,0,9.9,21.27Zm16,8.29a4.83,4.83,0,1,1,4.83,4.83A4.83,4.83,0,0,1,25.95,29.56ZM46.35,73.88a13,13,0,1,1,13-13A13,13,0,0,1,46.35,73.88Zm16-39.49a4.83,4.83,0,1,1,4.83-4.83A4.83,4.83,0,0,1,62.38,34.39ZM82.79,21.24A42,42,0,0,0,76,12.33a5.6,5.6,0,1,1,6.76,8.9Z"/></g></g></svg>