<svg xmlns="http://www.w3.org/2000/svg" viewBox="0 0 101.9 101.85"><defs><style>.cls-1{fill:#d62b1f;}</style></defs><title>Unique</title><g id="Layer_2" data-name="Layer 2"><g id="Layer_1-2" data-name="Layer 1"><path class="cls-1" d="M51.39,77.27A37.61,37.61,0,0,1,56,82.59a7.33,7.33,0,0,1,1.44,4.25A7.57,7.57,0,0,1,55.86,91a40.43,40.43,0,0,1-4.36,5,40.46,40.46,0,0,1-5,4.36,7.34,7.34,0,0,1-4.11,1.52,7.5,7.5,0,0,1-4.23-1.46,37.94,37.94,0,0,1-5.32-4.59L6,68.93a37.33,37.33,0,0,1-4.56-5.29A7.42,7.42,0,0,1,0,59.44a7.34,7.34,0,0,1,1.52-4.11,40.56,40.56,0,0,1,4.37-5,40.53,40.53,0,0,1,5-4.37A7.58,7.58,0,0,1,15,44.44a7.25,7.25,0,0,1,4.22,1.41,37,37,0,0,1,5.29,4.56ZM18,56.94q-2.25-2.25-3.4-2.39t-2.9,1.6a8.39,8.39,0,0,0-1.29,1.58,2.2,2.2,0,0,0-.31,1.38,3,3,0,0,0,.7,1.49,21.47,21.47,0,0,0,1.69,1.86L39.34,89.32a23,23,0,0,0,2,1.8,3,3,0,0,0,1.49.71,2.2,2.2,0,0,0,1.38-.31,10.36,10.36,0,0,0,2.87-2.87,2.14,2.14,0,0,0,.28-1.41,3.39,3.39,0,0,0-.73-1.52,23,23,0,0,0-1.75-1.91Z"/><path class="cls-1" d="M77.24,69.1,42.77,48l-.23.23L70.31,76,64.73,81.6,20.24,37.11,27.39,30l35,22.13.22-.22L34,23.31l5.63-5.63L84.16,62.17Z"/><path class="cls-1" d="M101.9,44.44,89.17,57.16,44.68,12.67,57.35,0l5.35,5.35-6.19,6.19L63,18l6-6,5.12,5.12-6,6,22,22,6.25-6.25Z"/></g></g></svg>