<svg xmlns="http://www.w3.org/2000/svg" viewBox="0 0 80.69 96.03"><defs><style>.cls-1{fill:#d62b1f;}</style></defs><title>Wooden</title><g id="Layer_2" data-name="Layer 2"><g id="Layer_1-2" data-name="Layer 1"><path class="cls-1" d="M.07,3.15.11,3Z"/><path class="cls-1" d="M.28,2.43l.08-.17Z"/><path class="cls-1" d="M.65,1.95c6.4.8,12.43,4,18.27,7.1,2.07,1.1,4,2.13,6,3a34.07,34.07,0,0,0,11.65,3.25c1.77.15,5.07.1,7.34-1.88a4.21,4.21,0,0,0,1.43-3.12C45.46,7.08,43.14,2.88,40.7,0H3.83A3.82,3.82,0,0,0,.54,1.9Z"/><path class="cls-1" d="M76.86,0H58.19a40.85,40.85,0,0,1,2.58,6.82,19.74,19.74,0,0,1,.06,8.66A14.21,14.21,0,0,1,56.56,23a16.69,16.69,0,0,1-9.69,3.86,47.93,47.93,0,0,1-9.44-.34l-.5-.05c-10.08-1-20.88-1.77-31.6-.26-1.49.21-3.65.63-5.34,1v7.65a42.35,42.35,0,0,1,12.23-3.11c6.66-.45,13.32.51,19.76,1.43l.54.08c7.32,1,13.42,1.8,19.66,1.21a40.25,40.25,0,0,0,22.47-9.4,60.75,60.75,0,0,0,6-6.26v-15A3.83,3.83,0,0,0,76.86,0Z"/><path class="cls-1" d="M37.24,23.58l.5.05A45.74,45.74,0,0,0,46.6,24a14.06,14.06,0,0,0,8-3.12C57.8,18,59.1,12.73,57.9,7.47a43.93,43.93,0,0,0-3-7.47H44.41a26.08,26.08,0,0,1,2,3.33,14.8,14.8,0,0,1,1.81,7.15,7.1,7.1,0,0,1-2.43,5.19,12,12,0,0,1-8,2.66q-.74,0-1.5-.06a37,37,0,0,1-12.65-3.52c-2-.94-4-2-6.08-3.11C11.85,8.62,6,5.5,0,4.83V24.23c1.32-.27,3.36-.68,4.93-.9C16,21.78,27,22.53,37.24,23.58Z"/><path class="cls-1" d="M76.58,27.3A43.2,43.2,0,0,1,52.46,37.4C45.38,38.07,38,37,32.11,36.17l-.54-.08c-6.29-.9-12.8-1.83-19.15-1.4A40.8,40.8,0,0,0,0,38.07v2a3.83,3.83,0,0,0,3.83,3.83h73a3.83,3.83,0,0,0,3.83-3.83V23.26C79.25,24.8,77.68,26.35,76.58,27.3Z"/><path class="cls-1" d="M80.63,92.88l0,.19Z"/><path class="cls-1" d="M80.42,93.61l-.08.17Z"/><path class="cls-1" d="M80,94.08c-6.4-.8-12.43-4-18.27-7.1-2.07-1.1-4-2.13-6-3a34.07,34.07,0,0,0-11.65-3.25c-1.77-.15-5.07-.1-7.34,1.88A4.21,4.21,0,0,0,35.4,85.7C35.24,89,37.56,93.15,40,96H76.86a3.82,3.82,0,0,0,3.29-1.9Z"/><path class="cls-1" d="M3.83,96H22.51a40.85,40.85,0,0,1-2.58-6.82,19.74,19.74,0,0,1-.06-8.66A14.21,14.21,0,0,1,24.13,73a16.69,16.69,0,0,1,9.69-3.86,47.93,47.93,0,0,1,9.44.34l.5.05c10.08,1,20.88,1.77,31.6.26,1.49-.21,3.65-.63,5.34-1V61.15a42.35,42.35,0,0,1-12.23,3.11c-6.66.45-13.32-.51-19.76-1.43l-.54-.08c-7.32-1-13.42-1.8-19.66-1.21A40.25,40.25,0,0,0,6,71a60.75,60.75,0,0,0-6,6.26v15A3.83,3.83,0,0,0,3.83,96Z"/><path class="cls-1" d="M43.46,72.45,43,72.4a45.74,45.74,0,0,0-8.86-.34,14.06,14.06,0,0,0-8,3.12c-3.2,2.87-4.49,8.12-3.3,13.38a43.93,43.93,0,0,0,3,7.47H36.29a26.08,26.08,0,0,1-2-3.33,14.8,14.8,0,0,1-1.81-7.15,7.1,7.1,0,0,1,2.43-5.19,12,12,0,0,1,8-2.66q.74,0,1.5.06a37,37,0,0,1,12.65,3.52c2,.94,4,2,6.08,3.11,5.69,3,11.57,6.13,17.54,6.81V71.8c-1.32.27-3.36.68-4.93.9C64.73,74.26,53.72,73.5,43.46,72.45Z"/><path class="cls-1" d="M4.11,68.73a43.2,43.2,0,0,1,24.11-10.1c7.08-.67,14.44.39,20.35,1.23l.54.08c6.29.9,12.8,1.83,19.15,1.4A40.8,40.8,0,0,0,80.69,58v-2a3.83,3.83,0,0,0-3.83-3.83h-73A3.83,3.83,0,0,0,0,55.93V72.77C1.44,71.23,3,69.68,4.11,68.73Z"/></g></g></svg>