<svg xmlns="http://www.w3.org/2000/svg" viewBox="0 0 380.54 124.48"><defs><style>.cls-1{fill:#fff;}</style></defs><title>app store</title><g id="Layer_2" data-name="Layer 2"><g id="Layer_1-2" data-name="Layer 1"><rect width="380.54" height="124.48" rx="16.82" ry="16.82"/><g id="icon"><path id="Fill-2" class="cls-1" d="M78.28,60.27C78.2,50.77,86,46.16,86.39,45.95A17.58,17.58,0,0,0,72.63,38.5C66.85,37.89,61.23,42,58.29,42s-7.56-3.39-12.43-3.31a18.28,18.28,0,0,0-15.4,9.41c-6.65,11.53-1.7,28.5,4.69,37.84,3.21,4.56,6.92,9.68,11.83,9.49s6.58-3,12.33-3,7.4,3,12.38,2.94c5.14-.08,8.35-4.59,11.45-9.2a37.4,37.4,0,0,0,5.22-10.66A16.54,16.54,0,0,1,78.28,60.27"/><path id="Fill-3" class="cls-1" d="M68.87,32.37a16.82,16.82,0,0,0,3.84-12c-3.71.16-8.38,2.57-11.06,5.73-2.36,2.78-4.48,7.32-4,11.59,4.19.32,8.48-2.12,11.16-5.28"/></g><path id="Fill-4" class="cls-1" d="M147.53,94.73h-6.68l-3.66-11.51H124.47L121,94.73h-6.5l12.59-39.16h7.8l12.65,39.16ZM136.11,78.4l-3.31-10.21c-.34-1.06-1-3.5-2-7.37h-.13c-.4,1.67-1,4.14-1.86,7.37L125.58,78.4Z"/><path id="Fill-5" class="cls-1" d="M179.91,80.28c0,4.8-1.3,8.59-3.92,11.37a11.43,11.43,0,0,1-8.7,3.71c-3.74,0-6.42-1.33-8.06-4v14.82h-6.28V75.78c0-3-.08-6.1-.24-9.28h5.51l.34,4.48h.11a11.13,11.13,0,0,1,17.84-1.11c2.28,2.65,3.39,6.1,3.39,10.42Zm-6.39.21a11.53,11.53,0,0,0-1.86-6.79,6.43,6.43,0,0,0-5.46-2.78A6.66,6.66,0,0,0,162,72.46a7.1,7.1,0,0,0-2.47,4,8.58,8.58,0,0,0-.29,1.91v4.72a7.59,7.59,0,0,0,1.88,5.2A6.27,6.27,0,0,0,166,90.44a6.47,6.47,0,0,0,5.51-2.73,12,12,0,0,0,2-7.21Z"/><path id="Fill-6" class="cls-1" d="M212.36,80.28c0,4.8-1.3,8.59-3.92,11.37a11.43,11.43,0,0,1-8.7,3.71c-3.74,0-6.42-1.33-8.06-4v14.82h-6.28V75.78c0-3-.08-6.1-.24-9.28h5.51L191,71h.11A11.13,11.13,0,0,1,209,69.86c2.28,2.65,3.39,6.1,3.39,10.42ZM206,80.5a11.53,11.53,0,0,0-1.86-6.79,6.43,6.43,0,0,0-5.46-2.78,6.66,6.66,0,0,0-4.22,1.54,7.24,7.24,0,0,0-2.47,4,8.58,8.58,0,0,0-.29,1.91v4.72a7.59,7.59,0,0,0,1.88,5.2,6.27,6.27,0,0,0,4.91,2.12A6.44,6.44,0,0,0,204,87.71a11.8,11.8,0,0,0,2-7.21Z"/><path id="Fill-7" class="cls-1" d="M248.68,83.76a10.49,10.49,0,0,1-3.47,8.14q-3.82,3.42-10.66,3.42c-4.22,0-7.58-.82-10.13-2.44l1.46-5.22a17.61,17.61,0,0,0,9.07,2.44,8.54,8.54,0,0,0,5.51-1.59,5.2,5.2,0,0,0,2-4.27,5.52,5.52,0,0,0-1.62-4,15.14,15.14,0,0,0-5.41-3c-6.92-2.57-10.34-6.31-10.34-11.22a10,10,0,0,1,3.63-7.9c2.41-2,5.62-3.08,9.62-3.08a18.92,18.92,0,0,1,8.88,1.86L245.63,62a15.65,15.65,0,0,0-7.53-1.8,7.81,7.81,0,0,0-5.2,1.62,4.71,4.71,0,0,0-1.56,3.55,4.76,4.76,0,0,0,1.8,3.82,20.23,20.23,0,0,0,5.7,3,19.11,19.11,0,0,1,7.42,4.77,9.92,9.92,0,0,1,2.41,6.81"/><path id="Fill-8" class="cls-1" d="M269.47,71.22h-6.92V84.92c0,3.47,1.22,5.22,3.66,5.22a11.64,11.64,0,0,0,2.78-.29l.19,4.77a14.55,14.55,0,0,1-4.88.69A7.51,7.51,0,0,1,258.49,93c-1.41-1.51-2.09-4.06-2.09-7.61V71.19h-4.11V66.5h4.11V61.33l6.15-1.86v7h6.92v4.72"/><path id="Fill-9" class="cls-1" d="M300.6,80.39a15.51,15.51,0,0,1-3.71,10.69,13.29,13.29,0,0,1-10.34,4.3,12.72,12.72,0,0,1-9.92-4.11,14.93,14.93,0,0,1-3.69-10.39,15.4,15.4,0,0,1,3.79-10.74A13.23,13.23,0,0,1,287,65.94a12.9,12.9,0,0,1,10,4.14,14.74,14.74,0,0,1,3.61,10.31Zm-6.5.13a12.65,12.65,0,0,0-1.67-6.65,6.51,6.51,0,0,0-11.4,0,12.7,12.7,0,0,0-1.67,6.79A12.59,12.59,0,0,0,281,87.31a6.44,6.44,0,0,0,11.35-.05A12.85,12.85,0,0,0,294.1,80.52Z"/><path id="Fill-10" class="cls-1" d="M321,72a11.62,11.62,0,0,0-2-.16,5.92,5.92,0,0,0-5.12,2.49,9.46,9.46,0,0,0-1.56,5.57V94.73h-6.28V75.38c0-3.26-.05-6.23-.19-8.88h5.46l.24,5.41h.19a9.63,9.63,0,0,1,3.13-4.48,7.63,7.63,0,0,1,4.53-1.51A13.21,13.21,0,0,1,321,66l0,6"/><path id="Fill-11" class="cls-1" d="M349.06,79.28a14.34,14.34,0,0,1-.24,2.84H330a8.18,8.18,0,0,0,2.73,6.39,9.4,9.4,0,0,0,6.15,2,21.12,21.12,0,0,0,7.61-1.33l1,4.35A23.56,23.56,0,0,1,338,95.24c-4.37,0-7.82-1.3-10.31-3.87S324,85.32,324,81a16.2,16.2,0,0,1,3.5-10.63,12,12,0,0,1,9.86-4.53c4.06,0,7.16,1.51,9.23,4.53a15.34,15.34,0,0,1,2.52,8.91Zm-6-1.62a8.45,8.45,0,0,0-1.22-4.83,5.47,5.47,0,0,0-5-2.62,6,6,0,0,0-5,2.55A9.43,9.43,0,0,0,330,77.63l13,0Z"/><g id="Available-on-the"><path id="Fill-12" class="cls-1" d="M133.08,41.57H129.8L128,35.93h-6.26L120,41.57h-3.18L123,22.32h3.82Zm-5.65-8-1.62-5c-.16-.5-.48-1.72-1-3.63h-.05c-.21.82-.48,2-.93,3.63l-1.59,5Z"/><path id="Fill-13" class="cls-1" d="M148.57,27.68l-5.25,13.89h-3l-5.09-13.89h3.31L140.9,35c.4,1.22.74,2.39,1,3.5H142c.24-1,.58-2.17,1-3.5l2.33-7.34h3.23"/><path id="Fill-14" class="cls-1" d="M159.76,41.57,159.52,40h-.08a4.77,4.77,0,0,1-4.06,1.91,4,4,0,0,1-4.24-4.08c0-3.42,3-5.2,8.11-5.2v-.27c0-1.83-1-2.73-2.89-2.73a6.48,6.48,0,0,0-3.63,1l-.64-2a8.91,8.91,0,0,1,4.77-1.19c3.63,0,5.46,1.91,5.46,5.75v5.12a18.48,18.48,0,0,0,.21,3.31l-2.78-.05Zm-.42-6.92c-3.42,0-5.14.82-5.14,2.81a2,2,0,0,0,2.12,2.17,3,3,0,0,0,3-2.84Z"/><path id="Fill-15" class="cls-1" d="M169.19,25.4a1.84,1.84,0,1,1,1.94-1.86,1.81,1.81,0,0,1-1.94,1.86Zm-1.48,2.28h3.08V41.55h-3.08Z"/><path id="Fill-16" class="cls-1" d="M176.27,21.32h3.08V41.55h-3.08Z"/><path id="Fill-17" class="cls-1" d="M192.45,41.57,192.21,40h-.08a4.77,4.77,0,0,1-4.06,1.91,4,4,0,0,1-4.24-4.08c0-3.42,3-5.2,8.11-5.2v-.27c0-1.83-1-2.73-2.89-2.73a6.48,6.48,0,0,0-3.63,1l-.64-2a8.91,8.91,0,0,1,4.77-1.19c3.63,0,5.46,1.91,5.46,5.75v5.12a21.92,21.92,0,0,0,.19,3.31h-2.76v0ZM192,34.65c-3.42,0-5.14.82-5.14,2.81A2,2,0,0,0,189,39.64a3,3,0,0,0,3-2.84Z"/><path id="Fill-18" class="cls-1" d="M207.53,41.89a4.72,4.72,0,0,1-4.37-2.47h-.05l-.19,2.15H200.3c.08-1.11.11-2.36.11-3.74V21.32h3.1v8.4h.05A4.77,4.77,0,0,1,208,27.41c3.34,0,5.67,2.86,5.67,7S211.06,41.89,207.53,41.89Zm-.64-12.06a3.54,3.54,0,0,0-3.39,3.69V36a3.39,3.39,0,0,0,3.34,3.47c2.31,0,3.69-1.88,3.69-4.88C210.53,31.74,209.1,29.83,206.9,29.83Z"/><path id="Fill-19" class="cls-1" d="M218.22,21.32h3.08V41.55h-3.08Z"/><path id="Fill-20" class="cls-1" d="M238.08,35.37h-9.25c.05,2.62,1.8,4.11,4.37,4.11a10.43,10.43,0,0,0,3.74-.66l.48,2.15a11.24,11.24,0,0,1-4.64.85c-4.35,0-6.92-2.73-6.92-7s2.62-7.45,6.58-7.45c3.53,0,5.78,2.62,5.78,6.6a5.38,5.38,0,0,1-.13,1.41Zm-2.81-2.2c0-2.15-1.09-3.66-3-3.66-1.78,0-3.16,1.54-3.37,3.66Z"/><path id="Fill-21" class="cls-1" d="M256.77,41.89c-4.06,0-6.68-3-6.68-7.13,0-4.3,2.68-7.34,6.92-7.34,4,0,6.68,2.89,6.68,7.11S260.93,41.89,256.77,41.89Zm.13-12.22c-2.23,0-3.66,2.09-3.66,5s1.46,4.93,3.63,4.93,3.63-2.23,3.63-5-1.43-4.91-3.61-4.91Z"/><path id="Fill-22" class="cls-1" d="M280.26,41.57h-3.08v-8c0-2.47-1-3.69-2.81-3.69a3.19,3.19,0,0,0-3.08,3.39v8.25h-3.08V31.66c0-1.22,0-2.55-.11-4h2.7l.13,2.15H271a5,5,0,0,1,4.4-2.44c2.92,0,4.83,2.23,4.83,5.86v8.33"/><path id="Fill-23" class="cls-1" d="M300.44,30H297v6.73c0,1.72.61,2.57,1.8,2.57a6.75,6.75,0,0,0,1.38-.13l.08,2.33a6.68,6.68,0,0,1-2.39.34c-2.44,0-3.87-1.35-3.87-4.85V30h-2V27.71h2V25.16l3-.93v3.45h3.39V30"/><path id="Fill-24" class="cls-1" d="M316.77,41.57h-3.08V33.65c0-2.49-1-3.74-2.81-3.74a3,3,0,0,0-3.08,3.29v8.35h-3.08V21.32h3.08v8.33h.05A4.66,4.66,0,0,1,312,27.39c2.94,0,4.75,2.28,4.75,5.91v8.27"/><path id="Fill-25" class="cls-1" d="M332.52,35.37h-9.25c.05,2.62,1.8,4.11,4.37,4.11a10.43,10.43,0,0,0,3.74-.66l.48,2.15a11.24,11.24,0,0,1-4.64.85c-4.35,0-6.92-2.73-6.92-7s2.62-7.45,6.58-7.45c3.53,0,5.78,2.62,5.78,6.6A5.37,5.37,0,0,1,332.52,35.37Zm-2.81-2.2c0-2.15-1.09-3.66-3-3.66-1.78,0-3.18,1.54-3.37,3.66Z"/></g></g></g></svg>