<svg xmlns="http://www.w3.org/2000/svg" xmlns:xlink="http://www.w3.org/1999/xlink" viewBox="0 0 380.54 124.48"><defs><style>.cls-1,.cls-2,.cls-9{fill:#fff;}.cls-1{stroke:#fff;stroke-miterlimit:10;stroke-width:0.03px;}.cls-3{fill:url(#linear-gradient);}.cls-4{fill:url(#linear-gradient-2);}.cls-5{fill:url(#linear-gradient-3);}.cls-6{fill:url(#linear-gradient-4);}.cls-7{opacity:0.2;}.cls-7,.cls-8,.cls-9{isolation:isolate;}.cls-8{opacity:0.12;}.cls-9{opacity:0.25;}</style><linearGradient id="linear-gradient" x1="-98.32" y1="924.55" x2="-100.98" y2="927.2" gradientTransform="translate(1878.54 -17092) scale(18.52)" gradientUnits="userSpaceOnUse"><stop offset="0" stop-color="#00a0ff"/><stop offset="0.01" stop-color="#00a1ff"/><stop offset="0.26" stop-color="#00beff"/><stop offset="0.51" stop-color="#00d2ff"/><stop offset="0.76" stop-color="#00dfff"/><stop offset="1" stop-color="#00e3ff"/></linearGradient><linearGradient id="linear-gradient-2" x1="-96.42" y1="926.34" x2="-100.25" y2="926.34" gradientTransform="translate(1878.54 -17092) scale(18.52)" gradientUnits="userSpaceOnUse"><stop offset="0" stop-color="#ffe000"/><stop offset="0.41" stop-color="#ffbd00"/><stop offset="0.78" stop-color="orange"/><stop offset="1" stop-color="#ff9c00"/></linearGradient><linearGradient id="linear-gradient-3" x1="-97.85" y1="926.7" x2="-101.45" y2="930.3" gradientTransform="translate(1878.54 -17092) scale(18.52)" gradientUnits="userSpaceOnUse"><stop offset="0" stop-color="#ff3a44"/><stop offset="1" stop-color="#c31162"/></linearGradient><linearGradient id="linear-gradient-4" x1="-100.62" y1="923.21" x2="-99.01" y2="924.81" gradientTransform="translate(1878.54 -17092) scale(18.52)" gradientUnits="userSpaceOnUse"><stop offset="0" stop-color="#32a071"/><stop offset="0.07" stop-color="#2da771"/><stop offset="0.48" stop-color="#15cf74"/><stop offset="0.8" stop-color="#06e775"/><stop offset="1" stop-color="#00f076"/></linearGradient></defs><title>google play</title><g id="Layer_2" data-name="Layer 2"><g id="Layer_1-2" data-name="Layer 1"><rect width="380.54" height="124.48" rx="16.82" ry="16.82"/><path class="cls-1" d="M132.72,33.67a8,8,0,0,1-2.05,5.86,9.08,9.08,0,0,1-15.52-6.44A9,9,0,0,1,124.23,24a7.8,7.8,0,0,1,3.51.88,6.38,6.38,0,0,1,2.64,2.05l-1.46,1.46a5.46,5.46,0,0,0-4.69-2.05,5.83,5.83,0,0,0-4.69,2.05,6,6,0,0,0-2.05,5,6,6,0,0,0,2.05,5,7.54,7.54,0,0,0,4.69,2.05,6.42,6.42,0,0,0,5-2.05,4.85,4.85,0,0,0,1.46-3.51h-6.44V32.5h8.49v1.17Zm13.47-7.32h-7.91v5.56h7.32V34h-7.32v5.56h7.91v2.34H135.95V24.3H146.2Zm9.67,15.52h-2.34V26.35h-5V24.3h12.3v2.05h-5Zm13.47,0V24.3h2.34V41.87Zm12.3,0h-2.34V26.35h-5V24.3h12v2.05h-5V41.87Zm27.82-2.34a9.08,9.08,0,0,1-15.52-6.44,9.08,9.08,0,1,1,18.16,0A8.61,8.61,0,0,1,209.46,39.53Zm-11.13-1.46A6.91,6.91,0,0,0,203,40.11a5.83,5.83,0,0,0,4.69-2.05,7.07,7.07,0,0,0,2.05-5,6,6,0,0,0-2.05-5A6.91,6.91,0,0,0,203,26.06a5.83,5.83,0,0,0-4.69,2.05,7.07,7.07,0,0,0-2.05,5A6,6,0,0,0,198.33,38.06Zm17,3.81V24.3H218l8.49,13.77V24.3h2.34V41.87h-2.34l-9.08-14.35V41.87h-2.05Z"/><path class="cls-2" d="M193.35,67.65a12.32,12.32,0,0,0-12.59,12.59,12.5,12.5,0,0,0,12.59,12.59,12.32,12.32,0,0,0,12.59-12.59C205.95,72.62,200.38,67.65,193.35,67.65Zm0,19.92c-3.81,0-7-3.22-7-7.62s3.22-7.62,7-7.62,7,2.93,7,7.62C200.38,84.34,197.16,87.56,193.35,87.56ZM166.11,67.65a12.32,12.32,0,0,0-12.59,12.59,12.5,12.5,0,0,0,12.59,12.59,12.32,12.32,0,0,0,12.59-12.59C178.71,72.62,173.14,67.65,166.11,67.65Zm0,19.92c-3.81,0-7-3.22-7-7.62s3.22-7.62,7-7.62,7,2.93,7,7.62C173.14,84.34,169.92,87.56,166.11,87.56ZM133.6,71.45v5.27H146.2a11.07,11.07,0,0,1-2.93,6.74,13,13,0,0,1-9.67,3.81c-7.91,0-13.77-6.15-13.77-14.06A13.82,13.82,0,0,1,133.6,59.15,14.52,14.52,0,0,1,143.27,63l3.81-3.81a18.77,18.77,0,0,0-13.18-5.27c-10.54,0-19.62,8.79-19.62,19.33s9.08,19.33,19.62,19.33c5.86,0,10-1.76,13.47-5.56,3.51-3.51,4.69-8.49,4.69-12.3a11,11,0,0,0-.29-3.22H133.6Zm133,4.1c-1.17-2.93-4.1-7.91-10.54-7.91s-11.72,5-11.72,12.59a12.26,12.26,0,0,0,12.3,12.59,12,12,0,0,0,10.25-5.56l-4.1-2.93c-1.46,2.05-3.22,3.51-6.15,3.51s-4.69-1.17-6.15-3.81l16.69-7-.59-1.46Zm-17,4.1c0-4.69,3.81-7.32,6.44-7.32,2.05,0,4.1,1.17,4.69,2.64l-11.13,4.69Zm-13.77,12h5.56V55.05h-5.56ZM227,70.28a9.64,9.64,0,0,0-6.74-2.93c-6.15,0-12,5.56-12,12.59a12.13,12.13,0,0,0,12,12.3,8.41,8.41,0,0,0,6.44-2.93H227v1.76c0,4.69-2.64,7.32-6.74,7.32A6.51,6.51,0,0,1,214.15,94l-4.69,2.05a12.08,12.08,0,0,0,11.13,7.32c6.44,0,11.72-3.81,11.72-12.89V68.23H227v2.05Zm-6.44,17.28c-3.81,0-7-3.22-7-7.62s3.22-7.62,7-7.62,6.74,3.22,6.74,7.62S224.4,87.56,220.59,87.56Zm71.46-32.51H278.87V91.66h5.56V77.9h7.62c6.15,0,12-4.39,12-11.42S298.2,55.05,292.05,55.05Zm.29,17.57h-7.91V60h7.91a6.43,6.43,0,0,1,6.44,6.15c-.29,3.22-2.64,6.44-6.44,6.44ZM326,67.35c-4.1,0-8.2,1.76-9.67,5.56l5,2.05a5.17,5.17,0,0,1,5-2.64c2.93,0,5.56,1.76,5.86,4.69v.29a11.62,11.62,0,0,0-5.56-1.46c-5.27,0-10.54,2.93-10.54,8.2,0,5,4.39,8.2,9.08,8.2a8.24,8.24,0,0,0,7-3.51h.29v2.93h5.27V77.6c-.59-6.44-5.56-10.25-11.72-10.25Zm-.59,20.21c-1.76,0-4.39-.88-4.39-3.22,0-2.93,3.22-3.81,5.86-3.81a11.33,11.33,0,0,1,5,1.17A6.82,6.82,0,0,1,325.44,87.56ZM356.2,68.23,350,84h-.29l-6.44-15.82h-5.86l9.67,22.26-5.56,12.3h5.56l14.94-34.56H356.2ZM307,91.66h5.56V55.05H307Z"/><path class="cls-3" d="M24.36,25.76c-.88.88-1.17,2.34-1.17,4.1V94.59a5.79,5.79,0,0,0,1.46,4.1l.29.29L61.26,62.67v-.59Z"/><path class="cls-4" d="M73,75,61,63v-.88l12-12,.29.29,14.35,8.2c4.1,2.34,4.1,6.15,0,8.49Z"/><path class="cls-5" d="M73.27,74.67,61,62.37,24.36,99c1.46,1.46,3.51,1.46,6.15.29l42.76-24.6"/><path class="cls-6" d="M73.27,50.07,30.51,25.76c-2.64-1.46-4.69-1.17-6.15.29L61,62.37l12.3-12.3Z"/><path class="cls-7" d="M73,74.38l-42.47,24c-2.34,1.46-4.39,1.17-5.86,0l-.29.29.29.29c1.46,1.17,3.51,1.46,5.86,0Z"/><path class="cls-8" d="M24.36,98.4c-.88-.88-1.17-2.34-1.17-4.1v.29a5.79,5.79,0,0,0,1.46,4.1V98.4h-.29ZM87.62,66.18,73,74.38l.29.29,14.35-8.2c2.05-1.17,2.93-2.64,2.93-4.1C90.55,63.84,89.38,65,87.62,66.18Z"/><path class="cls-9" d="M30.51,26.06,87.62,58.57c1.76,1.17,2.93,2.34,2.93,3.81,0-1.46-.88-2.93-2.93-4.1L30.51,25.76c-4.1-2.34-7.32-.59-7.32,4.1v.29C23.19,25.76,26.41,23.71,30.51,26.06Z"/></g></g></svg>