<svg xmlns="http://www.w3.org/2000/svg" viewBox="0 0 237.52 54.51"><defs><style>.cls-1{fill:#d62e27;}.cls-2{fill:#4d4d4d;}.cls-3{fill:#fff;}</style></defs><title>Logo minibrocki</title><g id="Layer_2" data-name="Layer 2"><g id="Layer_1-2" data-name="Layer 1"><path class="cls-1" d="M136.25,21.37A6.77,6.77,0,0,1,138,18.73a8.43,8.43,0,0,1,2.09-1.37,8.53,8.53,0,0,1,2.45-.61,9.39,9.39,0,0,1,4.5,1.23,8.26,8.26,0,0,1,1.66,1.27,8.09,8.09,0,0,1,1.43,1.94,11.49,11.49,0,0,1,1,2.76,15.84,15.84,0,0,1,.39,3.72,14.37,14.37,0,0,1-.43,3.72,11,11,0,0,1-1.1,2.74,7.49,7.49,0,0,1-1.55,1.9,10.29,10.29,0,0,1-1.78,1.25,10.69,10.69,0,0,1-4.83,1.15,10.43,10.43,0,0,1-4.79-1.15A9.64,9.64,0,0,1,135.31,36a7.6,7.6,0,0,1-1.53-1.92,10.89,10.89,0,0,1-1.08-2.76,15.07,15.07,0,0,1-.41-3.72V10.4h4.87v9.78Zm5.6,12.39a4.32,4.32,0,0,0,2.43-.61,4.21,4.21,0,0,0,1.41-1.53,6.19,6.19,0,0,0,.65-2,11.86,11.86,0,0,0,0-3.93,6.2,6.2,0,0,0-.65-2,4.21,4.21,0,0,0-1.41-1.53,5.13,5.13,0,0,0-4.87,0A4.39,4.39,0,0,0,138,23.72a5.89,5.89,0,0,0-.68,2,11.86,11.86,0,0,0,0,3.93,5.88,5.88,0,0,0,.68,2,4.39,4.39,0,0,0,1.43,1.53A4.32,4.32,0,0,0,141.86,33.76Z"/><path class="cls-1" d="M154.09,23.33A5.47,5.47,0,0,1,155,20a6.6,6.6,0,0,1,2-1.82,7.06,7.06,0,0,1,2.86-.9h5.73v4.95h-3.84a2.71,2.71,0,0,0-1.33.29,3,3,0,0,0-.8.61,2.33,2.33,0,0,0-.45.9V38h-5Z"/><path class="cls-1" d="M167.71,27.66a15.1,15.1,0,0,1,.41-3.72,10.89,10.89,0,0,1,1.08-2.76,7.72,7.72,0,0,1,1.55-1.94A9.73,9.73,0,0,1,172.53,18a10.19,10.19,0,0,1,9.69,0A9.81,9.81,0,0,1,184,19.24a7.74,7.74,0,0,1,1.55,1.94,11.43,11.43,0,0,1,1.1,2.76,14.4,14.4,0,0,1,.43,3.72,14.4,14.4,0,0,1-.43,3.72,11,11,0,0,1-1.1,2.74A7.5,7.5,0,0,1,184,36a10.33,10.33,0,0,1-1.78,1.25,10.83,10.83,0,0,1-9.69,0A10.25,10.25,0,0,1,170.75,36a7.48,7.48,0,0,1-1.55-1.9,10.53,10.53,0,0,1-1.08-2.74A15.1,15.1,0,0,1,167.71,27.66Zm9.69-6.09a4.32,4.32,0,0,0-2.43.61,4.21,4.21,0,0,0-1.41,1.53,6.16,6.16,0,0,0-.65,2,11.86,11.86,0,0,0,0,3.93,6.15,6.15,0,0,0,.65,2A4.21,4.21,0,0,0,175,33.15a5.13,5.13,0,0,0,4.87,0,4.21,4.21,0,0,0,1.41-1.53,6.18,6.18,0,0,0,.65-2,11.86,11.86,0,0,0,0-3.93,6.19,6.19,0,0,0-.65-2,4.21,4.21,0,0,0-1.41-1.53A4.32,4.32,0,0,0,177.4,21.57Z"/><path class="cls-1" d="M208.57,25h-5.07a9.48,9.48,0,0,0-.51-1.29,3.91,3.91,0,0,0-.82-1.12,3.73,3.73,0,0,0-1.25-.78,4.86,4.86,0,0,0-1.76-.29,4.32,4.32,0,0,0-2.43.61,4.21,4.21,0,0,0-1.41,1.53,6.17,6.17,0,0,0-.65,2,11.86,11.86,0,0,0,0,3.93,6.17,6.17,0,0,0,.65,2,4.21,4.21,0,0,0,1.41,1.53,4.32,4.32,0,0,0,2.43.61,3.94,3.94,0,0,0,3-1.06,5.63,5.63,0,0,0,1.37-2.45h5a10.6,10.6,0,0,1-.8,2.84,10.17,10.17,0,0,1-1.25,2.09A7.2,7.2,0,0,1,205,36.62a10.05,10.05,0,0,1-1.64.94,10.21,10.21,0,0,1-4.21.86,10.77,10.77,0,0,1-4.87-1.15A10.29,10.29,0,0,1,192.51,36a7.49,7.49,0,0,1-1.55-1.9,10.53,10.53,0,0,1-1.08-2.74,15.07,15.07,0,0,1-.41-3.72,15.07,15.07,0,0,1,.41-3.72,10.39,10.39,0,0,1,1.1-2.76,8.38,8.38,0,0,1,1.55-1.94,8.64,8.64,0,0,1,1.8-1.27,10.81,10.81,0,0,1,4.87-1.23,11.13,11.13,0,0,1,4.17.94,9.35,9.35,0,0,1,1.64,1,7.47,7.47,0,0,1,1.51,1.49,10.75,10.75,0,0,1,1.25,2.11A10.59,10.59,0,0,1,208.57,25Z"/><path class="cls-1" d="M216.21,38h-5V10.4h5V25.54l6.09-8.26h5.52l-6.3,8.63L230.32,38H224.8l-6.09-8.34-2.5,3.23Z"/><path class="cls-1" d="M232.53,12.65q0-.9,0-1.35a.9.9,0,0,1,.25-.65,1.15,1.15,0,0,1,.74-.22l1.49,0,1.49,0a1.16,1.16,0,0,1,.74.22.91.91,0,0,1,.25.65q0,.45,0,1.35t0,1.35a.91.91,0,0,1-.25.65,1.15,1.15,0,0,1-.74.22l-1.49,0-1.49,0a1.15,1.15,0,0,1-.74-.22.9.9,0,0,1-.25-.65Q232.53,13.55,232.53,12.65Zm5,4.62V38h-5V17.28Z"/><path class="cls-2" d="M74.23,27.66a17.17,17.17,0,0,0-.1-1.84,4.77,4.77,0,0,0-.51-1.72,3.32,3.32,0,0,0-1.25-1.29,5.67,5.67,0,0,0-4.7,0,3.32,3.32,0,0,0-1.25,1.29,4.74,4.74,0,0,0-.51,1.72,16.89,16.89,0,0,0-.1,1.84V38h-5V27.66a15.81,15.81,0,0,1,.39-3.72,10.88,10.88,0,0,1,1-2.76,8.15,8.15,0,0,1,1.47-1.94A8.76,8.76,0,0,1,65.4,18a9.24,9.24,0,0,1,9.2,0,9.32,9.32,0,0,1,1.7,1.27,7.54,7.54,0,0,1,1.47,1.94,12.07,12.07,0,0,1,1,2.76,15.1,15.1,0,0,1,.41,3.72V38h-5Zm13.42,0a17.17,17.17,0,0,0-.1-1.84A4.77,4.77,0,0,0,87,24.11a3.33,3.33,0,0,0-1.25-1.29,5.67,5.67,0,0,0-4.7,0,3.32,3.32,0,0,0-1.25,1.29,4.74,4.74,0,0,0-.51,1.72,16.89,16.89,0,0,0-.1,1.84V38h-5V27.66a15.81,15.81,0,0,1,.39-3.72,10.86,10.86,0,0,1,1-2.76,8.15,8.15,0,0,1,1.47-1.94A8.76,8.76,0,0,1,78.82,18,9.24,9.24,0,0,1,88,18a9.32,9.32,0,0,1,1.7,1.27,7.53,7.53,0,0,1,1.47,1.94,12.07,12.07,0,0,1,1,2.76,15.13,15.13,0,0,1,.41,3.72V38h-5Z"/><path class="cls-2" d="M95.26,12.65q0-.9,0-1.35a.9.9,0,0,1,.25-.65,1.15,1.15,0,0,1,.74-.22l1.49,0,1.49,0a1.16,1.16,0,0,1,.74.22.91.91,0,0,1,.25.65q0,.45,0,1.35t0,1.35a.91.91,0,0,1-.25.65,1.15,1.15,0,0,1-.74.22l-1.49,0-1.49,0a1.15,1.15,0,0,1-.74-.22.9.9,0,0,1-.25-.65Q95.26,13.55,95.26,12.65Zm5,4.62V38h-5V17.28Z"/><path class="cls-2" d="M112.07,16.74l.88,0a7.8,7.8,0,0,1,1.78.35,10.52,10.52,0,0,1,2.17,1A7.56,7.56,0,0,1,119,20a10.13,10.13,0,0,1,1.62,3.09,14.41,14.41,0,0,1,.63,4.6V38h-5V27.66a10.77,10.77,0,0,0-.16-1.84,5.18,5.18,0,0,0-.61-1.72,3.71,3.71,0,0,0-1.27-1.29,4.85,4.85,0,0,0-4.34,0,3.7,3.7,0,0,0-1.27,1.29,5.16,5.16,0,0,0-.61,1.72,10.72,10.72,0,0,0-.16,1.84V38h-5V27.66a14.41,14.41,0,0,1,.63-4.6A10.13,10.13,0,0,1,105.11,20a7.56,7.56,0,0,1,2.13-1.88,10.51,10.51,0,0,1,2.17-1,7.79,7.79,0,0,1,1.76-.35Z"/><path class="cls-2" d="M123.89,12.65q0-.9,0-1.35a.9.9,0,0,1,.25-.65,1.15,1.15,0,0,1,.74-.22l1.49,0,1.49,0a1.16,1.16,0,0,1,.74.22.91.91,0,0,1,.25.65q0,.45,0,1.35t0,1.35a.91.91,0,0,1-.25.65,1.15,1.15,0,0,1-.74.22l-1.49,0-1.49,0a1.15,1.15,0,0,1-.74-.22.9.9,0,0,1-.25-.65Q123.89,13.55,123.89,12.65Zm5,4.62V38h-5V17.28Z"/><rect class="cls-1" width="54.51" height="54.51" rx="11.2" ry="11.2"/><path class="cls-3" d="M37.32,10.34,35.18,8.2a18.25,18.25,0,0,0-3.52-2.83,14.56,14.56,0,0,0-3.24-1.47,9.09,9.09,0,0,0-2.91-.4A11.24,11.24,0,0,0,23,3.88a11.72,11.72,0,0,0-5,2.86,11.81,11.81,0,0,0-2.9,5,10.56,10.56,0,0,0-.35,2.51c0,.24,0,.48,0,.72-.25,0-.49,0-.73,0a11.25,11.25,0,0,0-2.53.37,11.72,11.72,0,0,0-5,2.86,11.81,11.81,0,0,0-2.9,5,10.57,10.57,0,0,0-.35,2.51,9.83,9.83,0,0,0,.4,2.91A13.13,13.13,0,0,0,5.2,31.84,19.08,19.08,0,0,0,8,35.34l2.14,2.14.34.34,5.17-3.34-1.25-1.25h0L12.3,31.09a20.38,20.38,0,0,1-1.48-1.66,5.72,5.72,0,0,1-1-1.9,4,4,0,0,1,0-2.16,5.46,5.46,0,0,1,1.57-2.44,5.47,5.47,0,0,1,2.44-1.57,4,4,0,0,1,2.16,0,5.75,5.75,0,0,1,1.9,1l.41.35h4.34v-4.4L22.26,18a5.72,5.72,0,0,1-1-1.9,4,4,0,0,1,0-2.16,5.46,5.46,0,0,1,1.57-2.44,5.47,5.47,0,0,1,2.44-1.57,4,4,0,0,1,2.16,0,5.75,5.75,0,0,1,1.9,1,20.68,20.68,0,0,1,1.66,1.48l7.39,7.39,5.17-3.34Z"/><polygon class="cls-3" points="29.32 25.03 29.32 19.88 24.84 19.88 24.84 25.03 19.71 25.03 19.71 29.51 24.84 29.51 24.84 34.63 29.32 34.63 29.32 29.51 34.48 29.51 34.48 25.03 29.32 25.03"/><path class="cls-3" d="M45.82,20.31a17.27,17.27,0,0,1,2.29,2.9,12.17,12.17,0,0,1,1.35,3,8.86,8.86,0,0,1,.36,2.61,9.59,9.59,0,0,1-.31,2.27,10.12,10.12,0,0,1-7.13,7.13,10.26,10.26,0,0,1-2.3.33h-.63l-1.16-.07.07,1.16c0,.22,0,.44,0,.63a9.59,9.59,0,0,1-.31,2.27A10.84,10.84,0,0,1,35.44,47a10.75,10.75,0,0,1-4.5,2.6,10.27,10.27,0,0,1-2.3.33H28.4a8.31,8.31,0,0,1-2.34-.36,13.6,13.6,0,0,1-3-1.36,17.31,17.31,0,0,1-3.32-2.67L17.6,43.44l-3-3L18,38.27l4.51,4.51a21.81,21.81,0,0,0,1.74,1.56,6.8,6.8,0,0,0,2.24,1.21,4.78,4.78,0,0,0,1.41.21,5.54,5.54,0,0,0,1.29-.16,6.38,6.38,0,0,0,2.93-1.84A6.38,6.38,0,0,0,34,40.83a5,5,0,0,0-.05-2.71,6.77,6.77,0,0,0-1.21-2.24l-.12-.15V32.8h3l.11.09A6.8,6.8,0,0,0,38,34.1a4.77,4.77,0,0,0,1.42.21,5.52,5.52,0,0,0,1.29-.16,6.38,6.38,0,0,0,2.93-1.84,6.38,6.38,0,0,0,1.84-2.93,5,5,0,0,0-.05-2.71,6.77,6.77,0,0,0-1.21-2.24,21.45,21.45,0,0,0-1.56-1.74l-.19-.19,3.4-2.2M46,19,40.8,22.33l1.09,1.09a20.34,20.34,0,0,1,1.48,1.66,5.72,5.72,0,0,1,1,1.9,4,4,0,0,1,0,2.16,5.46,5.46,0,0,1-1.57,2.44,5.47,5.47,0,0,1-2.44,1.57,4.47,4.47,0,0,1-1.05.13,3.72,3.72,0,0,1-1.11-.17,5.75,5.75,0,0,1-1.9-1L36,31.78H31.58v4.34l.35.41a5.72,5.72,0,0,1,1,1.9,4,4,0,0,1,0,2.16A5.46,5.46,0,0,1,31.43,43,5.47,5.47,0,0,1,29,44.6a4.48,4.48,0,0,1-1.05.13,3.74,3.74,0,0,1-1.11-.17,5.75,5.75,0,0,1-1.9-1,20.67,20.67,0,0,1-1.66-1.48L18.17,37,13,40.3l3.87,3.87L19,46.31a18.24,18.24,0,0,0,3.52,2.83,14.56,14.56,0,0,0,3.24,1.47A9.29,9.29,0,0,0,28.4,51h.28a11.24,11.24,0,0,0,2.53-.37,11.72,11.72,0,0,0,5-2.86,11.81,11.81,0,0,0,2.9-5,10.57,10.57,0,0,0,.35-2.51c0-.24,0-.48,0-.72h.73a11.24,11.24,0,0,0,2.53-.37,11.15,11.15,0,0,0,7.85-7.85,10.56,10.56,0,0,0,.35-2.51,9.83,9.83,0,0,0-.4-2.91A13.13,13.13,0,0,0,49,22.67a19.07,19.07,0,0,0-2.84-3.51L46,19Z"/></g></g></svg>