<svg xmlns="http://www.w3.org/2000/svg" viewBox="0 0 50.47 36.25"><defs><style>.cls-1{fill:#d82e27;}</style></defs><title>my account</title><g id="Layer_2" data-name="Layer 2"><g id="Layer_1-2" data-name="Layer 1"><circle class="cls-1" cx="39.24" cy="4.95" r="4.95"/><circle class="cls-1" cx="11.23" cy="4.95" r="4.95"/><circle class="cls-1" cx="25.13" cy="6.61" r="6.61"/><path class="cls-1" d="M18.92,14.34A11.23,11.23,0,0,0,0,22.53C0,25,3.62,26.5,7.95,27A17.63,17.63,0,0,1,18.92,14.34Z"/><path class="cls-1" d="M39.24,11.29a11.19,11.19,0,0,0-7.75,3.11A17.62,17.62,0,0,1,42.31,27c4.42-.47,8.15-2,8.15-4.49A11.23,11.23,0,0,0,39.24,11.29Z"/><path class="cls-1" d="M40.11,30c0,8.27-30,8.27-30,0a15,15,0,1,1,30,0Z"/></g></g></svg>