<svg xmlns="http://www.w3.org/2000/svg" viewBox="0 0 105.08 75.51"><defs><style>.cls-1{fill:#4d4d4d;}</style></defs><title>Books</title><g id="Layer_2" data-name="Layer 2"><g id="Layer_1-2" data-name="Layer 1"><path class="cls-1" d="M105.08,6.63V75.51a80,80,0,0,0-50,0V6.63C71.92-2.21,88.29-2.21,105.08,6.63Z"/><path class="cls-1" d="M0,6.63V75.51a81.29,81.29,0,0,1,25-4,81.29,81.29,0,0,1,25,4V6.63C33.17-2.21,16.79-2.21,0,6.63ZM44.87,45.26a4,4,0,0,1-4.06.21c-8.62-4.33-21.42-6.64-31.48-.1A3.91,3.91,0,0,1,7.2,46,3.86,3.86,0,0,1,4,44.2,4,4,0,0,1,5.1,38.49c12.79-8.32,28.84-5.51,39.58-.1a3.7,3.7,0,0,1,2.13,3.13A4.3,4.3,0,0,1,44.87,45.26Zm0-13.05a4,4,0,0,1-4.06.21c-8.62-4.33-21.42-6.64-31.48-.1A3.91,3.91,0,0,1,7.2,33,3.86,3.86,0,0,1,4,31.15,4,4,0,0,1,5.1,25.43c12.79-8.32,28.84-5.51,39.58-.1a3.7,3.7,0,0,1,2.13,3.13A4.3,4.3,0,0,1,44.87,32.21Zm1.5-14.75a4.12,4.12,0,0,1-5.56,1.91c-8.27-4.16-21.48-6.68-31.47-.11a3.94,3.94,0,0,1-2.17.68A3.82,3.82,0,0,1,4,18.12a4.1,4.1,0,0,1,1.11-5.74C17.8,4,33.88,6.84,44.69,12.27A3.73,3.73,0,0,1,46.37,17.46Z"/></g></g></svg>