<svg xmlns="http://www.w3.org/2000/svg" viewBox="0 0 121.49 59.89"><defs><style>.cls-1{fill:#4d4d4d;}</style></defs><title>Fashion</title><g id="Layer_2" data-name="Layer 2"><g id="Layer_1-2" data-name="Layer 1"><path class="cls-1" d="M119.56,52.62,68.77,29.09c-1.35-.63-2.71-1.35-4.09-2V22.69c7-2.3,11.43-10,6.79-17.08A12.87,12.87,0,0,0,59.77,0C53.73.59,50,5.22,48.07,10.59c-1.71,4.73,5.83,6.77,7.52,2.07.83-2.31,2.37-4.78,5.09-4.88A5,5,0,0,1,65,10a3.38,3.38,0,0,1-1.13,4.65,7.8,7.8,0,0,1-2.51.84l-.22.06h-.4a4,4,0,0,0-3.9,3.9v7.69l-1.47.71L25.89,41.55,2.67,52.31a3.46,3.46,0,0,0-1,.51A3.2,3.2,0,0,0,.37,57.17,3.55,3.55,0,0,0,4,59.89H117.59C121.23,59.89,123.2,54.31,119.56,52.62ZM60.78,33.94,99.93,52.09H21.62Z"/></g></g></svg>