<svg xmlns="http://www.w3.org/2000/svg" viewBox="0 0 82.03 98.17"><defs><style>.cls-1{fill:#4d4d4d;}</style></defs><title>handcrafted</title><g id="Layer_2" data-name="Layer 2"><g id="Layer_1-2" data-name="Layer 1"><path class="cls-1" d="M.95,42.21A5.25,5.25,0,0,1,2.18,34.9l.13-.08a5.23,5.23,0,0,1,7.2,1.77l13,20a1.81,1.81,0,0,0,3-2L3.46,20.69a5.26,5.26,0,0,1,1.17-7.35,5.26,5.26,0,0,1,7.19,1.9L33.94,49.12a1.81,1.81,0,1,0,3-2L11.56,8.22A5.31,5.31,0,0,1,12.84.85L13,.76a5.28,5.28,0,0,1,7.22,1.85l5.66,8.66.15.23.07.1,7.83,12L45.6,41.51a1.81,1.81,0,1,0,3-2L36.92,21.6l-8-12.27a5.28,5.28,0,0,1,1.31-7.19A5.3,5.3,0,0,1,37.45,4L62.87,42.87a1.81,1.81,0,0,0,3.32-.8l1-8.68a8.22,8.22,0,0,1,3.18-5.74,8,8,0,0,1,6.24-1.49h.09l1.22.14,4.07,41.24a16.78,16.78,0,0,1-7.28,15.88L56.06,95.58c-7.81,5.1-18.63,2.44-24.15-6C20.64,72.39,8.05,53.14.95,42.21Z"/></g></g></svg>