<svg xmlns="http://www.w3.org/2000/svg" viewBox="0 0 107.42 106.96"><defs><style>.cls-1{fill:#4d4d4d;}</style></defs><title>Instruments</title><g id="Layer_2" data-name="Layer 2"><g id="Layer_1-2" data-name="Layer 1"><path class="cls-1" d="M103.83,3.65A13.26,13.26,0,0,0,96.36,0a2,2,0,0,0-1.45.45l-13,10.7a2,2,0,0,0-.71,1.28l-.56,4.4L59,38.26c-9.38-5.89-20.29-5.58-26.83.91A16.94,16.94,0,0,0,29,43.66a16.87,16.87,0,0,1-11.94,9A20.82,20.82,0,0,0,6.16,58.27C1.49,62.9-.64,69.5.17,76.85a33.84,33.84,0,0,0,9.9,19.87,33.83,33.83,0,0,0,19.79,10A27.32,27.32,0,0,0,33,107a21.46,21.46,0,0,0,15.51-6,20.83,20.83,0,0,0,5.7-10.84,16.86,16.86,0,0,1,9.08-11.87A16.9,16.9,0,0,0,67.78,75c6.48-6.43,6.86-17.5,1.11-26.82L90.47,26.76l4.4-.53a2,2,0,0,0,1.29-.7L107,12.59a2,2,0,0,0,.45-1.45A13.27,13.27,0,0,0,103.83,3.65ZM49.16,70.92a9.22,9.22,0,1,1,0-13A9.22,9.22,0,0,1,49.16,70.92Z"/></g></g></svg>