<svg xmlns="http://www.w3.org/2000/svg" viewBox="0 0 115.81 78.37"><defs><style>.cls-1{fill:#4d4d4d;}</style></defs><title>IT</title><g id="Layer_2" data-name="Layer 2"><g id="Layer_1-2" data-name="Layer 1"><path class="cls-1" d="M13.6,0A2.63,2.63,0,0,0,11,2.64V57.15a2.63,2.63,0,0,0,2.63,2.63h88.6a2.63,2.63,0,0,0,2.64-2.63V2.64A2.64,2.64,0,0,0,102.2,0Zm85,53.89H17V5.72H98.63Z"/><path class="cls-1" d="M103.9,63.6h-92a2.43,2.43,0,0,0-1.67.68L1,73c-1.92,1.8-.81,5.37,1.67,5.37H113.17c2.48,0,3.58-3.57,1.67-5.37l-9.27-8.71A2.42,2.42,0,0,0,103.9,63.6Z"/></g></g></svg>