<svg xmlns="http://www.w3.org/2000/svg" viewBox="0 0 99.56 94.82"><defs><style>.cls-1{fill:#4d4d4d;}</style></defs><title>knives &amp;amp; tools</title><g id="Layer_2" data-name="Layer 2"><g id="Layer_1-2" data-name="Layer 1"><path class="cls-1" d="M12.51,19.23a4.64,4.64,0,0,1-.9-5.29L2.73,5.07,0,7.8S4.29,22.29,10.35,28.34s10.49,6.8,10.49,6.8l6-6-9-9A4.86,4.86,0,0,1,12.51,19.23Z"/><path class="cls-1" d="M19.11,12.63a4.64,4.64,0,0,0-5.29-.9L5,2.85,7.69.12S22.17,4.4,28.23,10.46,35,21,35,21l-6,6-9-9A4.86,4.86,0,0,0,19.11,12.63Z"/><rect class="cls-1" x="20.91" y="28.53" width="28.05" height="10.87" rx="4.55" ry="4.55" transform="translate(-13.78 34.65) rotate(-45)"/><path class="cls-1" d="M62.24,29.17A62.65,62.65,0,0,0,50.07,24.5l-.36-.07a6.38,6.38,0,0,1-.65,8.26l-.66.66A55.76,55.76,0,0,1,55.51,36Z"/><path class="cls-1" d="M85.53,48.36,79.1,54.82A49.9,49.9,0,0,1,86.88,72a4.49,4.49,0,0,0,8.84-1.61A58.09,58.09,0,0,0,85.53,48.36Z"/><path class="cls-1" d="M30.17,61.33l6.77-6.78a55.76,55.76,0,0,1-2.61-7.12l-.66.66a6.38,6.38,0,0,1-8.26.65c0,.12,0,.24.07.36A62.71,62.71,0,0,0,30.17,61.33Z"/><path class="cls-1" d="M72.93,85.91A51.25,51.25,0,0,1,50,73.41l-.65.67a59.39,59.39,0,0,1-6.05,5.35A59.49,59.49,0,0,0,71.32,94.75a4.49,4.49,0,0,0,1.61-8.84Z"/><path class="cls-1" d="M20.8,76.86l-5.39,5.4A6.51,6.51,0,0,0,14,89.56a8.53,8.53,0,0,0,7.45,5.26h0A6.32,6.32,0,0,0,26,92.9a7.39,7.39,0,0,0,2.22-7.21c-.2-1.33-.27-1.78.79-2.84a11.84,11.84,0,0,1,4-2.48C36,79.07,40,77.29,46.21,71l6.65-6.79-7.93-7.93a7.55,7.55,0,0,1-1.49-2.15Z"/><path class="cls-1" d="M96.94.66C84.47,12.73,48.54,49.2,48.54,49.2a2.49,2.49,0,0,0,0,3.52L60.08,64.26a2.49,2.49,0,0,0,3.52,0S78.07,49.69,82.91,44.85C88.85,38.91,101.74,21,99.24,1.07,99.12.1,98.19-.55,96.94.66Z"/></g></g></svg>