<svg xmlns="http://www.w3.org/2000/svg" viewBox="0 0 35.75 59"><defs><style>.cls-1{fill:#4d4d4d;}</style></defs><title>outdoor &amp;amp; survival v2</title><g id="Layer_2" data-name="Layer 2"><g id="Layer_1-2" data-name="Layer 1"><path class="cls-1" d="M34.06,53.29h0L26,50.19l8.17-3.13c3.13-1.2,1.29-6.7-2.18-5.37L17.88,47.1h0L3.78,41.72C.3,40.39-1.52,45.9,1.61,47.09l8.17,3.11L1.7,53.29A2.83,2.83,0,0,0,0,56.4,2.71,2.71,0,0,0,2.85,59l.28-.05L17.88,53.3l14.25,5.43.49.2.28.05a2.71,2.71,0,0,0,2.82-2.58A2.83,2.83,0,0,0,34.06,53.29ZM3.12,57.69l-.25.09-.17,0A1.62,1.62,0,0,1,1,56.27a1.69,1.69,0,0,1,1-1.85l.25-.06A1.62,1.62,0,0,1,4,55.9,1.74,1.74,0,0,1,3.12,57.69Zm31.61-1.41a1.62,1.62,0,0,1-1.68,1.54l-.17,0-.25-.09a1.74,1.74,0,0,1-.84-1.79,1.62,1.62,0,0,1,1.68-1.54l.26.06h0A1.69,1.69,0,0,1,34.73,56.27Z"/><path class="cls-1" d="M34.49,23.23s-1.95,2.53-4.26,2.2c0,0,4.29-6.58-1.36-14.13C25.48,19.22,16.2,15,20.28,0,4.34,3.59,6.78,24.27,6.78,24.27a16.72,16.72,0,0,1-5-4.37,16.64,16.64,0,1,0,32.72,4.27C34.51,23.85,34.5,23.54,34.49,23.23ZM17.88,38.16a7.3,7.3,0,0,1-7.3-7.3c0-10.6,8.46-11.66,8.46-11.66-3.13,4.25.89,10.06,3.71,6.23a7.3,7.3,0,0,1-4.87,12.73Z"/></g></g></svg>