<svg xmlns="http://www.w3.org/2000/svg" viewBox="0 0 73.46 110.05"><defs><style>.cls-1{fill:#4d4d4d;}</style></defs><title>rc toy - modelling</title><g id="Layer_2" data-name="Layer 2"><g id="Layer_1-2" data-name="Layer 1"><rect class="cls-1" x="15.22" y="66.71" width="13.34" height="4.39" rx="2.19" ry="2.19"/><rect class="cls-1" x="45.47" y="66.71" width="13.34" height="4.39" rx="2.19" ry="2.19" transform="translate(121.04 16.76) rotate(90)"/><path class="cls-1" d="M67.8,54.35c-1.85-5.79-8.91-11-15.12-11.73-1.61-.21-3.25-.37-4.9-.52L47.43,41a6.73,6.73,0,0,0-5.21-4c-1.63-.19-2.94-.31-4.17-.36v-18a4.12,4.12,0,1,0-2.65,0v18c-1.23.05-2.54.17-4.17.36A6.73,6.73,0,0,0,26,41l-.35,1.13c-1.65.14-3.29.31-4.9.52-6.21.72-13.27,5.94-15.12,11.73C1.78,66,.87,77.71,0,89.87-.19,98,6.79,107.39,15,108.73a178.45,178.45,0,0,0,43.4,0c8.24-1.33,15.22-10.77,15-18.86C72.59,77.71,71.67,66,67.8,54.35ZM21.26,99.62a4.12,4.12,0,1,1,4.12-4.12A4.12,4.12,0,0,1,21.26,99.62Zm.63-20A11.31,11.31,0,1,1,33.2,68.35,11.31,11.31,0,0,1,21.89,79.65Zm14.84,20a4.12,4.12,0,1,1,4.12-4.12A4.12,4.12,0,0,1,36.73,99.62Zm16,0a4.12,4.12,0,1,1,4.12-4.12A4.12,4.12,0,0,1,52.77,99.62Zm-1.35-20A11.31,11.31,0,1,1,62.73,68.35,11.31,11.31,0,0,1,51.43,79.65Z"/><path class="cls-1" d="M26.12,24.71A1.54,1.54,0,0,1,25,24.22C15.67,14.28,25,5.13,25,5a1.55,1.55,0,0,1,2.15,2.23c-.31.3-7.15,7.16.05,14.85a1.55,1.55,0,0,1-1.13,2.6Z"/><path class="cls-1" d="M17.47,29.32a1.54,1.54,0,0,1-1.13-.49C2.55,14.09,16.26.57,16.4.43a1.55,1.55,0,0,1,2.15,2.23h0c-.48.47-11.64,11.57.05,24.05a1.55,1.55,0,0,1-1.13,2.6Z"/><path class="cls-1" d="M46.86,24.71a1.55,1.55,0,0,1-1.13-2.6c7.21-7.7.35-14.56.05-14.85A1.55,1.55,0,0,1,47.94,5c.1.09,9.37,9.24.06,19.19A1.54,1.54,0,0,1,46.86,24.71Z"/><path class="cls-1" d="M55.51,29.32a1.55,1.55,0,0,1-1.13-2.6c11.74-12.53.54-23.59.06-24.05A1.55,1.55,0,1,1,56.58.43c.14.13,13.86,13.66.06,28.39A1.54,1.54,0,0,1,55.51,29.32Z"/></g></g></svg>