<svg xmlns="http://www.w3.org/2000/svg" viewBox="0 0 93.93 88.36"><defs><style>.cls-1{fill:#4d4d4d;}</style></defs><title>sold by the kg</title><g id="Layer_2" data-name="Layer 2"><g id="Layer_1-2" data-name="Layer 1"><path class="cls-1" d="M56.23,50.76a3.12,3.12,0,0,0-2.47,1.19,5.65,5.65,0,0,0-1.06,3.74,6.06,6.06,0,0,0,1,4,3.18,3.18,0,0,0,2.53,1.17,3.21,3.21,0,0,0,2.53-1.17,5.84,5.84,0,0,0,1.05-3.88A5.69,5.69,0,0,0,58.77,52,3.23,3.23,0,0,0,56.23,50.76Z"/><path class="cls-1" d="M93.79,80.63,82.35,23.43c-.46-2.32-3.4-4.17-6.53-4.17H66.23a19.26,19.26,0,1,0-38.52,0H18.12c-3.13,0-6.07,1.85-6.53,4.17L.14,80.63a6.29,6.29,0,0,0,6.43,7.72H87.35A6.29,6.29,0,0,0,93.79,80.63ZM32.73,19.26a14.24,14.24,0,1,1,28.47,0H32.73Zm4.66,34.57-2.77,2.7v7.54H30.74V42.12h3.88v9.53l9.54-9.53h5.36l-9.38,9.06,9.49,12.89h-5Zm26,7.63a12.71,12.71,0,0,1-.77,5.24,5.83,5.83,0,0,1-2.51,2.57,8.47,8.47,0,0,1-4.1.92,7.8,7.8,0,0,1-4.69-1.32,4.66,4.66,0,0,1-1.84-4.13V64.1l3.53.53.06.42a1.82,1.82,0,0,0,.64,1.3,3.73,3.73,0,0,0,2.26.6,4.06,4.06,0,0,0,2.41-.6,2.92,2.92,0,0,0,1.1-1.68,9.4,9.4,0,0,0,.15-1.8A5.72,5.72,0,0,1,56,64.07a6.25,6.25,0,0,1-5.26-2.47A9.23,9.23,0,0,1,49,55.88a10.63,10.63,0,0,1,.83-4.21,6.84,6.84,0,0,1,2.47-3.06A6.69,6.69,0,0,1,56,47.52a5.86,5.86,0,0,1,3.84,1.35v-1h3.48Z"/></g></g></svg>