<svg xmlns="http://www.w3.org/2000/svg" viewBox="0 0 110.88 51.96"><defs><style>.cls-1{fill:#4d4d4d;}</style></defs><title>sold by the meter</title><g id="Layer_2" data-name="Layer 2"><g id="Layer_1-2" data-name="Layer 1"><path class="cls-1" d="M48.06,0C21.52,0,0,5.61,0,12.52S21.52,25,48.06,25s48.06-5.61,48.06-12.52S74.61,0,48.06,0Zm0,15.92c-11.45,0-20.73-1.52-20.73-3.39s9.28-3.39,20.73-3.39,20.73,1.52,20.73,3.39S59.51,15.92,48.06,15.92Z"/><path class="cls-1" d="M48.06,30.13h0c-13.09,0-25.43-1.34-34.75-3.77Q4,23.94,0,20.43V42.82A33.68,33.68,0,0,0,5,46V37.67H7.15v9.39a50.79,50.79,0,0,0,6,2.36V40.71h2.11V50a52.55,52.55,0,0,0,6,1.28V38.6h2.19v13a53.91,53.91,0,0,0,5.6.33V43.76h2.11V52h6V43.76h2.11V52h6V43.76h2.11V52h6V43.76h2.11V52h6V38.6h2.19V52h5.6V43.76h2.11V52h6V43.76h2.11V52h6V43.76h2.11V52h6V43.76h2.11V52h6V38.6H104V52h6.89V30.13Z"/></g></g></svg>