<svg xmlns="http://www.w3.org/2000/svg" viewBox="0 0 80.69 80.69"><defs><style>.cls-1{fill:#4d4d4d;}</style></defs><title>traditionally</title><g id="Layer_2" data-name="Layer 2"><g id="Layer_1-2" data-name="Layer 1"><path class="cls-1" d="M74.37,43.46a19.57,19.57,0,0,0,1.19-2.06,2.36,2.36,0,0,0,0-2.11,19.57,19.57,0,0,0-1.19-2.06,19.56,19.56,0,0,0,6.32-13,2.36,2.36,0,0,0-.81-2,19.56,19.56,0,0,0-13.5-4.75q-.17-.66-.39-1.31a2.37,2.37,0,0,0-1.5-1.5,19.49,19.49,0,0,0-2.23-.6A19.56,19.56,0,0,0,57.51.82a2.37,2.37,0,0,0-2-.81A19.56,19.56,0,0,0,43.4,5.44a19.66,19.66,0,0,0-2-1.15,2.37,2.37,0,0,0-2.11,0,19.56,19.56,0,0,0-2,1.15A19.57,19.57,0,0,0,25.13,0a2.37,2.37,0,0,0-2,.81A19.56,19.56,0,0,0,18.43,14.1a19.49,19.49,0,0,0-2.23.6,2.37,2.37,0,0,0-1.5,1.5q-.22.65-.39,1.31A19.56,19.56,0,0,0,.82,22.26a2.37,2.37,0,0,0-.81,2,19.56,19.56,0,0,0,6.32,13,19.72,19.72,0,0,0-1.19,2.06,2.36,2.36,0,0,0,0,2.11,19.61,19.61,0,0,0,1.31,2.24A19.56,19.56,0,0,0,0,56.78a2.37,2.37,0,0,0,.81,2,19.55,19.55,0,0,0,13.58,4.74c.09.34.19.68.31,1A2.36,2.36,0,0,0,16.2,66a19.54,19.54,0,0,0,2.23.6,19.56,19.56,0,0,0,4.75,13.29,2.36,2.36,0,0,0,2,.81,19.56,19.56,0,0,0,12.16-5.43,19.56,19.56,0,0,0,2,1.15,2.37,2.37,0,0,0,2.11,0,19.66,19.66,0,0,0,2-1.15,19.56,19.56,0,0,0,12.16,5.43,2.37,2.37,0,0,0,2-.81,19.56,19.56,0,0,0,4.75-13.29A19.63,19.63,0,0,0,64.5,66,2.36,2.36,0,0,0,66,64.5q.22-.65.39-1.31a19.55,19.55,0,0,0,13.5-4.75,2.36,2.36,0,0,0,.81-2,19.56,19.56,0,0,0-6.32-13ZM55.42,40.35a21.94,21.94,0,0,0,7.63-6.25,14.69,14.69,0,0,1,7.69,6.25,14.69,14.69,0,0,1-7.69,6.25,21.94,21.94,0,0,0-7.63-6.25ZM40.35,47.44a7.09,7.09,0,1,1,7.09-7.09,7.1,7.1,0,0,1-7.09,7.09Zm-22.7-.84a14.69,14.69,0,0,1-7.69-6.25,14.69,14.69,0,0,1,7.69-6.25,22,22,0,0,0,7.63,6.25,21.94,21.94,0,0,0-7.63,6.25ZM75.84,25.07a14.82,14.82,0,0,1-4.54,8.56,19.39,19.39,0,0,0-5.84-3.68A19.45,19.45,0,0,0,67,22.22a14.83,14.83,0,0,1,8.84,2.85Zm-17.89,7.7a17.73,17.73,0,0,1-6.31,4.07,11.76,11.76,0,0,0-1.43-3l6-6a2.36,2.36,0,1,0-3.34-3.34l-6,6a11.76,11.76,0,0,0-3-1.43,17.72,17.72,0,0,1,4.07-6.31,14.65,14.65,0,0,1,13.93-3.9,14.66,14.66,0,0,1-3.9,13.93Zm-.4-19.06A19.31,19.31,0,0,0,51,15.13a19.4,19.4,0,0,0-4-6.61,14.83,14.83,0,0,1,7.66-3.66,14.82,14.82,0,0,1,2.85,8.86ZM42.2,10.42h0a14.68,14.68,0,0,1,4.62,7.05,21.83,21.83,0,0,0-6.47,7.8,21.83,21.83,0,0,0-6.47-7.8,14.68,14.68,0,0,1,4.62-7.05h0A14.68,14.68,0,0,1,40.35,9.1a14.78,14.78,0,0,1,1.85,1.33ZM26,4.86a14.83,14.83,0,0,1,7.66,3.66,19.38,19.38,0,0,0-4,6.61,19.3,19.3,0,0,0-6.52-1.41A14.83,14.83,0,0,1,26,4.86Zm-7.15,14a14.65,14.65,0,0,1,13.93,3.9,17.73,17.73,0,0,1,4.07,6.31,11.79,11.79,0,0,0-3,1.43l-6-6a2.36,2.36,0,0,0-3.34,3.34l6,6a11.76,11.76,0,0,0-1.43,3,17.74,17.74,0,0,1-6.31-4.07,14.66,14.66,0,0,1-3.9-13.93Zm-14,6.22a14.83,14.83,0,0,1,8.84-2.85,19.45,19.45,0,0,0,1.54,7.72A19.39,19.39,0,0,0,9.4,33.63a14.82,14.82,0,0,1-4.54-8.56Zm0,30.84a14.82,14.82,0,0,1,4.7-8.71,19.39,19.39,0,0,0,5.68,3.54,19.42,19.42,0,0,0-1.54,8,14.83,14.83,0,0,1-8.85-2.85Zm17.89-8a17.73,17.73,0,0,1,6.31-4.07,11.76,11.76,0,0,0,1.43,3l-6,6a2.36,2.36,0,0,0,3.34,3.34l6-6a11.76,11.76,0,0,0,3,1.43,17.72,17.72,0,0,1-4.07,6.31,14.65,14.65,0,0,1-13.93,3.9,14.66,14.66,0,0,1,3.9-13.93ZM23.15,67a19.32,19.32,0,0,0,6.52-1.41,19.41,19.41,0,0,0,4,6.61A14.83,14.83,0,0,1,26,75.84,14.82,14.82,0,0,1,23.15,67Zm10.72-3.76a21.82,21.82,0,0,0,6.47-7.8,21.83,21.83,0,0,0,6.47,7.8,14.71,14.71,0,0,1-6.47,8.38,14.71,14.71,0,0,1-6.47-8.38ZM54.69,75.84A14.83,14.83,0,0,1,47,72.18a19.41,19.41,0,0,0,4-6.61A19.32,19.32,0,0,0,57.54,67a14.82,14.82,0,0,1-2.85,8.86Zm7.15-14a14.65,14.65,0,0,1-13.93-3.9,17.73,17.73,0,0,1-4.07-6.31,11.76,11.76,0,0,0,3-1.43l6,6a2.36,2.36,0,0,0,3.34-3.34l-6-6a11.76,11.76,0,0,0,1.43-3,17.73,17.73,0,0,1,6.31,4.07,14.66,14.66,0,0,1,3.9,13.93ZM67,58.47a19.44,19.44,0,0,0-1.54-7.72,19.39,19.39,0,0,0,5.84-3.68,14.82,14.82,0,0,1,4.54,8.56A14.83,14.83,0,0,1,67,58.47Zm0,0"/></g></g></svg>